<svg
   xmlns:dc="http://purl.org/dc/elements/1.1/"
   xmlns:cc="http://creativecommons.org/ns#"
   xmlns:rdf="http://www.w3.org/1999/02/22-rdf-syntax-ns#"
   xmlns:svg="http://www.w3.org/2000/svg"
   xmlns="http://www.w3.org/2000/svg"
   xmlns:sodipodi="http://sodipodi.sourceforge.net/DTD/sodipodi-0.dtd"
   xmlns:inkscape="http://www.inkscape.org/namespaces/inkscape"
   id="svg4811"
   version="1.1"
   inkscape:version="0.91 r13725"
   width="712.5"
   height="642.5"
   viewBox="0 0 712.5 642.5"
   sodipodi:docname="dccomics2.svg">
<g
     id="g4916">
    <path
       sodipodi:nodetypes="csssssscsssscssssssssssssssscssssscsscc"
       style="fill:#d11f25;fill-opacity:1;stroke:none"
       d="m 429.4614,551.87556 c -3.15351,-3.89368 -20.98889,-9.5864 -36.50902,-11.653 -33.45267,-4.45442 -58.54452,-3.84793 -79.91037,1.93152 -7.59628,2.05478 -17.65912,6.59462 -19.55186,8.8208 -1.8137,2.13322 -3.14508,17.0619 -3.18609,35.72573 -0.0422,19.16368 -0.44155,19.57403 -4.51482,4.63831 -2.30249,-8.4427 -2.50184,-10.45662 -1.90152,-19.21033 l 0.67062,-9.77888 -4.8546,-6.99712 c -7.08637,-10.21382 -13.16785,-17.63923 -20.56819,-25.11352 -8.52093,-8.60609 -13.50566,-12.08038 -17.33227,-12.08038 -3.86008,0 -11.66539,4.94968 -24.87475,15.77413 l -10.0537,8.23854 -4.89949,-1.56429 c -2.69472,-0.86036 -6.67776,-1.39876 -8.85119,-1.19643 -2.17343,0.20232 -3.95169,0.11416 -3.95169,-0.1959 0,-2.49323 4.67456,-16.96308 7.67375,-23.7537 9.30538,-21.06878 25.63871,-39.01819 46.77346,-51.40141 4.91322,-2.87873 6.74047,-3.41862 11.57033,-3.41862 12.74291,0 33.38767,10.17313 60.11514,29.623 4.48921,3.26683 7.33479,4.7326 8.34762,4.29985 7.56438,-3.23198 18.30447,-6.27783 27.03012,-7.66564 13.52791,-2.15159 25.66938,-0.96416 40.40908,3.952 5.51231,1.83852 10.48268,3.34277 11.04526,3.34277 0.56259,0 4.02934,-2.23264 7.70389,-4.96142 25.50778,-18.94252 51.1056,-30.89425 62.23665,-29.05857 9.86206,1.62642 34.92588,22.08012 45.05438,36.76732 8.55403,12.40408 16.35895,30.58262 16.95403,39.48781 l 0.28456,4.25833 -5.89243,0.5537 c -3.24084,0.30454 -6.87852,1.07032 -8.08373,1.70174 -1.97703,1.03577 -2.74593,0.65356 -7.86347,-3.9089 -14.93206,-13.31245 -25.61862,-20.87431 -29.50001,-20.87431 -7.47979,0 -21.81876,13.97915 -38.34881,37.38651 l -5.0773,7.18971 0.90435,9.10697 c 0.86917,8.75252 0.77274,9.58656 -2.47763,21.42962 -3.19013,11.62363 -4.77446,15.95688 -5.83418,15.95688 -2.52387,-10.08276 2.48326,-50.84183 -2.73612,-57.35282 z"
       id="path4216"
       inkscape:connector-curvature="0" />
    <path
       sodipodi:nodetypes="csssssssssssssssccssssssscsssccssssssssssccssscsssssss"
       style="fill:#050505"
       d="m 308.32772,610.71013 c -1.9808,-1.0727 -4.50848,-3.79999 -6.14924,-6.63484 -3.58141,-6.18786 -6.80501,-20.62277 -6.88651,-30.83688 -0.0589,-7.36929 0.1366,-8.19593 2.47722,-10.48067 2.02088,-1.97263 3.74399,-2.56531 8.41746,-2.89529 7.74524,-0.54687 15.31161,1.7384 36.22088,10.93982 9.03264,3.97494 17.17549,7.455 18.09523,7.73348 0.92446,0.27991 10.18614,-3.19264 20.7115,-7.76553 22.2667,-9.67407 33.96427,-12.9726 39.87473,-11.24406 2.11228,0.61775 4.87781,1.94484 6.14561,2.94909 2.1435,1.6979 2.30131,2.48674 2.25134,11.25329 -0.0976,17.13838 -4.98483,31.76387 -12.22216,36.57643 -3.09087,2.05532 -4.17951,2.23438 -10.8028,1.77693 -12.14936,-0.83912 -27.85299,-6.84135 -36.6891,-14.02327 -6.35959,-5.16902 -9.38954,-5.15924 -15.84893,0.0511 -6.16547,4.97323 -11.59228,7.6447 -22.09193,10.87524 -11.4533,3.52395 -19.13992,4.08818 -23.5033,1.72521 z m 97.01722,-10.10049 c 6.11724,-2.92597 12.90091,-12.65203 12.90091,-18.49664 0,-2.45055 -0.1655,-2.53145 -3.96497,-1.9384 -3.8726,0.60448 -5.84758,1.22958 -16.41742,5.1964 -6.34313,2.38054 -17.91841,10.30161 -17.91841,12.26172 0,2.6624 12.47828,6.25805 18.65936,5.37673 1.35035,-0.19253 4.38358,-1.27245 6.74053,-2.39981 z m -71.40218,1.52862 c 0,0 9.17458,-2.44959 9.17458,-4.65824 0,-3.63206 -18.99336,-16.42196 -29.57899,-19.06913 -5.08194,-1.27085 -6.7549,-0.93928 -7.96426,0.24121 -3.23614,3.15889 7.01385,19.86962 13.91096,22.80163 4.66694,1.42362 10.82626,1.90892 14.45771,0.68453 z m 99.06769,-16.3552 c -0.0586,-17.63269 0.4395,-32.19464 -1.59581,-34.39158 -5.98901,-6.46461 -28.24333,-12.72572 -54.15335,-14.5386 -7.14753,-0.5001 -13.44506,-0.82556 -13.99452,-1.15704 -0.59687,-0.36007 -1.02182,-7.49856 -1.05564,-15.62627 -0.0414,-9.96669 -0.53806,-15.39798 -1.85734,-20.31427 -0.9904,-3.69072 -1.56396,-7.09361 -1.27457,-7.56198 0.80648,-1.30529 15.52204,0.052 24.13471,2.22613 4.22852,1.06741 10.34943,3.10651 13.60204,4.53134 3.9278,1.72062 6.33014,2.29071 7.15353,1.69756 8.2042,-5.91005 29.67304,-19.26425 36.51747,-22.71488 11.21335,-5.65321 22.47755,-9.33359 28.56651,-9.33359 3.74343,0 6.05427,0.7402 10.53727,3.37529 14.6924,8.6361 29.37921,21.80205 37.19957,33.34743 4.31673,6.37292 9.38424,16.74085 12.26665,25.09712 2.58612,10.96107 -1.6316,6.99086 -8.36576,9.31312 -3.13121,1.10523 -3.43983,0.9932 -7.43527,-2.6992 -10.60777,-9.80324 -22.9663,-18.85513 -28.1521,-20.61975 -7.32284,-2.49182 -22.02917,10.75377 -39.7627,35.81321 l -6.60496,9.33354 0.83955,12.3235 c 0.95282,13.98632 -3.23808,20.55596 -4.55439,25.47562 -2.77709,10.37915 -1.96982,-1.22882 -2.01089,-13.5767 z"
       id="path4202"
       inkscape:connector-curvature="0" />
    <g
       style="fill:#e0e0e0;fill-opacity:1"
       id="g4912">
      <ellipse
         ry="21.905977"
         rx="19.332426"
         cy="554.1452"
         cx="523.34082"
         id="ellipse4262"
         style="fill:#e0e0e0;fill-opacity:1;stroke:none;stroke-width:1;stroke-opacity:1" />
      <ellipse
         style="fill:#e0e0e0;fill-opacity:1;stroke:none;stroke-width:1;stroke-opacity:1"
         id="path4258"
         cx="198.37407"
         cy="552.19196"
         rx="19.332426"
         ry="21.905977" />
    </g>
  </g>
</svg>
