<svg id="Capa_1" data-name="Capa 1" xmlns="http://www.w3.org/2000/svg" viewBox="0 0 296.47 296.47">
  <title>token5</title>
  <path d="M157.27,8.54A148.24,148.24,0,1,0,305.51,156.77,148.22,148.22,0,0,0,157.27,8.54ZM182.66,27A130.66,130.66,0,0,1,231.11,47l-9.45,14a114.69,114.69,0,0,0-42.32-17.5Zm-50.78,0,3.2,16.55a114.85,114.85,0,0,0-42.3,17.55L83.43,47A130.66,130.66,0,0,1,131.88,27Zm-84.35,56,14,9.45A114.76,114.76,0,0,0,44,134.7l-16.53-3.32A130.66,130.66,0,0,1,47.53,82.93Zm0,147.68a130.66,130.66,0,0,1-20.07-48.45L44,179a114.75,114.75,0,0,0,17.55,42.3Zm84.35,56a130.66,130.66,0,0,1-48.45-20.07l9.45-14a114.7,114.7,0,0,0,42.32,17.51Zm33.63-43.37a51.52,51.52,0,0,1-20.95-8.09,50.32,50.32,0,0,1-17.4-19.86c-8.22-16.41-6.91-35.7,3.42-51.38A64.08,64.08,0,0,1,144,150.38a51.46,51.46,0,0,1,52.3-3.45c2.88,1.44,4.39,2.78,4.83,4.35a4.62,4.62,0,0,1-5.72,5.69,17.75,17.75,0,0,1-2.34-1c-3.64-1.82-13.3-2.46-19.38-1.28a38.87,38.87,0,0,0-30.1,28.51c-.77,2.78-.84,3.58-.84,9.27s.07,6.5.84,9.31a38.88,38.88,0,0,0,18,24,38.58,38.58,0,0,0,57.71-28.5,22.6,22.6,0,0,1,.67-3.58,2.26,2.26,0,0,1,2.75-1.19c1.21.45,1.47,1.44,1.25,4.58a50.5,50.5,0,0,1-8.54,24.09,60.76,60.76,0,0,1-13.25,13.43,57,57,0,0,1-19,8.13A68.15,68.15,0,0,1,165.51,243.21Zm40.63-55.66c.77.77.89,6.63.19,9.57a21.53,21.53,0,0,1-5.69,10.33c-4.48,4.67-9,6.75-15.26,7a21.8,21.8,0,0,1-5.54-.39,21.34,21.34,0,0,1-11.32-6.17,21,21,0,0,1-6.4-14.75,20.32,20.32,0,0,1,2.18-10.84c2.17-4.42,7.23-9.18,11.35-10.78,1.25-.48,1.51-.48,1.89-.1a101,101,0,0,1,3.36,10c1.6,5.27,3.1,9.91,3.36,10.3a2.47,2.47,0,0,0,1.21.89c.45.13,4.48-.93,10.43-2.72C204.83,187.27,205.66,187.07,206.14,187.55Zm-23.48,99L179.47,270a114.58,114.58,0,0,0,42.3-17.55l9.34,14A130.66,130.66,0,0,1,182.66,286.58Zm54.28-144.51a9.14,9.14,0,0,1-12.28,4.28,9,9,0,0,1-4.61-10.94,9.14,9.14,0,0,1,5.83-5.79,8.66,8.66,0,0,0,2.68-1.31c.8-.74.8-.83.9-6.85.16-9-.61-13.49-2.56-15.16-1.18-1-2-1-5.57,0-5.75,1.63-11.54,5.18-14.87,9.15-5,5.85-7.23,11.55-8.8,22-.09.54-.29,1-.48,1a27.75,27.75,0,0,1-3.55-1.92,42.87,42.87,0,0,0-25.46-6c-5.86.41-9.79,1.63-17,5.24Q128.3,147.2,120.06,164a20.69,20.69,0,0,1-2.21,3.93,8,8,0,0,1-1.38-2.14c-5.66-10.75-17-18-32-20.64-5.47-.92-9.85-.73-12.41.48s-3.45,3.14-2.17,5.19c1.75,2.94,14.9,23.09,15.29,23.51s1.28.48,4.19.48c3.58,0,3.8,0,5.5,1a9.08,9.08,0,0,1,2.08,14.36,9.25,9.25,0,0,1-9.37,2.15,9,9,0,0,1-5-4.23c-.89-1.56-1-2-1-4.31,0-2.6.2-3.27,1.92-6.11a2.54,2.54,0,0,0,.39-1.76c-.1-.42-3.27-3.94-7-7.81s-7.32-7.77-8-8.64a24.68,24.68,0,0,1-4.31-19.7,11,11,0,0,1,4.28-6.85c5.47-4.35,12.54-6.2,24.57-6.46a106.27,106.27,0,0,1,22.42,1.7c5.25.86,5.73.8,10.18-1.48,10.39-5.34,17.08-14.45,19.86-27.19.7-3.23,1-13.88.51-17.75-.86-6.56-3.84-9.76-9-9.76-4.09,0-8.86,1.86-14.4,5.63-1.43,1-4.15,2.72-6,3.84-13.79,8.19-20.06,16.35-17.27,22.49.86,1.86.8,2.27-.16,2.27-2.08,0-4-2.21-4-4.67A14.25,14.25,0,0,1,98,94.79c1.92-3,8.61-9.57,13.37-13.18,7.87-6,22.46-15,26.43-16.38,6.17-2.11,11.83-1.28,15.86,2.36,5.63,5.09,8.8,14.94,9.22,28.64a49.13,49.13,0,0,0,.61,7.19c1.31,4.74,6.81,8.48,12.47,8.48,2.27,0,2.56-.22,3.71-2.69,2.59-5.6,11.55-11,27.9-16.73,3.9-1.37,4.47-1.47,7.26-1.5,12,0,18.55,7.1,18.55,19.93a46,46,0,0,1-1.66,12.57,19,19,0,0,0-.77,4.83c.1.48.86,1.18,2.11,1.95C237.33,132.92,238.9,137.65,236.94,142.07ZM105,107.49a8.54,8.54,0,0,1,8.25-9c3-.19,5.12.48,7,2.27a8.18,8.18,0,0,1,2.71,6.24,6.55,6.55,0,0,1-.89,4.44,8.71,8.71,0,0,1-4.9,4.48,13.6,13.6,0,0,1-6.49-.09A8.92,8.92,0,0,1,105,107.49ZM267,82.93a130.66,130.66,0,0,1,20.07,48.45l-16.55,3.2A114.68,114.68,0,0,0,253,92.28Zm-14,138.23a114.66,114.66,0,0,0,17.51-42.31l16.52,3.31A130.66,130.66,0,0,1,267,230.61Z" transform="translate(-9.04 -8.54)"/>
</svg>
