<svg id="Layer_1" data-name="Layer 1" xmlns="http://www.w3.org/2000/svg" xmlns:xlink="http://www.w3.org/1999/xlink" viewBox="0 0 380.11 388.93">
  <defs>
    <style>

      .cls-4 {
        fill: #ab5bfc;
      }

      .cls-5 {
        fill: #6301f1;
      }

      .cls-7 {
        fill: #7107f1;
      }

      .cls-14 {
        fill: #eedfff;
      }



      .cls-1 {
        fill: none;
      }

      .cls-2 {
        clip-path: url(#clip-path);
      }

      .cls-3 {
        fill: transparent;
      }

      .cls-6 {
        fill: #5b5e63;
      }

      .cls-8 {
        fill: #f19008;
      }

      .cls-9 {
        fill: #f39d18;
      }

      .cls-10 {
        fill: #46484c;
      }

      .cls-11 {
        fill: #fbd953;
      }

      .cls-12 {
      }
    </style>
    <clipPath id="clip-path">
      <rect class="cls-1" x="-73.98" y="-59.92" width="1000" height="1080"/>
    </clipPath>
  </defs>
  <title>4</title>
  <g class="cls-2">
    <g>
      <path class="cls-3" d="M-73.86,940q0-497.55-.12-995.12c0-4.23,1.08-4.76,5-4.76q495.06.16,990.1,0c3.88,0,4.95.53,4.95,4.76q-.19,497.57-.12,995.12a7.62,7.62,0,0,1-5.5,2c-1.84.06-3.67,0-5.5,0q-488.88,0-977.75,0C-66.59,941.93-70.6,942.9-73.86,940Z"/>
      <path class="cls-4" d="M93.28,177.21c-1-6.24,2-10.57,6.76-14,9-6.49,19.56-9,30.31-10.61,18.49-2.76,37-2.45,54.7,3.77,10.32,3.63,20.63,7.06,31.13,10.13,8.63,2.53,16.88,6.2,22.26,14.19,1.57,2.34,4.52,1.78,6.87,2.29,11.42,2.46,21.9,6.7,30.43,15,6.87,6.69,10.14,14.67,9,24.31A26.22,26.22,0,0,1,274.6,241c-12.06,9.57-25.87,14.14-41.13,14.75-11.92.47-23.67-.53-34.87-5-9.55-3.79-18.28-8.8-24.11-17.77a34.8,34.8,0,0,1-4.31-10.58c-.82-3.23-2.53-4.53-5.8-5a99.51,99.51,0,0,1-27.27-7.93c-2.44-1.13-6.81-2.23-5.68-5.08,1.37-3.42,5.61-1.87,8.47-.68,7.4,3.08,14.88,5.85,22.81,7.22a30.22,30.22,0,0,0,5.44.69,1.93,1.93,0,0,0,2.17-1.61c.27-1.27-.47-1.77-1.5-2.16-2.07-.79-5.8-.69-5.42-3.24.44-3,4.33-2.34,6.79-2.71a14.12,14.12,0,0,0,9.95-6.13,139.22,139.22,0,0,1-59.17.1,66.4,66.4,0,0,1-18.64-7C97.76,186.35,93.76,183.07,93.28,177.21Z"/>
      <path class="cls-5" d="M93.28,177.21c3.12,6.57,8.65,10.34,15.16,12.9,22.25,8.73,45.09,8.89,68.22,4.63,2.57-.47,5.12-1.09,8.11-1.73-5,7.78-11.44,12-21,11,1.68,1.86,3.34,1.73,4.86,2.07,1.8.39,5-.89,4.27,3-.58,2.85-.88,5.51-5.63,4.57-9.17-1.83-18.23-3.77-26.68-7.87-2.65-1.28-5.33-1.71-9.33-1.47,3.79,3.25,7.67,4.42,11.31,5.79a100,100,0,0,0,25.12,6.11c1.71.17,3.26.19,3.52,2.55,1.78,16,12.74,24.51,26.23,29.82,20.25,8,41,8.2,61.31,0,12.32-4.93,22.26-12.63,26-26.24.7,12.44-6,20.81-15.63,27.1-16.85,11-35.57,13-55.08,10.26-1-.14-2-.25-2.95-.37-2.21,1.37-4.46.9-6.67.06-5.1-1.94-10.33-3.59-15.12-6.28-6.56-6.32-14.18-8.64-23.33-7.4a55.13,55.13,0,0,1-15.8-.3,109.8,109.8,0,0,1-26.8-6c-2.37-.9-5.22-1.33-6.21-4.3-6.21-4.14-10.79-10.15-17-14.4-4.82-3.32-5.79-8.64-4.85-14.28,1.92-.3,2.51,1.38,3.4,2.44a35.23,35.23,0,0,0,17.89,11.24c14.67,4.16,29.54,6.32,44.81,4.6a10.56,10.56,0,0,1,3,0A84.85,84.85,0,0,1,128,212.58c-2.13-1.32-4.35-2.69-5.74-4.74-3.38-5-8.66-6.46-13.84-8.25-.63-.22-1.41-.63-1.93-.38-6.3,3-6-1.34-6.08-5.34C95.32,189.47,91.74,184.43,93.28,177.21Z"/>
      <path class="cls-6" d="M190.44,252.05c6.84,2.59,13.32,6.17,20.68,7.27.19,3.45-3,2.34-4.22,2.41-7.57.42-15.17.53-22.76.34-25.52-.65-51-1.66-76-7.93a40.18,40.18,0,0,1-7.93-2.93c-2.23-1.09-4.06-2.41-4-5.14,0-3,2.16-4.37,4.6-5.26,5.44-2,10.92-3.83,16.39-5.73,10.5,5,21.8,7,33.15,8.9-.05,3.29,2.77,3.33,4.79,4,8.46,3,17.33,2.4,26.08,2.59A29.54,29.54,0,0,1,190.44,252.05Z"/>
      <path class="cls-4" d="M100.39,193.87c3.86,1.09,2,3.23.85,5.7,3.57-4.29,7.05-2.06,10.45-.44s7.08,1.71,9.81,5.25c7.75,10,19.43,13.49,31,16.64,5.82,1.58,11.86,2.38,17.8,4-7,1.3-13.93,2.29-21,1.87-10.76-.66-21.52-1.54-31.9-4.88-9-2.9-17.48-6.51-22.07-15.63C94.36,201.15,96.82,197.29,100.39,193.87Z"/>
      <path class="cls-7" d="M177.36,211c2.09-7.8,7.41-13.19,14.16-16.92,24.5-13.51,49.19-13.45,73.61.21,6.59,3.69,11.6,9.14,13.67,16.69C261.44,178.7,193.91,179.34,177.36,211Z"/>
      <path class="cls-7" d="M201.79,173.13c-8.31-11.32-20.12-13.85-31.72-15.72-17.36-2.79-34.79-2.42-51.91,2.61a55.41,55.41,0,0,0-18.22,9.66c1.1-3.65,3.11-4.8,5-6.06,8.36-5.64,17.9-8,27.66-9.35,14.77-2.07,29.54-1.81,44.09,1.88,7.76,2,15.45,4.21,21.34,10.18C199.61,168,201.3,169.57,201.79,173.13Z"/>
      <path class="cls-7" d="M233.13,180.75c-8.57-7.59-19.6-10.12-29.71-14.48C214.9,167.93,225.64,171.1,233.13,180.75Z"/>
      <path class="cls-5" d="M206.11,178c1.26,6.09.42,7-6.54,7.65C202.11,183.19,204.82,181.24,206.11,178Z"/>
      <path class="cls-10" d="M190.44,252.05c-11.56.18-23.17,1.13-34.54-2-2.41-.65-4.93-1.11-6.9-2.74-2.79-2.3-1.35-3.13,1.34-3.37,9.1-.1,18.21.76,27.27-.65,1.72-.27,2.72.84,3.89,1.78C184.44,247.48,187.45,249.75,190.44,252.05Z"/>
      <path class="cls-4" d="M141.38,234c7.21,0,14.43.08,21.64,0,2.79-.05,5.57-.59,8.36-.8a1.86,1.86,0,0,1,2.16,1.62c.08,1.41-1.23,1.34-2.16,1.34C161.35,236.13,151.27,237,141.38,234Z"/>

      <path class="cls-14" d="M245.68,219.74l-.27-.15c-5.86-3.09-14-4.05-21.55-2.57a33.87,33.87,0,0,0-6.88,2.29c-5.92,3-8.59,7.43-7.06,11.82a11.39,11.39,0,0,0,4.83,5.79c.34.23.69.44,1.05.65a27.19,27.19,0,0,0,6.55,2.6,45.93,45.93,0,0,0,7.08,1,39.7,39.7,0,0,0,8.6-.67,33.66,33.66,0,0,0,6.83-2.31,15,15,0,0,0,6.11-5.09c.43-.65.46-.93.14-1.11L251,232a1.51,1.51,0,0,0-1.23.11,5.39,5.39,0,0,0-.64.8c-2.1,2.95-6.53,5-12,5.63a24.62,24.62,0,0,1-14.33-2.62.41.41,0,0,1-.11-.07C219.59,234,218,231.66,218,229c0-.72,0-.89.66-2.23a5.52,5.52,0,0,1,1.39-2.12c3.26-3.18,9.07-5,15.33-4.72a26.79,26.79,0,0,1,7.67,1.56c.27.12.65.29.87.37,1.22.46,3-.09,2.94-1,0-.34-.39-.71-1.19-1.17"/>
      <path class="cls-14" d="M235.13,224.12c-.13-.08-.28-.09-.76-.07a14.41,14.41,0,0,0-5.8,1.79,4.83,4.83,0,0,0-2.1,2.38,3.38,3.38,0,0,0,1,3.86,7.87,7.87,0,0,0,1.57,1.18,11.39,11.39,0,0,0,2.36,1,15.26,15.26,0,0,0,2.12.48,14.28,14.28,0,0,0,7-.66,8.13,8.13,0,0,0,3.45-2.05c.63-.66,1.21-2,1-2.26l0,0c-.18-.1-.77-.11-4.34-.07a43.85,43.85,0,0,1-4.55,0l-.11-.06a.77.77,0,0,1-.27-.23c0-.11-.11-1.3-.2-2.63a11.41,11.41,0,0,0-.23-2.57l0,0"/>
      <path class="cls-14" d="M263.14,208.87a11.63,11.63,0,0,0-3.9-1.23,12.28,12.28,0,0,0-3.08-.11c-7.26.31-11.48,1-13.13,2.13a1.79,1.79,0,0,1-1.81.39,7.72,7.72,0,0,1-2.56-.87,2.59,2.59,0,0,1-1.53-1.93,11.88,11.88,0,0,1,.55-1.73c1.32-3.22,1.14-5.74-.61-7.3a3.93,3.93,0,0,0-.79-.58,10.4,10.4,0,0,0-5.37-1,117.09,117.09,0,0,0-12.48,2.12,40.19,40.19,0,0,0-6.85,2.23,4.47,4.47,0,0,0-1.77,1.41,1,1,0,0,0,.53,1.15,1.53,1.53,0,0,0,.59.2c.37.06.47,0,.31-.51-.47-1.63,3-3.11,9.45-4.16.86-.16,2.13-.37,2.85-.52a18.09,18.09,0,0,1,6.45-.4,4.78,4.78,0,0,1,1.66.52,1.93,1.93,0,0,1,.91,2.34,13.46,13.46,0,0,1-2.15,4.15c-2.55,2.8-6.28,4.5-11.07,5.1a8,8,0,0,1-4.29-.31,73.68,73.68,0,0,0-8.91-1.84c-4.88-.7-7.93-.74-10.66-.08a4.72,4.72,0,0,0-2.51,1.34,3.81,3.81,0,0,0-.43,4.91c.15.25,1.17,1.39,2.26,2.55a18.78,18.78,0,0,1,2,2.28,1,1,0,0,1-.37.39c-1,.55-1.19.71-1.47,1.32s-.25.67-.05,1.08a2.24,2.24,0,0,0,1,1,4.37,4.37,0,0,0,.53.26,6.36,6.36,0,0,0,3.93.1c2.18-.74,2.52-2.46.74-3.5l-.13-.08a4.64,4.64,0,0,0-2-.53,8.09,8.09,0,0,1-1.59-.32l-.06-.06c-.07-.12-3.2-5.68-3.59-6.49-.26-.57.24-.94,1.48-1.08a15.36,15.36,0,0,1,5.08.7,27.77,27.77,0,0,1,6.42,2.55,9.3,9.3,0,0,1,4.29,4.36,1.37,1.37,0,0,0,.3.57h0a7,7,0,0,0,1.34-.77c3.47-2.24,8.69-3.78,15.72-4.59a30.27,30.27,0,0,1,7.49-.12,23.63,23.63,0,0,1,9.43,2.93l.22.12.32.19c.48.27.87.49.92.5s.17-.09.3-.22a12.19,12.19,0,0,1,6.16-4.64,21.34,21.34,0,0,1,7-1.18,4.44,4.44,0,0,1,2,.2l.21.16c.61.51.41,1.61-.64,3.71-.72,1.39-.74,1.42-1.12,1.55a4.92,4.92,0,0,1-1.24.15,5,5,0,0,0-3,1c-1,.92-.78,2,.48,2.76l.19.1a6,6,0,0,0,5.45-.22c1.29-.93,1.19-2.12-.27-3-.41-.25-.62-.47-.64-.59a3.53,3.53,0,0,1,.84-1.08,10,10,0,0,0,2.06-2.84,3.23,3.23,0,0,0-1.43-4.64"/>
      <path class="cls-14" d="M219.22,203.48a5.43,5.43,0,0,0-2.08-.59c-2-.25-3.77.38-4.33,1.57a1.65,1.65,0,0,0,.95,2.12,3,3,0,0,0,.44.21,9.84,9.84,0,0,0,2.58.45,4.85,4.85,0,0,0,2.5-.73c.58-.4.69-.49.86-1a1.27,1.27,0,0,0-.4-1.64,2.83,2.83,0,0,0-.52-.39"/>

      <path class="cls-14" d="M153.66,171.63a21.36,21.36,0,0,0-4.44-1.73,35.36,35.36,0,0,0-18,.9,22.23,22.23,0,0,0-7.09,3.5,8.6,8.6,0,0,0-3,3.76,5.35,5.35,0,0,0,.06,2.92,7.17,7.17,0,0,0,2.73,3l.14.08a20,20,0,0,0,4.51,1.75,30.57,30.57,0,0,0,8.42.74c1.1,0,1.47-.12,1.64-.33s0-.25-.13-.34a.71.71,0,0,0-.28-.08,12.56,12.56,0,0,0-1.26,0,18,18,0,0,1-9.08-1.82,6.58,6.58,0,0,1-1.31-.95c-1.88-1.76-1.59-4.07.73-6.12a19.12,19.12,0,0,1,8.52-3.72,17.91,17.91,0,0,1,3.27-.41,19.34,19.34,0,0,1,3.25-.12,17.2,17.2,0,0,1,7.52,1.84,5,5,0,0,1,2.3,2.41,3.83,3.83,0,0,1-.58,3.29c-.11.14-.28.33-.34.43-.16.25-.05.49.23.65a2.68,2.68,0,0,0,1.74.15,3.28,3.28,0,0,0,1.56-.94c3.09-3.06,2.73-6.35-.91-8.7l-.21-.13"/>
      <path class="cls-14" d="M145.46,177.13a9.62,9.62,0,0,0-3-1,13.76,13.76,0,0,0-3.76-.06,13.11,13.11,0,0,0-5.2,1.5,5,5,0,0,0-2.22,2.09,2.31,2.31,0,0,0-.24.93,2.28,2.28,0,0,0,1.34,1.89,7.27,7.27,0,0,0,1,.48,10.83,10.83,0,0,0,3.6.66,14.36,14.36,0,0,0,3.36-.3c.16-.09.12-.21-.78-1.65a5.47,5.47,0,0,1-.88-1.68.82.82,0,0,1,.31-.23l3.66-.85c1.84-.41,3.43-.79,3.54-.85s.11-.13,0-.32a2.91,2.91,0,0,0-.76-.59"/>
      <path class="cls-14" d="M178.46,164.45l-.16-.09a22.1,22.1,0,0,0-4.56-1.87,9.5,9.5,0,0,0-2.34-.24c-.84.1-1.65.47-1.66.82a.09.09,0,0,0,0,.09c.08.05.29,0,.74-.13,1.77-.53,4-.09,6.22,1.22a17,17,0,0,1,1.57,1c.41.26,1,.67,1.33.89,1.33.82,1.94,1.58,1.92,2.26,0,.86-1.15,1.45-3.48,1.79a58.24,58.24,0,0,1-6.24.44q-5.52-.15-8.37-1.8a6.93,6.93,0,0,1-1.1-.77c-.76-.69-.81-.76-.47-1.67a9.88,9.88,0,0,0,.71-3.83c0-1.94-.58-3.07-2-3.87l-.15-.08a5.23,5.23,0,0,0-2.4-.54,17.48,17.48,0,0,0-7,1.3c-.32.13-1.71.84-3.09,1.59s-2.63,1.37-2.78,1.41a2.64,2.64,0,0,1-.63,0,5.48,5.48,0,0,0-2.14-.15,4.87,4.87,0,0,0-1.54.3,3.14,3.14,0,0,0-1.5,1c-.34.49-.16,1,.43,1.35a1.46,1.46,0,0,0,.25.13,5.8,5.8,0,0,0,5.06-.77c.38-.33.39-.36.41-1s0-.65.18-.71,7.28-2.86,8.34-3.26a1.84,1.84,0,0,1,1.57.05,1.15,1.15,0,0,1,.26.19c.4.39.43,1.11.09,2.08-1,2.59-3.63,4.72-7.45,6a4.23,4.23,0,0,0-.74.29h0a10.86,10.86,0,0,0,1.35.26,19.66,19.66,0,0,1,6.83,2.34,16.32,16.32,0,0,1,2.88,2.1c1.22,1.13,1.62,1.75,1.74,2.72.2,1.52-.58,3-2.25,4.46a8.42,8.42,0,0,0-.71.66h0a1.18,1.18,0,0,0,.36,0c3.67,0,5.66.17,7.78.9a7.51,7.51,0,0,1,1.32.6,4.91,4.91,0,0,1,1.8,1.64c.35.57.35.7,0,.93-.58.38-2.18.63-5.33.86-2.09.15-2.15.15-2.41,0l-.08,0a1.12,1.12,0,0,1-.38-.37,1.41,1.41,0,0,0-.46-.4,3.57,3.57,0,0,0-1.55-.42,5.31,5.31,0,0,0-3.87,1.1.92.92,0,0,0,.27,1.58,3.22,3.22,0,0,0,1.18.36,5.68,5.68,0,0,0,4.18-1,2.15,2.15,0,0,1,.7-.41,11.65,11.65,0,0,1,1.67,0,33.25,33.25,0,0,0,4.41-.08c4.53-.37,7-1.69,7.11-3.7,0-.46,0-.55-.49-1.17a12.94,12.94,0,0,0-3.61-3.46,5.87,5.87,0,0,0-2.12-.75,2.78,2.78,0,0,1-.79-.17c-.13-.08-.14-.19-.13-.38,0-1,1.38-2,3.07-2.34.31,0,1.42-.19,2.53-.31,4.78-.46,8.27-1.28,10.1-2.38,1.33-.79,1.63-1.77.93-2.74a30.3,30.3,0,0,0-5.42-3.88"/>
      <path class="cls-14" d="M171.68,164.33a4.64,4.64,0,0,0-2.55-.36,4.52,4.52,0,0,0-3,1.2,1.32,1.32,0,0,0-.09,1.09,1.18,1.18,0,0,0,.39.34,3.68,3.68,0,0,0,1.16.37,4.57,4.57,0,0,0,1.57,0,5,5,0,0,0,2.22-.64c.64-.37.87-.74.83-1.24a1,1,0,0,0-.56-.78"/>
    </g>
  </g>
</svg>
