<svg id="Layer_1" data-name="Layer 1"
	xmlns="http://www.w3.org/2000/svg"
	xmlns:xlink="http://www.w3.org/1999/xlink" viewBox="0 0 380.11 388.93">
	<defs>
		<style>
.cls-4{fill:#ab5bfc;}
.cls-5{fill:#6301f1;}
.cls-24{fill:#7107f1;}
.cls-28{fill:#eedfff;}



.cls-1{fill:none;}.cls-2{clip-path:url(#clip-path);}.cls-3{fill:transparent;}.cls-6{fill:#5d6066;}.cls-8{fill:#fcde5a;}.cls-9{fill:#f18e03;}.cls-10{fill:#fbdd59;}.cls-11{fill:#fbdd58;}.cls-12{fill:#fbda56;}.cls-13{fill:#fbd954;}.cls-14{fill:#fbdb56;}.cls-15{fill:#f08e05;}.cls-16{fill:#ee9610;}.cls-17{fill:#f19008;}.cls-18{fill:#f18f07;}.cls-19{fill:#45474b;}.cls-20{fill:#f18e06;}.cls-21{fill:#f1930b;}.cls-22{fill:#5b5d63;}.cls-23{fill:#fbdb55;}.cls-25{fill:#fcdb56;}.cls-26{}.cls-27{clip-path:url(#clip-path-2);}.cls-29{clip-path:url(#clip-path-3);}.cls-30{clip-path:url(#clip-path-4);}.cls-31{clip-path:url(#clip-path-5);}.cls-32{clip-path:url(#clip-path-6);}.cls-33{clip-path:url(#clip-path-7);}.cls-34{clip-path:url(#clip-path-8);}



</style>
		<clipPath id="clip-path">
			<rect class="cls-1" x="-73.98" y="-465.37" width="1000" height="1080"/>
		</clipPath>
	</defs>
	<title>3</title>
	<g class="cls-2">
		<path class="cls-3" d="M-73.86,534.52Q-73.86,37-74-460.6c0-4.23,1.08-4.77,5-4.77q495.06.17,990.1,0c3.88,0,4.95.54,4.95,4.77Q925.83,37,925.9,534.52a7.62,7.62,0,0,1-5.5,2c-1.84.06-3.67,0-5.5,0q-488.88,0-977.75,0C-66.59,536.48-70.6,537.45-73.86,534.52Z"/>
		<path class="cls-4" d="M79.35,212.77c-1.3-6,1.45-10.29,5.78-13.93,7.48-6.29,16.46-9.28,25.7-11.64,2.42-.62,4.86-1.14,7.29-1.7,2.66-2.23.37-4.56.14-6.85-.28-3-.47-5.91,1.7-8.37,3-.11,3.19,2.36,3.84,4.35,1.92,5.85,3.71,7.57,9.72,7.17,12.08-.8,23.88,1,35.76,2.64,8.93,1.24,17.93.58,26.87-.86,2.61-.42,6.62-1.69,7.11,2s-3.75,3.3-6.36,3.89c-3.92.89-7.94.73-12.21.84,3,3.4,6.52,4.33,10.71,3.65,2.62-.43,5.26-.82,7.9-1.16,1.9-.25,3.83-.2,5,1.46,7.85,10.84,19.74,13.82,31.8,15.76,19.75,3.17,39.45,3.34,58.72-3.32,6.06-2.09,11.74-4.7,16.31-9.34,1-1,2.31-2.65,3.76-1.57,1.67,1.26.59,3.15-.36,4.46a28.85,28.85,0,0,1-12.15,9.3A84.73,84.73,0,0,1,278,216.76c-19.38,1.39-38.63,1.22-57-6.59-4.5-1.91-9-4.07-11.93-7.95-4.26-5.61-9.15-4.58-14.83-2.68,2.19,3.11,4.95,2.68,7.77,2.39,5.18-.52,6.09.56,4,5.07-.84,1.84.18,2.47,1.24,3.19,1.52,1,3.36,1.64,4.5,3.1,9.53,12.29,23.46,15,37.57,17.21A121.25,121.25,0,0,0,293,229c9.07-1.89,17.64-4.83,24.89-10.91,1.18-1,2.81-2.69,4.26-1,1.28,1.5-.23,3.23-1.31,4.37-7.1,7.49-16.32,10.62-26.15,12.3-1.2.2-2.57.09-3.05.21a50.09,50.09,0,0,1,12.55.74c4.92.82,9.9,4.05,14.51-1.15,1.28,3.23-.59,5.67,1,7.76C330,246.06,338.33,253,343,263.67c3.43,3.27,2.83,7.38,2.38,11.46-3.4,13.27-12,22-24.31,27.22-23.81,10.07-47.56,9.76-70.94-1.5-6.8-3.28-12.75-7.82-16.77-14.47a31.1,31.1,0,0,1-2.64-5.89c-1.44-5.65-3.42-10.75-10-12.21-1.41-.31-3-1.66-2.52-3.25.66-2,2.71-1.34,4.31-1,.82.15,1.57.57,2.38.76,1.48.37,3.44,2,4.32-.29,1-2.56-1.67-2.77-3.21-3.46a35.11,35.11,0,0,1-5.39-2.58c-1.34-.9-3.3-1.88-2.26-3.81.8-1.48,2.67-.93,4.13-.5,2.7.8,5.26,2.13,8.12,2.39,1.61.14,3.27-.31,3.5-2,.2-1.52-1.6-1.36-2.61-1.7-3.79-1.24-7.71-2.16-11.23-4.09-1.43-.78-3.25-1.82-2.19-3.81.87-1.64,2.68-1,4.07-.5,4.09,1.42,8.25,2.59,12.4,3.81a7.84,7.84,0,0,0,8.6-2.19c-4.25-1.57-8.5-1.94-12.5-3.17a67.68,67.68,0,0,1-9.84-3.58c-2.4-1.17-4.64-2.91-3.24-5.78,1.51-3.1,3.92-1.09,5.94-.13a14.07,14.07,0,0,0,1.86.73A105.4,105.4,0,0,0,246.83,240c7.8,1.38,14.09-4.91,20.95-3.67-16.44,1.15-28-.55-42.24-6.33-1.32-.57-2.52-1.38-3.82-1.95-3.13-1-1.88,2-2.8,3.05-2.31,5.67-6.93,9-12,11.82-11.77,5.6-24.25,7.91-37.22,8.47a168.08,168.08,0,0,1-24.89-.67c-2.05-.21-5.5-.33-5.42-2.46.11-2.85,3.56-2.28,5.73-2.3,9.82-.1,19.61.08,29.34-1.92a89.34,89.34,0,0,0,19.87-6.53,20.06,20.06,0,0,0,11-12.13C194.68,236.64,180.76,238.79,167,241a115.12,115.12,0,0,1-33.82.05c-2.54-.34-6.75-.21-6.69-2.84.07-3.06,4.17-2.31,6.65-2.28,12.82.16,25.13-2.56,37.22-6.47a41.69,41.69,0,0,0,15.2-8.4,19.11,19.11,0,0,0,5.69-8.64c1.87-6,1.9-6,6.95-2.15-1-.65-1.83-1.44-2.75-2.15-1.52-1.16-2.75-1.11-3.37.94-1.75,5.79-6.45,8.7-11.26,11.42-11.53,6.54-24.21,9.15-37.19,10.65a136.53,136.53,0,0,1-34.8-.91A67.48,67.48,0,0,1,87.17,223C82.92,220.78,79.94,217.72,79.35,212.77Z"/>
		<path class="cls-4" d="M38.25,309.22c-2.73-6.74-.33-12.2,4.46-16.91,2.68-2.63,5.62-5,8.44-7.49.65-2.61,3.23-3.13,4.76-4.42-7.49-2.4-16.51-2.08-20.61-11.1-2.77-6.87-.06-12.35,4.69-17,10.33-10.2,23.41-15.36,36.94-19.57,3.78-1.17,7.65-2.06,11.47-3.08a1.57,1.57,0,0,1,2.66,1c.36,1.76-1.25,2.14-2.52,2.42a175.38,175.38,0,0,0-18.66,5.43,79.11,79.11,0,0,0-19.49,9.88c-3.86,2.67-7.45,5.62-8.7,8.39,6-8.65,16.36-13.77,27.35-18a157.19,157.19,0,0,1,20.57-6c7.51-1.72,12.67.37,17,7.35a57,57,0,0,0,.48,9.41A7,7,0,0,1,107,251c-1.09,2.78.4,5.56,0,8.34-.77,1.85-1.41,3.7-.06,5.75-.06-1.37-1.15-2.74.32-3.81,1.65-.28,2.88.67,4.1,1.5A19.76,19.76,0,0,0,122.24,266c8.14.21,15.79,2.19,22.55,6.89a7.31,7.31,0,0,0,7.07.91c13.38-4.58,27.16-4.23,41-3.19a14.62,14.62,0,0,0,6.37-.77,45.44,45.44,0,0,0,12.66-6.9c1.48-1.18,3.44-3.67,5-2,2.1,2.25-.78,4.09-2.21,5.73-2.66,3-6.39,4.58-10.21,6.45,3.33,2,5.76.67,8.22-.8,1-.59,2.15-1.38,3.23-.6s.62,2.15,0,3.15c-2,3.34,1.41,1.74,2.25,2.47a53.21,53.21,0,0,0,7.54,7.69c5.69,5.17,10.17,11.21,10.84,19.29-.1,3.29.17,6.59-.23,9.87-4.47,14.23-15.48,21.84-28.5,26.52-23,8.26-45.81,7.15-67.59-4.38-8.89-4.71-15.7-11.79-18.83-21.69-1-3.21-2.24-4.18-5.66-2.82-17.1,6.83-34.95,9.25-53.3,8.45a49.75,49.75,0,0,1-15.09-3.07C43.3,315.7,40,313.33,38.25,309.22Z"/>
		<path class="cls-5" d="M319.66,241.31c-4.27-1.12-1.32-3.7-1.05-6.22-2.51,4.56-5.8,3.8-9.51,2.56-7-2.32-14.37-2.34-22.82-3.42,7.44-1.47,13.73-2.81,19.72-5.2,6.22-2.47,12.09-5.44,15.68-11.66-10,9.53-22.55,12.68-35.51,14.57-20.2,2.95-40.11,1.87-59.46-5.29-4.76-1.77-9.33-4-12.24-8.25-3.31-4.84-9.85-5.89-12.61-11.14,1.27-1.71,5.16-.74,4.55-3-.82-3-3.74-.6-5.58-.33-4.68.66-7.86-1.07-9.7-5.94a2,2,0,0,1,.45-.2c8.14-2,14.73-2.23,21.53,5.53s18.17,9.47,28.39,10.92c18.24,2.59,36.49,2.55,54.42-2.63,6.27-1.81,12.36-4,17.48-8.25,2.26-1.86,4.71-3.63,5.44-7.69-9.1,11.38-21.69,14.37-34.18,16.44-18.53,3.06-37.17,2.5-55.39-2.76-8.7-2.51-17.14-5.74-22.07-14.22a1.92,1.92,0,0,0-2.48-1c-1.12.28-2.33.26-3.43.59-8.19,2.4-15.43,1.09-21.58-5.69,6.45-.73,12.94-.11,19.24-1.49,1.41-.31,3.79,0,3.65-1.7-.21-2.46-2.71-1.39-4.06-1.09-14.24,3.17-28.41,2-42.58-.47-7.54-1.32-15.13-1-22.72-.69-7,.29-10.08-2.26-11.1-9.11-.26-1.76-.66-3.24-2.18-4.25a16.93,16.93,0,0,1-1.64-10.74,2.63,2.63,0,0,1,2.24.86c11.74,12.83,27.54,15.32,43.61,17.22,11.91,1.4,23.7.48,35.47-1.42,1.59-.26,3.37-.6,4.38,1.31,5.34,8.43,14.14,11.46,22.95,13.79a122.83,122.83,0,0,0,66.15-.53c3.06-.87,5.81-2.42,8.75-3.27-15,6.46-30.89,8.6-47,7.92-14.54-.61-29.05-2.48-42.15-9.89a22.68,22.68,0,0,1-8.68-8c-1.76-2.67-4.17-1.23-6.33-.93-20.77,2.93-41.22,2.5-61.08-5.23a37.7,37.7,0,0,1-11.31-7.14,12.55,12.55,0,0,1-4.64-9.58c0-1.88-.12-4.23,2.92-4.12a3.84,3.84,0,0,1,1.39.85c5.58,7.31,13.7,10.38,22.07,12.65a116.46,116.46,0,0,0,51.22,2.45c2.45-.43,4.76-.21,6.47,1.67,9.89,10.91,23.33,13.45,36.87,15.67,10.35,1.7,20.78,1.22,31.25.71-11-1.63-21.47-4.58-31.24-9.83a33,33,0,0,1-12.05-10.27c-2.9-4.23-4.81-8.82-1.52-13.85a1.48,1.48,0,0,1,1.52.06c9,14.63,24.07,18.91,39.37,22.33,10.49,2.34,21.19,3.81,32,3.15,10.27-.63,20.37-2,30-6.16,3.86-1.66,6.19-5.43,10.2-6.71.8,7.15-3.17,11.44-8.84,14.7-3.91,2.25-8.21,3.48-12.49,4.76-9.06,13.21-22.51,18.37-37.59,20.7-16.92,2.62-33.7,2-44.11-.16,16.62,3.11,39.38,3.41,61.74-4.35,6.33-2.2,12.17-5.39,16.45-10.84.82-1,1.69-2.09,3.18-2.21l.57,9.22c2.41,6.94.5,12.62-5.76,17.4-7.91,6-17.21,8.62-26.71,10.3-18.24,3.21-36.42,2.48-50.21-.89,18.24,4.78,46.68,4.11,66.73-3.6,5.66-2.18,10.94-4.85,15-9.54,1-1.21,2.07-2.73,4.11-2.27-.26,7.44,1.62,14.87-2.76,22.17C318.49,231.85,319.81,237,319.66,241.31Z"/>
		<path class="cls-6" d="M343.77,275.75c.91-4.1-.66-8-.8-12.08,2.06-1.83,3.45.07,4.7,1.08,8.72,7,15.57,15.25,17.85,26.65,1.33,6.67-3.7,17.92-8.67,22.53a136.68,136.68,0,0,1-16.15,13,89.16,89.16,0,0,1-19.12,9.48c-11,4.1-22.22,8.33-33.72,10.45-17.21,3.17-34.29,7.52-52,7.82-10.92.18-21.84,1.85-32.75,1.78-25.28-.16-50.56-.15-75.55-5.58-13.22-2.87-26.86-3.65-39.8-8.14-11.89-4.12-23.73-8.34-34.84-14.34a44.4,44.4,0,0,0-5.44-2.28c-1.88-.7-4-1.73-2.44-4.52a3.88,3.88,0,0,1,2-.06c21.71,6.52,42.85,2.79,63.86-3.5,3.34-1,6.7-3.47,10-2.6,3.45.9,3.08,5.41,4.66,8.2,8.15,14.45,21.66,21,36.92,23.93,18.09,3.43,35.84,1.53,52.42-7.32a10.83,10.83,0,0,1,4.67-1.65c4,.83,7.81-.85,11.72-1.18a214.3,214.3,0,0,0,56.91-12.49,75,75,0,0,0,25.06-15.15c1.69-2,4.19-2.64,6.41-3.75C332.39,299.67,341.72,290.61,343.77,275.75Z"/>
		<path class="cls-5" d="M122.3,114.41c-3.64-2.28-7.86-3.72-10.71-7.15-2.6-3.12-4.82-6.41-2.71-10.74,1.69-.62,2.55.5,3.41,1.61,4,5.46,10.41,6.8,16.25,9,5.17,2,10.73,2.53,16.11,2.8,20,1,39.87,0,58.56-8.51,5.62-2.56,11-5.5,14.67-10.78.74-1.07,1.53-2.53,3.09-1.89,1.33.54,1.53,2.11,1.58,3.45.22,6.31-3.19,10.74-7.93,14.2-7.21,5.27-15.42,8.52-24,10.64-4.41,1.09-8.85,2.4-13.15,1.91,15.1.1,30.56.24,45.62-4.25,7.79-2.31,15-5.45,20.58-11.61.88-1,1.88-1.93,3.41-1.73v8.13c-2.9,7.78-9.28,11.07-16.66,13.54a122.92,122.92,0,0,1-44,6.43c-13.4-.54-26.7-2.42-36.23-6.93,5.44,2.64,18.48,5.08,27.77,6.25,9.52,1.2,18.86.61,28.23-.28a97.15,97.15,0,0,0,21.77-4.7c2.2-.73,5.21-1.71,5,2.19-.67,10.27,6.42,14.84,13.77,18.84A87.42,87.42,0,0,0,275,154.1c15.89,2.5,31.8,3.1,47.62-.45,6.38-1.43,12.5-3.58,17.11-8.66.86-1,1.88-2,3.44-1.44a127.36,127.36,0,0,1-1.94,17.85c-4.7,9.11-13.83,11.19-22.44,12.91-24.85,5-49,1.83-72.25-8.24-7.48-3.25-13.83-7.89-17.48-15.5l0,0c-5.86.92-10.73,4-15.44,7.33a20,20,0,0,1-3.2,2.36c-.75.33-1.55.79-2.33.16a2.35,2.35,0,0,1-.62-2.73c.95-2.87,3.24-4.59,5.64-6.1,3.53-2.23,7.46-3.64,11.27-5.3-5.25,2.23-10.56,4.28-15.1,7.94-2.81,2.27-6.41,2.41-9.88,3-21.42,3.68-42.38,2.19-62.74-5.49-6.47-2.44-12.32-6-14.51-13.31V120.59a2.54,2.54,0,0,1,2.57,1.16c6.86,8.38,16.5,11.55,26.49,13.76a145.89,145.89,0,0,0,47.13,2.8,169.6,169.6,0,0,1-18.46.75,84.34,84.34,0,0,1-19.14-2.66c-10.58-2.81-20.76-6.24-27.47-15.8-1.21-1.73-3.21-2.3-5.18-2.73C125.78,117.35,123.63,116.58,122.3,114.41Z"/>
		<path class="cls-4" d="M106.56,75.66c-1.57-7.62,2.79-12.28,8.35-16.1a23.91,23.91,0,0,0,7.73-8c4.26-7.34,12-10.37,19.63-12.71a124.29,124.29,0,0,1,69.27-1.37,47.32,47.32,0,0,1,15.77,7.21c4.78,3.46,7.69,7.77,6.69,14-.79,5.69-4.69,8.95-9.2,11.7a67.14,67.14,0,0,1-20.93,7.87c-19,4.14-38,4.55-56.88-.17-9.88-2.47-20.37-4.61-25.64-15.22-.73-1.48-2.12-1.39-3.41-.49-.41.28-.79.62-1.2.89a13.38,13.38,0,0,0-2.94,2.87c.43-.33.71-.93,1.18-1.37,4.49-4.15,5.65-4,7.84,1.66a19,19,0,0,0,9.1,10.14,65.86,65.86,0,0,0,22.65,7.35c10.56,1.44,21.09,2.89,31.79,1.15,2.28-.37,5.95-.89,6.38,2,.37,2.57-3.21,2.76-5.38,3.24-22.26,5-44.48,6.3-66.4-1.59C114.51,86.42,108.29,83.4,106.56,75.66Z"/>
		<path class="cls-4" d="M343.16,143.55c-5.63,8.31-14.46,11.15-23.53,12.56-25.71,4-50.76,1.78-74.41-10a32.64,32.64,0,0,1-6.63-4.4c-5.36-4.58-10.13-9.54-6.32-18-30.94,9.25-60.6,10.08-89.45-3.49l.23-1.6c4.27,1.6,8.46,3.51,12.84,4.75,26,7.38,51.83,7.1,77.23-2.89,5.72-2.26,10.11-6.29,13.92-11-.87,3.59.21,4.74,4,3.88,24.89-5.61,49.13-3,72.73,6.31,5.91,2.33,11.43,5.45,15.77,10.2C343.09,133.76,345.19,138.15,343.16,143.55Z"/>
		<path class="cls-5" d="M106.56,75.66c4.9,8.62,13.37,11.63,22.18,13.83,20.48,5.11,40.86,3.48,61.13-1.42a3.18,3.18,0,0,0,2-1.57c-3,.21-5.9.46-8.85.62-17.28,1-34.2-.51-50.09-8.06-6.15-2.92-11.59-6.65-12-14.5-.15-2.46-1.63-2.06-3.09-1-2.37,1.75-4.16,4.08-6.41,7.22.65-5.67,4.31-7.84,7.48-10.38,1-.81,1.76-.57,2.38.54,6.26,11.1,17.47,13.76,28.54,16.05C172.53,81.72,195,80.69,217,72.49c7.15-2.68,13.35-6.71,17-13.78,1.39,7.48-1.7,12.81-7.91,16.7-1.39.87-2.67,1.92-4,2.88,1.86,2.79,5.16,2.71,7.81,3.88,4.64,2,8.85,4.6,11.9,8.75.91,1.24,1.7,2.86.51,4.12-1.51,1.59-2.74-.15-3.71-1.07a41.63,41.63,0,0,0-11.74-7.47c-2.76-1.23-5.08-.77-6.48,1.67-6.52,11.31-18,14.73-29.23,18.19-15.09,4.64-30.75,5-46.32,4.08-9.4-.54-18.73-2.47-27.22-7.07-2.49-1.35-4.95-2.74-6.54-5.22l-2.18-1.63a20.51,20.51,0,0,1-1.53-10.12c5.19,4.36,10.57,8.2,17.18,10.44,10.58,3.59,21.44,4.22,32.38,4.2,15.51,0,30.7-2.2,45.07-8.5,4.56-2,9.1-4,11.49-6.67-8.31,6.87-19.68,10.21-31.41,12.75-13.44,2.91-27,2.91-40.6,1.85a61.3,61.3,0,0,1-26.46-8,17.26,17.26,0,0,1-7.8-8.74Z"/>
		<path class="cls-5" d="M106.11,240.58c-5.37-5.78-11.2-8.56-19.57-5.91-9.66,3.06-19.42,5.6-28.43,10.43-7.87,4.21-15.13,9-19,18.48.11-5.63,2.7-9.76,7.88-14,11.11-9,24.23-13.53,37.84-17,1.45-.37,3.11-.33,4.33-1.06,2.74-1.62-.06-1.47-.78-2-5.82-4.11-10.22-9-9.05-16.84,6.38,11.11,17.71,13.61,28.79,15.57a126.18,126.18,0,0,0,56.25-2.85,63.34,63.34,0,0,0,19.9-9c2.89-2,5.64-4.36,6.8-7.77,1.27-3.7,3.12-3.3,5.38-1.21s4.6,3.82,5.49,8.19a29.19,29.19,0,0,0-8.48-7.69c-.56,14-10.89,18.63-21.38,22.6-14.29,5.42-29.24,7.58-45.33,7,20.15,5.9,67.05,3,79.71-15.9,1.16,6.81-2.1,12.4-9.66,16.43-11.38,6.06-23.7,8.64-36.41,9.4-6.63.39-13.3.07-19.92.47,22.7,3.46,45,2.73,66.44-6.69,3.91.67,4.23,3.07,3,6.22-3.42,4.38-8.69,5.52-13.5,6.88a130.37,130.37,0,0,1-50.18,3.86,105.26,105.26,0,0,1-26.47-6.42c-5.49-2.11-10.44-5.11-13.5-10.44C106.21,241.13,106.16,240.85,106.11,240.58Z"/>
		<path class="cls-4" d="M122.18,138.48c9.6,13.42,24.46,15.66,39.09,18,13.22,2.12,26.5,1.46,39.72-.75a19.1,19.1,0,0,0,8.63-3.49c5.65-4.21,12.14-6.44,19.18-7.53-6.93,4.87-16.33,6.31-20.4,15,4.65-4.62,10.37-7.45,16.37-9.67,1.19-.43,3.38-2.8,4.32.6-2.47,5.78-.8,10.68,3.31,15,8,8.42,18.55,12.08,29.39,15a88.54,88.54,0,0,0,18.51,3.36c-3,2.48-5.78,1.81-8.12,2-20,1.7-39.56.63-58-8.3-3.32-1.61-6.68-3.44-8.71-6.51s-4.3-3.45-7.89-3c-21.92,2.83-43.53,2.13-63.89-7.78-4-1.92-8.16-4-9.61-8.79,1.86-.67,3.28.38,4.57,1.37,10,7.77,22,9.85,34.09,11.74a110.08,110.08,0,0,0,31.86.08c.33,0,.67,0,1-.11,2.09-.48,5.07-.74,4.55-3.48-.44-2.27-3.17-.87-4.78-.7-20,2.11-39.63,1.24-58.47-6.44-6.52-2.65-12.88-5.81-14.7-13.67Z"/>
		<path class="cls-5" d="M220,339.41c-15.91,9.89-33.61,12.86-51.68,10.83-17-1.92-32.8-7.89-42.77-23.52a16,16,0,0,1-2.66-6.39c-.49-3.66-1.61-4.41-5.37-2.95-17.56,6.83-35.79,10.19-54.67,8.81-6.13-.45-12.45-.86-17.8-4.62-3.7-3.33-6.86-6.94-6.8-12.34,6.61,6.69,15,8.86,24,9.35a125.14,125.14,0,0,0,56.48-9.78c1.25-.54,2.93-1.84,3.31.88,2.12,14.84,12.27,23,24.88,28.06,25.38,10.11,50.29,9.17,73.94-5.68,6.9-4.34,11.09-10.83,14.25-18.12,1.29,1,1.32,2.41,1.38,3.82a6.92,6.92,0,0,1-.21,2.4,34.87,34.87,0,0,1-10.67,16.44C224,338,222.35,339.44,220,339.41Z"/>
		<path class="cls-4" d="M111.06,98.15c11.25,8.54,24.44,10.84,38,11.42,19.82.85,39.18-1.25,57.33-10.08,6.47-3.14,12.05-7.22,14.25-14.46.72-2.37,2.05-1.7,3.41-1.25,6.71,2.21,12.9,5.28,17.66,10.77-2-5.33-6.44-8.25-11.29-10.62C228.06,82.76,225.49,82,223,81c-1.25-.51-2.79-1-.95-2.7a55.54,55.54,0,0,1,17.58,7.64c5.43,3.76,8.66,8.52,7.38,15.45-7.21,11.05-18.88,14.27-30.62,16.77a123,123,0,0,1-44.58,1.12c11-2.43,20.76-3.58,29.81-7.61,5-2.24,10-4.55,14.14-8.26s6.22-8.1,5.07-14.26c-8.16,12.07-20.63,16.11-33.43,19.15-19.67,4.66-39.48,5.13-59.23.26a42.91,42.91,0,0,1-14.06-6.26C112.65,101.26,110.89,100.42,111.06,98.15Z"/>
		<path class="cls-5" d="M122.18,140.36c7.7,11.66,20.08,14.68,32.51,17.15a127.23,127.23,0,0,0,47.05.24,4.43,4.43,0,0,1,1.41.21c-1.72,8.26-1.76,7.9-10,8.74a129.13,129.13,0,0,1-48.32-3.88,54,54,0,0,1-20.8-11.25l.05.06c-.79-1.29-2.28-2.24-2-4C122.14,145.17,122.16,142.77,122.18,140.36Z"/>
		<path class="cls-4" d="M122.3,114.41c2.86.76,5.72,1.49,8.56,2.3,1.43.4,2.91.79,3.74,2.24,5.68,9.93,15.71,12.79,25.68,15.56,13.26,3.69,26.86,4,40.53,3.33-6.14,2.62-12.76,2.35-19.05,2.4-15.32.13-30.57-1.21-44.9-7.53-6.05-2.67-11.41-6.11-14.68-12.12Z"/>
		<path class="cls-4" d="M122.11,147.58a6.9,6.9,0,0,1,2,4c-.92-.22-1.93-.88-2.06.9a12.39,12.39,0,0,0,4.78,10.93c9,7.63,20,10.26,31.15,12.11a136.7,136.7,0,0,0,40.14.25c1.84-.24,5.19-2.69,5.92,1.79l.06-.05c-1.67-1-3.33-.78-5.22-.46-22.26,3.76-44.23,3.44-65.49-5.22-6.26-2.55-11.78-6.11-15.08-12.33A12.54,12.54,0,0,1,122.11,147.58Z"/>
		<path class="cls-4" d="M323.18,206.46c-6.88,10.53-17.89,14-29.18,16.43-21.31,4.51-42.57,4-63.54-2.42a5,5,0,0,1-2.18-1.3,156.32,156.32,0,0,0,20.92,3.69c18.8,1.94,37.16.41,54.9-6.45a40.12,40.12,0,0,0,10.27-6.1c5-3.9,5.86-9.39,5.66-15.25C323.91,198.08,323.42,202.3,323.18,206.46Z"/>
		<path class="cls-4" d="M319.46,185.84c-3.15,7.35-9.52,11-16.46,13.56-18.74,6.95-38.07,8.28-57.82,5.57-5.76-.79-11.4-1.81-16.82-4.24,4.52.69,9,1.53,13.56,2,19.17,2.14,38.12,1.63,56.47-5.18,6.63-2.46,12.74-5.78,16.37-12.28,1.15-2.06,3.06-2.31,5-2.61Z"/>
		<path class="cls-4" d="M107.2,83.75c4.82,7.25,12,10.91,20.15,12.78,26.16,6,51.81,4.54,76.71-6,5.54-2.34,10.08-6.12,14.46-10.19-1.87,4.47-5.36,7.39-9.33,9.66-12.51,7.16-26.21,10.2-40.41,11.65a115.75,115.75,0,0,1-39.11-2.24c-8.63-2.08-16.89-5.24-22.32-13Z"/>
		<path class="cls-4" d="M229.05,150.57c10.62,14.92,26.85,19.13,43.43,22.33,19.47,3.77,38.84,4.17,57.79-3.18,4.54-1.75,7.8-4.88,11-8.31,0,.61-.07,1.22-.1,1.83-6.76,9.43-17.22,11.55-27.53,13.06A121,121,0,0,1,248.24,168c-7.35-3.09-14.46-6.92-18.3-14.6A17.79,17.79,0,0,1,229.05,150.57Z"/>
		<path class="cls-5" d="M35.3,269.3c6.63,7.35,15.57,8.86,26.4,9.75l-10.55,5.77C43.05,282.52,35.85,279.31,35.3,269.3Z"/>
		<path class="cls-16" d="M118.26,178.65a31.43,31.43,0,0,0,2.07,3.33c2.83,3.46.6,3.65-2.21,3.52Q118.2,182.07,118.26,178.65Z"/>
		<path class="cls-5" d="M209.18,246.89c.87-2.52-.44-4.15-2.25-5.58,4.27-3,8.74-5.79,11.15-10.73a8.56,8.56,0,0,1,4-3.75l3.09,1.72c-.57,2.2.36,4.64-1.09,6.7-2-.21-4.17-3.64-5.41-1.45-1.82,3.25,2,3.78,4.13,4.68,7.52,3.2,15.53,4.63,23.66,6-4.1,6.07-6.37,7-12.83,5.1-5-1.45-9.9-3-15-4.07,5.48,4.24,12.28,5.16,18.75,7.29-5,11.58-12.15,1.92-18.18,2.13,1.78,2.51,2.67,3.46,9.65,5.2,4.16,1,2.65,3.12,2.26,5.45-.55,3.33-2.6,2.2-4.47,1.6-2.57-.81-4.89-2.53-8.77-2.39,3.11,2.83,6.34,3.27,9.11,4.53,1.55.72,3.12,1.08,3.22,3.22.21,4.59,2.39,8.58,4,12.74.51,1.22,1,2.42-.35,3.44-3.36-.09-3.54-2.94-4.32-5.15-2-5.57-5.63-7.51-11.38-5.87-2.16,2.82-4.17,1.64-6.3-.19.83-2.09,3.47-2.65,4.32-6.53-5,5.92-9.91,6.26-15.54,2.28,6.16-3,12.53-5.43,16-11.85a52.58,52.58,0,0,1-17.38,10.15,13,13,0,0,1-6.32.75c-13.81-1.8-27.53-1.69-40.81,3.14-3.35,1.22-5.69.88-8.54-1.49-5.13-4.26-11.57-6.05-18.09-6.21-7.05-.18-13.48-1.22-18.66-6.41-1.73,0-1.12-1-.7-1.84-.68-3-2.32-6,.06-9,6.57,9.24,16.7,12.35,26.87,14.89a115.05,115.05,0,0,0,36.51,3.05c14.91-1.12,29.65-3.33,42.42-12.13-10.25,7-22,9.6-34,11.3a112.15,112.15,0,0,1-22.85.82c-13.57-.89-27-2.72-39.23-9.49a30.28,30.28,0,0,1-9.75-8.38c-.49-3.34-2.41-6.69,0-10l0,0c5.42,7.93,13.6,11.55,22.4,13.86,24.83,6.52,49.47,6.22,73.77-2.62a35,35,0,0,0,10.93-6.46C212,245.81,211.14,247.75,209.18,246.89Z"/>
		<path class="cls-5" d="M233.14,288.57c1.05-.87.89-2.12,1-3.27,10.57,14,25.46,19.81,42.1,21.77,18.43,2.17,36.08-.32,52.08-10.64a36.66,36.66,0,0,0,15.42-20.68c.61,10.8-4.68,18.63-12.67,25.07-5.22,4.21-11.29,6.9-17.38,9.53-9.11,5.73-19.35,6.06-29.57,5.71a106.17,106.17,0,0,1-15.25-1.76c-12.52-3-23.85-8.18-32.64-17.92C234.32,294.23,231.9,292.07,233.14,288.57Z"/>
		<path class="cls-5" d="M224.06,235.25c-.22-2.33-2.94-5.07,1.09-6.7a130,130,0,0,0,45.52,7.28c-6.1,1.74-12,3.82-17.88,6.07-2.36.9-5.55,0-8.28-.53C237.5,240,230.55,238.38,224.06,235.25Z"/>
		<path class="cls-24" d="M236.34,264.4c3-9.49,9.95-15.5,18.51-19.42,22.86-10.47,45.67-10.21,67.91,2,6.11,3.35,11.3,7.94,13.92,14.88-13.15-16.64-31.24-21.66-51.15-21.14C265.83,241.22,247.82,246.25,236.34,264.4Z"/>
		<path class="cls-24" d="M84.28,206.41c2.11-4.57,5.67-7.84,10-10.37,10.87-6.35,22.91-8.86,35.2-10,15.15-1.39,30.23-.95,44.7,4.65,5.16,2,9.73,4.79,13.49,10.9-16.46-13.32-34.59-14.3-53.11-13.18S98.21,192.38,84.28,206.41Z"/>
		<path class="cls-5" d="M222.06,226.83c.33,3-2.44,2.73-4,3.75C219.29,229.2,215.39,222.4,222.06,226.83Z"/>
		<path class="cls-19" d="M233.14,288.57c4.23,9.5,12.3,14.77,21.2,19a61.52,61.52,0,0,0,13.7,5c.44,2.31-1.25,3.29-2.8,4.14-8.1,4.46-17.11,5.79-26,7.24-1.94.32-5,.34-4.22-3.48.1-.67.19-1.34.29-2a74.64,74.64,0,0,0,0-14.87c-1.87-8.72-7-15.22-14.13-20.23-2.13-1.5-3.31-3.08-3-5.67.11-2.65.67-3.68,3.9-2.66,5.22,1.65,9.37,3.62,9.5,10C231.55,286.21,232.58,287.38,233.14,288.57Z"/>
		<path class="cls-24" d="M229.62,301.47c-13.71-29.67-77.86-34.72-100.93-2.48a28.48,28.48,0,0,1,13.78-15.41c23.29-12.71,47-12.72,70.71-1.12C222,286.79,227.57,293.8,229.62,301.47Z"/>
		<path class="cls-24" d="M42.12,301.07c.89-6.15,4.93-9.72,9.1-12.77,13.86-10.12,29.68-15.46,46.56-17.71,11.72-1.57,23.5-2.54,35,1.39a17.85,17.85,0,0,1,9.77,7.16c-17.88-10.76-35.91-8.31-53.78-4.25S53.93,284.93,42.12,301.07Z"/>
		<path class="cls-5" d="M106.07,259.51c.23.61.47,1.23.71,1.84.33,2.28,2.46,3.35,3.69,5.46-1.68.93-3.82,1.4-4.7,0A6.22,6.22,0,0,1,106.07,259.51Z"/>
		<path class="cls-22" d="M235.26,303.61a28,28,0,0,1,0,14.87l-.15-4.53C235.17,310.5,235.21,307.05,235.26,303.61Z"/>
		<path class="cls-4" d="M204.05,177.61c10.79,11.08,25,14,39.39,15.82a122.69,122.69,0,0,0,50.3-3.88c4.41-1.28,8.61-3.3,13.06-4.66-2.42,3.24-6.18,4.37-9.69,5.5-26.31,8.54-52.64,8.54-78.66-1-5.85-2.15-12.37-4.49-14.34-11.81Z"/>
		<path class="cls-22" d="M235,320.49c.59,2.59,2.77,2.39,4.4,2,9-2.21,18.37-3,26.54-7.89a13.29,13.29,0,0,0,2.12-2c9.87.92,19.71,2.81,29.65,1,5.36-1,10.69-2.15,16-3.23,0,3.3-3.12,3.95-5,5.26-18.18,12.45-38.94,17.55-60.33,21.13-8.4,1.4-16.94,1.65-25.24,3.62a2.7,2.7,0,0,1-3.11-.95C226.67,334.44,232,328.41,235,320.49Z"/>
		<path class="cls-4" d="M230.29,140.61c6.38,10.43,15.85,14.82,25.91,18.14,22,7.27,44.44,9.38,67.24,3.92a37.24,37.24,0,0,0,16.83-8.57c-1,3-1,3-3.41,4.68-8.75,6.26-19,8-29.27,8.61-20.45,1.25-40.5-.92-59.42-9.58-5.66-2.59-10.84-5.81-15-10.53C231.78,145.66,230.33,144.07,230.29,140.61Z"/>
		<path class="cls-4" d="M123.66,131.39c9,9.44,20.77,12.5,32.84,14.48,20.29,3.32,40.4,2.79,60.08-3.92,4.49-1.53,8.56-4,12.93-5.86-1.67,3.37-4.9,4.72-7.91,6-18.71,8.12-38.42,8.71-58.31,7-10.67-.91-21-3.48-30.5-8.66C128.91,138.34,125.13,136,123.66,131.39Z"/>
		<path class="cls-24" d="M228.65,52.67c-8.85-9.57-20.84-12-32.77-13.78a111,111,0,0,0-45.42,2.54C141.52,43.82,133.1,47,126.53,54c.74-3.68,3.39-5.79,6.24-7.69,9.68-6.45,20.74-9.07,32-10.13,17.46-1.62,34.92-1.4,51.47,5.7C221.5,44.08,226.5,46.85,228.65,52.67Z"/>
		<path class="cls-24" d="M338.53,137.83c-5.45-9.72-14.85-13.87-24.53-16.89-20.93-6.54-42.21-8.38-63.72-2.39-4.67,1.3-8.59,4-12.76,6.26,3.37-5.65,9-7.85,14.9-9.23,25.65-6,50.45-3.44,74.15,8.24a25.47,25.47,0,0,1,11.13,9.71C338.45,134.79,339.48,136,338.53,137.83Z"/>
		<path class="cls-4" d="M209.18,246.89c3.17-.87,4.57-4.12,8-6-1.77,5.09-5.68,7.13-9.28,9.2-10.32,5.91-21.8,8.3-33.42,9.15-17.49,1.27-35,.86-51.65-5.68-6.82-2.68-13.6-5.58-16.74-13.06C118,253,133.82,255.82,149.77,257.2c18,1.56,35.91.34,52.95-6.66C205,249.6,207.42,248.8,209.18,246.89Z"/>
		<path class="cls-4" d="M106.07,250.6c12.75,12.44,29.15,15.25,45.79,16.64,16.17,1.34,32.21-.1,47.66-5.61,6.33-2.26,12.18-5.3,16.92-10.84-1.16,3.62-2.44,5.18-6.34,7.78-8.66,5.78-18.52,8.21-28.58,9.61-19.47,2.73-38.77,2.05-57.56-4.46-6.17-2.14-12-5-16.31-10.13a4.86,4.86,0,0,1-1.52-3.05Z"/>


    <path class="cls-28" d="M300.75,266.82l-.29-.07a25.46,25.46,0,0,0-19.62,3.84,20.57,20.57,0,0,0-4.28,4.49,11.24,11.24,0,0,0,1.65,14.46,17.9,17.9,0,0,0,7.73,4.58c.43.14.87.26,1.3.37a27,27,0,0,0,7.11.73,34.43,34.43,0,0,0,6.56-1.09,24.48,24.48,0,0,0,6.75-3.29,20.11,20.11,0,0,0,4.23-4.48,11.64,11.64,0,0,0,1.85-7.17c-.06-.8-.21-1.1-.59-1.2l-.14,0a1,1,0,0,0-.95.48,5.17,5.17,0,0,0,0,1c.12,3.71-2.25,7.23-6.45,9.51a19.56,19.56,0,0,1-13.65,1.61l-.13,0a13.09,13.09,0,0,1-8.19-5.67,5.35,5.35,0,0,1-.87-2.53,5.57,5.57,0,0,1-.19-2.64c.69-4.29,4.37-8,9.77-9.56a21.82,21.82,0,0,1,7.41-.69c.3,0,.72.11.95.12,1.32.1,2.43-1,1.84-1.9a3,3,0,0,0-1.78-.88"/>
				<path class="cls-28" d="M294.78,274.59c-.16,0-.29,0-.67.16a8.51,8.51,0,0,0-3.71,3.63,4.37,4.37,0,0,0-.23,3.12,5.8,5.8,0,0,0,3.29,3.72,10.54,10.54,0,0,0,2.06.77,12.13,12.13,0,0,0,2.61.31,11.53,11.53,0,0,0,2.07-.13,8.93,8.93,0,0,0,5.4-2.8,5.33,5.33,0,0,0,1.55-3.18,4.2,4.2,0,0,0-.6-2.65l-.06,0c-.22-.05-.73.13-3.66,1.25a30.71,30.71,0,0,1-3.83,1.33l-.13,0a1.2,1.2,0,0,1-.37-.15l-1.85-2.69a20.79,20.79,0,0,0-1.82-2.61l-.05,0"/>
				<path class="cls-28" d="M308.43,250.2a10.59,10.59,0,0,0-4.05-.09,7.85,7.85,0,0,0-2.63.81c-5.86,2.52-9,4.51-9.6,6.19-.31.78-.41.84-1.27,1a7.09,7.09,0,0,1-2.69-.13,4.07,4.07,0,0,1-2.51-1.56,18.64,18.64,0,0,1-.64-2c-1-3.76-2.72-6.34-5.17-7.44a6,6,0,0,0-1-.36,8.18,8.18,0,0,0-5.12.57,69.23,69.23,0,0,0-9.06,6,24.23,24.23,0,0,0-4.29,4.39,3.38,3.38,0,0,0-.58,2,1.63,1.63,0,0,0,1.18,1,1.61,1.61,0,0,0,.62,0c.34-.05.37-.19-.07-.64-1.44-1.54.49-4.14,5.24-7.19.61-.43,1.54-1,2-1.41a11.79,11.79,0,0,1,5.13-2.37,4.38,4.38,0,0,1,1.71,0,3.25,3.25,0,0,1,2.25,2.16,16.55,16.55,0,0,1,.86,5c-.35,3.7-2.38,6.61-6,8.68a5.63,5.63,0,0,1-3.78,1,62.2,62.2,0,0,0-8.62.78c-4.52.75-7.08,1.63-8.93,3.15a3,3,0,0,0-1.25,2.15,5.94,5.94,0,0,0,2.78,5.26c.27.21,1.87,1.1,3.5,2A32.54,32.54,0,0,1,259.6,281a1,1,0,0,1-.07.53c-.52.89-.54,1.1-.39,1.81a1.58,1.58,0,0,0,.65,1.15,3.34,3.34,0,0,0,1.48.77,5.61,5.61,0,0,0,.64.12,4.32,4.32,0,0,0,3.34-1.08c1.34-1.44.54-3.34-1.63-3.88l-.15-.05a4.14,4.14,0,0,0-2,.06,6.3,6.3,0,0,1-1.53.15l-.09,0c-.13-.11-6.28-5-7.13-5.7-.58-.52-.4-1.05.54-1.58a12,12,0,0,1,4.69-.81,27.54,27.54,0,0,1,7,.73,13.92,13.92,0,0,1,6.35,3.25,2.67,2.67,0,0,0,.62.51h0a4.6,4.6,0,0,0,.62-1.21c1.46-3.39,4.84-6.57,10.19-9.54a19.28,19.28,0,0,1,6.17-2.39,21.42,21.42,0,0,1,9.76.2l.24.06.38.09c.58.15,1.05.25,1.1.25s.08-.15.1-.32c0-3,.5-4.7,2.18-6.7a12.86,12.86,0,0,1,5.1-3.36c1.05-.4,1.44-.5,1.82-.4a1.11,1.11,0,0,1,.29.1c.82.34,1.37,1.55,1.83,4.06.28,1.67.29,1.71.05,2a3.25,3.25,0,0,1-.94.53,3,3,0,0,0-1.88,1.94c-.24,1.27.65,2.36,2.15,2.73l.23,0c1.9.37,3.94-.52,4.42-1.88s-.36-2.56-2.16-3.07a2,2,0,0,1-.91-.43,3.28,3.28,0,0,1,0-1.37,10.35,10.35,0,0,0-.1-3.59,5.37,5.37,0,0,0-4.14-4.42"/>
				<path class="cls-28" d="M268.33,257.87a5,5,0,0,0-2.11,0c-1.85.36-2.9,1.54-2.61,3a2.78,2.78,0,0,0,2.16,1.92,3.86,3.86,0,0,0,.49.09,8.15,8.15,0,0,0,2.45-.31,2.88,2.88,0,0,0,1.61-1.52,1.5,1.5,0,0,0,.09-1.3,2.2,2.2,0,0,0-1.39-1.6,3.83,3.83,0,0,0-.69-.25"/>

	<path class="cls-28" d="M180.77,304.64a27.45,27.45,0,0,0-3.94-.66,33.39,33.39,0,0,0-7.27.41c-7,1.45-12.47,5.3-14.53,10.35a10.66,10.66,0,0,0-.43,7.5,13.07,13.07,0,0,0,3.68,5.62,23.83,23.83,0,0,0,4.95,3.13,25.4,25.4,0,0,0,3.42,1.12,26.54,26.54,0,0,0,4,.68,32.17,32.17,0,0,0,7.23-.44,23.53,23.53,0,0,0,8.75-3.57c.91-.62,1.1-.9.89-1.21a.84.84,0,0,0-.45-.27,1.09,1.09,0,0,0-.62,0,11.41,11.41,0,0,0-1.12.66,19.22,19.22,0,0,1-13.9,2.4c-.27-.05-.54-.11-.8-.18-4.24-1.05-7.54-3.6-8.84-6.85-1.11-2.78-.64-5.68,1.34-8.46.5-.78.7-.93,2.2-2.15a10.39,10.39,0,0,1,2.7-1.82,20,20,0,0,1,13.23-1.4,17,17,0,0,1,2.66.9c1.94.89,4.49,2.82,5,3.88.13.2.31.49.43.64a1.54,1.54,0,0,0,.86.51,2.14,2.14,0,0,0,2.22-.67c.28-.41.22-1-.17-1.83-2-4-6.16-7-11.5-8.31"/>
				<path class="cls-28" d="M179.94,314.41a13.23,13.23,0,0,0-5.92.21,8.78,8.78,0,0,0-3.48,1.89,5.37,5.37,0,0,0-2.09,4.34,5.12,5.12,0,0,0,1.55,3.43,8.49,8.49,0,0,0,1.34,1.13,9.11,9.11,0,0,0,2.55,1.07,11.21,11.21,0,0,0,3.56.26,10.71,10.71,0,0,0,4.3-1.15c1-.5,2.51-1.78,2.49-2.08s-.25-.29-3.46-1.38a26.74,26.74,0,0,1-3.62-1.37.67.67,0,0,1-.1-.42c.08-.12.89-1.39,1.82-2.82a20.32,20.32,0,0,0,1.73-2.76c0-.15-.13-.2-.58-.33l-.09,0"/>
				<path class="cls-28" d="M197.55,284.57a93.23,93.23,0,0,0-11.43-1.34,39.46,39.46,0,0,0-7.19.34,7.25,7.25,0,0,0-2.49,1c-.59.55-.68,1.36-.1,1.75a.51.51,0,0,0,.15.07c.17,0,.31-.09.48-.52.84-1.85,4.72-2.41,10.72-1.62.82.09,2,.23,2.7.28a18.41,18.41,0,0,1,3.08.47,7.6,7.6,0,0,1,2.42,1c1.41.94,1.42,2.17-.08,3.75a29.13,29.13,0,0,1-4.83,3.73,19.37,19.37,0,0,1-12.74,2.13c-.46-.08-.82-.15-1.11-.23A4,4,0,0,1,175,294a36.87,36.87,0,0,0-5.81-4.52,20.67,20.67,0,0,0-6-2.83,12.66,12.66,0,0,0-2.51-.36,5.84,5.84,0,0,0-3,.67,7.4,7.4,0,0,0-4,5,30.32,30.32,0,0,0-.09,3.33,20.22,20.22,0,0,1-.1,3,1.88,1.88,0,0,1-.6.31,3.88,3.88,0,0,0-2.17.95c-.58.48-.7.63-.85,1.12a2,2,0,0,0,.26,1.82,3.31,3.31,0,0,0,1.86,1.12,4.29,4.29,0,0,0,1.24.13c2.31-.15,3.88-1.86,3.22-3.47-.23-.56-.27-.59-1.26-1.26-.8-.52-1.09-.72-1.05-.87s1.67-6.89,2-7.87c.23-.67.91-.91,2-.7l.11,0a8.71,8.71,0,0,1,3.47,2.19c3.44,3.36,4.71,7,3.44,10.37a1.52,1.52,0,0,0-.18.71h0a10,10,0,0,0,1.65-.42c4.47-1.34,9.84-1.45,16.1-.24.78.16,1.45.3,2.05.45a14.66,14.66,0,0,1,4.08,1.6,11.87,11.87,0,0,1,5.5,6,6.37,6.37,0,0,0,.48,1.08h0a1,1,0,0,0,.39-.15,17.85,17.85,0,0,1,8.44-3.07,15.7,15.7,0,0,1,5.29.43c.43.1.84.23,1.24.36,1.27.45,1.49.59,1.54,1,.1.71-.88,1.81-3.29,3.7-1.62,1.26-1.67,1.29-2.07,1.31a3.2,3.2,0,0,1-.76-.11l-.35-.1-.21-.06a4.83,4.83,0,0,0-2.95.22c-1.56.71-2.21,2-1.6,3.21a3.09,3.09,0,0,0,2.06,1.44,4.44,4.44,0,0,0,2.5-.09c1.73-.6,2.54-1.87,2.05-3.26a1.09,1.09,0,0,1-.07-.81,6.86,6.86,0,0,1,1.47-.88,19.61,19.61,0,0,0,3.78-2.39c3.4-2.75,3.43-5.48.1-7.71a6.5,6.5,0,0,0-2.4-1c-1.11-.33-2.15-.61-3.12-.85-4.32-1.08-7.27-1.32-9-.74a2.19,2.19,0,0,1-1.15.2,2.29,2.29,0,0,1-.6-.31c-1.57-1.06-2.08-2.87-1.2-4.14.2-.22,1-.95,1.73-1.65,3.48-3,5.22-5.7,5-7.85-.13-1.55-1.51-2.77-3.78-3.46l-.2-.06"/>
				<path class="cls-28" d="M180.94,286.77a4.13,4.13,0,0,0-3.62.82,2.08,2.08,0,0,0-.63,2.85,5.27,5.27,0,0,0,1.75,1.23l.22.06a4.56,4.56,0,0,0,2.34-.11,2.89,2.89,0,0,0,1.43-.79,2,2,0,0,0,.92-1.85,2.3,2.3,0,0,0-1.36-1.79,4.12,4.12,0,0,0-1.05-.42"/>

	<path class="cls-28" d="M142.29,194a17.63,17.63,0,0,0-3-.8,30.92,30.92,0,0,0-7.37-.37,49.67,49.67,0,0,0-6.06.9,36.68,36.68,0,0,0-6.56,2.27,24.4,24.4,0,0,0-4.5,2.91A7.51,7.51,0,0,0,112,203.4c-.07.41,0,.61.19.68a.92.92,0,0,0,.26,0,1.34,1.34,0,0,0,.92-.34,2.68,2.68,0,0,0,.19-.63c.48-2.29,3.16-4.54,7.29-6.1a27,27,0,0,1,12.6-1.46,14.73,14.73,0,0,1,3,.72,6.7,6.7,0,0,1,3.46,2.48c.34.43.34.56.38,1.52a2.42,2.42,0,0,1-.24,1.61c-1.29,2.68-5.18,5.07-10.27,6.25a30.37,30.37,0,0,1-6.76.69l-.84,0c-1.15,0-2.33.7-1.94,1.24a.86.86,0,0,0,.4.24,5.82,5.82,0,0,0,1.31.26,35.63,35.63,0,0,0,18.2-3.07,24.31,24.31,0,0,0,4.54-2.91c3.49-3.16,3.81-6.46.81-8.85a11,11,0,0,0-3.18-1.74"/>
				<path class="cls-28" d="M131.28,199l-.17-.06a11.51,11.51,0,0,0-4-.5,17.32,17.32,0,0,0-1.89.16,12.75,12.75,0,0,0-5.28,1.91,4.63,4.63,0,0,0-1.9,2c-.24.53-.14,1.51.12,1.6h0c.15.06.42,0,3.52-.88,2.09-.59,3.49-1,3.64-1a2,2,0,0,1,.37.07l.06,0L127,204a8.87,8.87,0,0,0,1.23,1.54h0a1.38,1.38,0,0,0,.67-.12,10.38,10.38,0,0,0,3.89-2.37,2.29,2.29,0,0,0,.7-1.93c-.14-.93-.81-1.61-2.19-2.11"/>
				<path class="cls-28" d="M160.68,197.94a4.42,4.42,0,0,0-1.24-.21,6.13,6.13,0,0,0-3.17.79c-1.2.79-1.1,1.72.07,2.15a3.8,3.8,0,0,0,.77.18,5.17,5.17,0,0,0,1.94-.09,5.46,5.46,0,0,1,1.45-.13h0c.1.06,4.86,2.82,5.51,3.25.43.3.18.63-.74,1a17.5,17.5,0,0,1-4.34.67,25.15,25.15,0,0,1-9.38-1,7.51,7.51,0,0,1-2-1,1.77,1.77,0,0,0-.44-.28h0a4,4,0,0,0-.76.76c-1.84,2.14-5.37,4.23-10.65,6.25a27.72,27.72,0,0,1-5.91,1.7,28.1,28.1,0,0,1-8.93.2c-.63-.1-1.21-.17-1.26-.16s-.1.09-.15.2a6.43,6.43,0,0,1-3,4.21,17.87,17.87,0,0,1-5.11,2.25c-1.24.34-1.5.38-1.92.26l-.1,0c-.63-.23-.9-1-.91-2.4,0-1,0-1.05.25-1.21a4.64,4.64,0,0,1,.94-.36,3.57,3.57,0,0,0,2-1.26c.33-.62,0-1.15-.78-1.43a3.37,3.37,0,0,0-.93-.2c-1.63-.16-3.6.47-4.24,1.32-.52.69-.26,1.28.66,1.62a4.46,4.46,0,0,0,.78.19,5.56,5.56,0,0,1,.58.14.36.36,0,0,1,.17.09,1.49,1.49,0,0,1-.22.85,4.74,4.74,0,0,0-.48,2.21,2.46,2.46,0,0,0,1.82,2.28,10.52,10.52,0,0,0,4.81.2,12.07,12.07,0,0,0,2.49-.6c5.65-1.76,8.75-3.11,9.59-4.16.4-.49.51-.53,1.29-.63a7.7,7.7,0,0,1,3.48.23,1.8,1.8,0,0,1,.91.62,5.48,5.48,0,0,1,.27,1.18,4.76,4.76,0,0,0,3.11,4.28l.35.12a10,10,0,0,0,5.56-.36,96.58,96.58,0,0,0,9.07-4,29,29,0,0,0,4.54-2.87,2.31,2.31,0,0,0,.84-1.25.75.75,0,0,0-.55-.51,1.83,1.83,0,0,0-.89-.09c-.32.05-.37.13,0,.39,1,.9-1.09,2.57-5.84,4.62l-2,.94a16.76,16.76,0,0,1-5,1.65,4.43,4.43,0,0,1-2.11-.11,1.76,1.76,0,0,1-1.1-1.11,6.46,6.46,0,0,1,0-3c.9-2.29,3.18-4.16,6.74-5.56A8.22,8.22,0,0,1,150,210c2.87-.17,5-.38,7.84-.79,4.17-.62,6.61-1.26,8.52-2.26a2.93,2.93,0,0,0,1.46-1.37c.47-1.19-.17-2.38-1.67-3.14-.19-.11-1.19-.49-2.34-.91l-.5-.18-.39-.14a20,20,0,0,1-2.12-.84A.43.43,0,0,1,161,200c.61-.57.65-.7.63-1.13a.65.65,0,0,0-.4-.69,2.71,2.71,0,0,0-.51-.26"/>
				<path class="cls-28" d="M153.1,211.94a4.07,4.07,0,0,0-1.12-.2,11,11,0,0,0-2.24.28,3.55,3.55,0,0,0-1.69,1c-.3.37-.35.45-.28.8s.25.67.79.87l.2.06a5.27,5.27,0,0,0,2.47.05c1.72-.29,2.84-1.05,2.81-1.91,0-.41-.38-.74-.94-.95"/>

	<path class="cls-28" d="M313.31,135.05a1.31,1.31,0,0,0-.5-.08c-.33,0-.66.17-.6.35a3.1,3.1,0,0,0,.45.54c1.83,1.95,1.4,4-1.2,5.61s-6.71,2.3-11.21,2.09a26.79,26.79,0,0,1-8.31-1.63c-.49-.19-1-.39-1.42-.61a6.66,6.66,0,0,1-1.93-1.25c-1-.81-1.11-.92-1.38-1.37-1.4-2.33.11-4.61,4.06-5.94a24.84,24.84,0,0,1,6.1-1l.88,0c1.19-.06,1.65-.75.71-1.17l-.09,0a7.09,7.09,0,0,0-2.13-.27c-6.62-.13-12.37,1.32-15.25,3.82a5.78,5.78,0,0,0-1.64,2.76c-.31,2.67,2.25,5.26,6.94,7.06.38.15.77.29,1.18.42a35.29,35.29,0,0,0,8.82,1.7,39.86,39.86,0,0,0,7.8-.19,35.8,35.8,0,0,0,5.2-1.17,14.11,14.11,0,0,0,4.33-2.36,5.66,5.66,0,0,0,1.59-2.74,4.69,4.69,0,0,0-1.71-4,2.17,2.17,0,0,0-.69-.5"/>
				<path class="cls-28" d="M307.11,135.37l-.11,0c-.22,0-.41,0-2.66,1a26,26,0,0,1-2.7,1,2.52,2.52,0,0,1-.52,0l-2.85-1.25c-1.12-.52-2.15-1-2.58-1.14l-.21-.07a1,1,0,0,0-.57.14,2.57,2.57,0,0,0-1.52,2.25,2.47,2.47,0,0,0,1.24,1.67,8.3,8.3,0,0,0,1.8,1,14,14,0,0,0,2.77.7,17.85,17.85,0,0,0,4.55.15c.54,0,1-.14,1.75-.26,1.85-.45,2.84-1,3.37-2a1.58,1.58,0,0,0-.12-1.83,5,5,0,0,0-1.64-1.31"/>
				<path class="cls-28" d="M299.37,121.42a12.36,12.36,0,0,0-6.92-.35,7,7,0,0,0-1.92.67c-3.91,1.87-5.68,3.21-5.46,4.15.09.44,0,.48-.65.62a10,10,0,0,1-5-.3l-.27-.11c-.2-.12-.86-.55-1.46-1a19.61,19.61,0,0,0-4.65-2.59,14.78,14.78,0,0,0-3.27-.86,9.58,9.58,0,0,0-5.25.67,29.47,29.47,0,0,0-5.08,4,6.79,6.79,0,0,0-1.7,2.72,1.37,1.37,0,0,0,.43,1.11,2.16,2.16,0,0,0,.43.22,3.19,3.19,0,0,0,1.63.18c.23-.05.24-.11-.11-.24l-.25-.09-.1,0c-1.84-.7-1.34-2.23,1.32-4.23.34-.29.86-.69,1.13-.93a6.93,6.93,0,0,1,3.34-1.72,5.75,5.75,0,0,1,3.36.25,6.35,6.35,0,0,1,1.11.55,16,16,0,0,1,3,2.54c1.41,2,1,3.71-1.18,5.13a4.8,4.8,0,0,1-2.83.86,67,67,0,0,0-7.11,1.2c-3.58.81-5.39,1.51-6.3,2.48a.91.91,0,0,0-.1,1.25,6.59,6.59,0,0,0,3,1.93,14.58,14.58,0,0,0,1.9.58c.34.09,2.13.41,4,.72s3.37.6,3.52.65h0a.4.4,0,0,1,.17.28c0,.51.06.63.52,1a2.24,2.24,0,0,0,.67.41,2.92,2.92,0,0,0,.42.14,6.85,6.85,0,0,0,2.25.27,3.23,3.23,0,0,0,2.39-.87c.32-.57-.2-1.15-1.17-1.52a6.49,6.49,0,0,0-2-.38,5,5,0,0,0-1.87.2,4.75,4.75,0,0,1-1.34.21c-.18-.05-7.76-2-8.84-2.35l-.19-.07c-.56-.21-.58-.49-.06-.82a11.77,11.77,0,0,1,3.69-.85,33.15,33.15,0,0,1,13.41.87,4.34,4.34,0,0,0,.78.21s.08-.31,0-.69c-.3-1.92,1.15-3.91,4.42-6a13.55,13.55,0,0,1,4.25-1.83,29.3,29.3,0,0,1,8.79-.77c.73,0,1.4.05,1.44,0s0-.08-.05-.17c-1.42-1.58-1.75-2.53-1.21-3.74a5.44,5.44,0,0,1,2.87-2.24,2.71,2.71,0,0,1,1.68-.35,3.18,3.18,0,0,1,.75.19,10.8,10.8,0,0,1,2.72,1.78c1,.86,1.05.88,1,1a1.37,1.37,0,0,1-.58.36c-.66.31-1,.8-.73,1.2a2.18,2.18,0,0,0,1.19.87,6.19,6.19,0,0,0,2.17.38c1.81,0,3.16-.63,2.95-1.4-.11-.41-.55-.76-1.21-1a7.18,7.18,0,0,0-2.08-.4,4.11,4.11,0,0,1-1-.13h0a2.4,2.4,0,0,1-.62-.72,7.78,7.78,0,0,0-1.74-1.88,8.61,8.61,0,0,0-2.27-1.29"/>
				<path class="cls-28" d="M266.6,128.81a5.21,5.21,0,0,0-1.13-.27,6.35,6.35,0,0,0-2.53.13c-1.45.36-1.81,1.08-.9,1.8a3.15,3.15,0,0,0,.8.43,6.34,6.34,0,0,0,2.42.39,8.77,8.77,0,0,0,2-.39c.54-.25.75-.59.69-1s-.11-.41-.53-.7a3.56,3.56,0,0,0-.81-.44"/>

	<path class="cls-28" d="M192,56.35l-.07,0a35.66,35.66,0,0,0-18.37-1.18,28.5,28.5,0,0,0-5.4,1.77c-4.5,2.23-6.07,5.32-4.14,8.3a10.9,10.9,0,0,0,4.89,3.85c.42.19.84.36,1.27.53a30.19,30.19,0,0,0,5.56,1.49,48.1,48.1,0,0,0,6.07.51,38.7,38.7,0,0,0,7.07-.69,28.08,28.08,0,0,0,5.36-1.77,9.43,9.43,0,0,0,4.35-3.67c.26-.46.24-.65-.07-.77l-.08,0a1.44,1.44,0,0,0-1,.11,3.74,3.74,0,0,0-.41.57c-1.32,2.08-4.71,3.63-9.22,4.19a26.42,26.42,0,0,1-12.1-1.31l-.36-.15c-2.82-1.16-4.48-2.71-4.87-4.52-.16-.5-.11-.62.21-1.55a3,3,0,0,1,.84-1.5c2.25-2.27,6.83-3.68,12.1-3.66a29.35,29.35,0,0,1,6.64.87l.78.23c1.09.28,2.47-.15,2.3-.74-.06-.26-.49-.52-1.34-.85"/>
				<path class="cls-28" d="M184,59.71a1.36,1.36,0,0,0-.63,0,12.09,12.09,0,0,0-4.58,1.39,2.74,2.74,0,0,0-1.39,1.69c-.23,1,.18,1.79,1.39,2.62a8.09,8.09,0,0,0,1.61.81,11.91,11.91,0,0,0,2,.57,14.56,14.56,0,0,0,7.55-.36,5.64,5.64,0,0,0,2.56-1.5c.44-.47.72-1.43.5-1.58a.05.05,0,0,0,0,0,19.79,19.79,0,0,0-3.63.08c-2.19.09-3.66.12-3.8.08l-.11,0a.71.71,0,0,1-.26-.15c0-.08-.28-.89-.55-1.81a6.55,6.55,0,0,0-.58-1.75l0,0"/>
				<path class="cls-28" d="M205,48.45a12.54,12.54,0,0,0-3.34-.7,12.21,12.21,0,0,0-2.59,0c-6,.41-9.45,1-10.64,1.82a1.64,1.64,0,0,1-1.47.32,8.89,8.89,0,0,1-2.17-.49c-.91-.35-1.54-.83-1.66-1.33a9.72,9.72,0,0,1,.2-1.19c.63-2.25.11-4-1.58-5a4.57,4.57,0,0,0-.83-.4,11.23,11.23,0,0,0-4.56-.52c-1.43.09-7,1.08-10.1,1.8a35.31,35.31,0,0,0-5.38,1.71,2.91,2.91,0,0,0-1.27,1c-.07.3.19.61.63.78a1.91,1.91,0,0,0,.51.12c.31,0,.39,0,.18-.36-.64-1.1,2-2.22,7.27-3.11l2.31-.44a18,18,0,0,1,5.32-.45,5.11,5.11,0,0,1,1.41.3,1.54,1.54,0,0,1,1.16,1.6,7,7,0,0,1-1.18,2.9c-1.72,2-4.59,3.26-8.48,3.8a8.27,8.27,0,0,1-3.63-.09,77.29,77.29,0,0,0-7.72-1c-4.18-.35-6.73-.3-8.9.23a3.51,3.51,0,0,0-1.91,1,2.29,2.29,0,0,0,.38,3.38c.16.17,1.18.93,2.26,1.69a22.47,22.47,0,0,1,2,1.51.61.61,0,0,1-.26.28c-.79.41-.89.53-1,.95s-.12.46.11.74a2.31,2.31,0,0,0,1.07.71l.41.15a6.57,6.57,0,0,0,3.3,0c1.71-.58,1.74-1.77.09-2.43l-.22-.09a5.3,5.3,0,0,0-1.65-.27,8.59,8.59,0,0,1-1.36-.17l-.07,0c-.08-.09-3.51-3.82-4-4.37-.3-.38.06-.65,1.08-.78a16.83,16.83,0,0,1,4.34.34,32.06,32.06,0,0,1,5.46,1.47,9.52,9.52,0,0,1,4.5,3,1.34,1.34,0,0,0,.34.38h0a4.92,4.92,0,0,0,1-.57c2.56-1.63,6.69-2.83,12.44-3.57a30.31,30.31,0,0,1,6.24-.29,26.53,26.53,0,0,1,8,1.63l.51.21.76.3a2.29,2.29,0,0,0,.38.13c.05,0,.13-.06.21-.15a8,8,0,0,1,4.45-3.35,19.27,19.27,0,0,1,5.68-1,4.77,4.77,0,0,1,1.71.08l.22.11c.58.33.59,1.09,0,2.56-.4,1-.41,1-.71,1.1a4.54,4.54,0,0,1-1,.13,4.13,4.13,0,0,0-2.36.77c-.7.66-.33,1.44.87,1.9l.12,0a5.75,5.75,0,0,0,4.52-.3c.93-.67.68-1.48-.68-2.07a1.42,1.42,0,0,1-.62-.39,2,2,0,0,1,.54-.76,5.46,5.46,0,0,0,1.29-2c.5-1.42-.19-2.5-2-3.18"/>
				<path class="cls-28" d="M167.6,46a6.07,6.07,0,0,0-1.77-.33c-1.74-.11-3.09.37-3.38,1.2-.19.55.29,1.12,1.16,1.45l.34.11a10.57,10.57,0,0,0,2.23.24,4,4,0,0,0,2-.57c.42-.29.5-.35.57-.7s0-.77-.58-1.12a3.15,3.15,0,0,0-.55-.28"/>

	<path class="cls-28" d="M93.14,292.26a18.66,18.66,0,0,0-2.76-.36,32.37,32.37,0,0,0-5.64.34c-5.83,1-11.29,3.44-14.6,6.61a8.9,8.9,0,0,0-2.94,4.66A4.27,4.27,0,0,0,68,307a8.77,8.77,0,0,0,2.67,1.89,13,13,0,0,0,2.19.64,19.28,19.28,0,0,0,2.8.38,31.79,31.79,0,0,0,5.63-.36,33.13,33.13,0,0,0,7.86-2.32c.91-.4,1.15-.58,1.1-.77a.35.35,0,0,0-.26-.16.92.92,0,0,0-.46,0,10.33,10.33,0,0,0-1.07.42,21.92,21.92,0,0,1-11.37,1.67l-.55-.11c-2.84-.6-4.45-2.14-4.31-4.14.12-1.72,1.48-3.53,4-5.28a12.64,12.64,0,0,1,2.41-1.36,16.81,16.81,0,0,1,2.68-1.17,21.1,21.1,0,0,1,10.51-1,9.15,9.15,0,0,1,1.7.53c1.16.53,2.42,1.7,2.45,2.35a2,2,0,0,0,.1.39.6.6,0,0,0,.47.31,2.65,2.65,0,0,0,1.92-.45,1.25,1.25,0,0,0,.5-1.13c-.09-2.46-2.24-4.26-5.82-5"/>
				<path class="cls-28" d="M89.11,298.34a12.81,12.81,0,0,0-4.55.2,12.56,12.56,0,0,0-3.28,1.22,6.76,6.76,0,0,0-3.09,2.72,2,2,0,0,0,0,2.11,2.39,2.39,0,0,0,.63.69,4.41,4.41,0,0,0,1.55.64A9.65,9.65,0,0,0,83,306a13.26,13.26,0,0,0,3.66-.77,10.62,10.62,0,0,0,2.61-1.32c.06-.11-.09-.18-2.14-.82a11.85,11.85,0,0,1-2.27-.81.3.3,0,0,1,.07-.25l2.35-1.78c1.23-.88,2.24-1.66,2.28-1.73s0-.13-.33-.2h-.07"/>
				<path class="cls-28" d="M112.81,279.59a69.8,69.8,0,0,0-8.18-.7,38.12,38.12,0,0,0-5.57.3,9.58,9.58,0,0,0-2.22.64c-.64.34-1,.84-.68,1.08a.13.13,0,0,0,.09,0c.11,0,.26-.06.55-.33,1.26-1.16,4.41-1.55,8.68-1.13.58,0,1.43.12,1.94.14a14,14,0,0,1,2.17.25,3.77,3.77,0,0,1,1.49.59c.74.56.32,1.33-1.36,2.33a45.82,45.82,0,0,1-5,2.38,22,22,0,0,1-10.39,1.48l-.76-.13a1.54,1.54,0,0,1-1.13-.81A12.12,12.12,0,0,0,89.65,283a9.56,9.56,0,0,0-3.58-1.68,9.08,9.08,0,0,0-1.78-.19,6.76,6.76,0,0,0-2.52.45A10.82,10.82,0,0,0,77,284.74c-.16.19-.7,1.12-1.23,2.07a16.41,16.41,0,0,1-1.1,1.85,2.83,2.83,0,0,1-.56.19,5.71,5.71,0,0,0-2,.62,2.83,2.83,0,0,0-1,.71,1.18,1.18,0,0,0-.43,1.12,1.26,1.26,0,0,0,1,.68,3.27,3.27,0,0,0,.9.06c1.8-.12,3.58-1.2,3.64-2.19,0-.34,0-.36-.52-.77s-.57-.43-.49-.53,3.66-4.3,4.22-4.91a1.91,1.91,0,0,1,1.77-.46h.07a3.35,3.35,0,0,1,1.87,1.32c1.44,2,1.13,4.3-1,6.4-.23.23-.4.42-.37.44h0a11.92,11.92,0,0,0,1.39-.28,32.25,32.25,0,0,1,12.28-.35c.54.09,1,.17,1.4.26a7.36,7.36,0,0,1,2.53.94,3.74,3.74,0,0,1,2.07,3.67,2.89,2.89,0,0,0,0,.67h0a1.67,1.67,0,0,0,.34-.09,23.71,23.71,0,0,1,7.46-2,13.14,13.14,0,0,1,3.87.2,7.94,7.94,0,0,1,.81.21c.8.26.92.35.8.62-.16.45-1.29,1.14-3.77,2.35-1.67.8-1.71.82-2,.84a2.76,2.76,0,0,1-.52-.06l-.24-.06-.13,0a4.91,4.91,0,0,0-2.32.17c-1.44.46-2.38,1.29-2.33,2,0,.44.45.75,1.06.88a4.27,4.27,0,0,0,1.92-.1c1.52-.39,2.58-1.19,2.69-2a.8.8,0,0,1,.22-.5,9.79,9.79,0,0,1,1.43-.57,30.61,30.61,0,0,0,3.69-1.53c3.54-1.76,4.5-3.45,2.75-4.79a3.08,3.08,0,0,0-1.46-.6c-.73-.19-1.42-.36-2.07-.49a15.45,15.45,0,0,0-6.59-.35,2.65,2.65,0,0,1-1,.14.9.9,0,0,1-.34-.19c-.84-.64-.6-1.75.53-2.55.22-.14,1-.61,1.88-1,3.67-1.91,5.93-3.61,6.49-4.94.43-1-.18-1.7-1.66-2.1l-.14,0"/>
				<path class="cls-28" d="M99.47,281.15a4.84,4.84,0,0,0-3,.56c-1,.5-1.62,1.24-1.47,1.78a1.9,1.9,0,0,0,.89.74l.13,0a4.31,4.31,0,0,0,1.83-.1,4.08,4.08,0,0,0,1.36-.5,2.64,2.64,0,0,0,1.34-1.16c.2-.46.07-.78-.41-1.1a2.2,2.2,0,0,0-.65-.25"/>

	<path class="cls-28" d="M80.5,247.41a22.08,22.08,0,0,0-7.2-.16,31.56,31.56,0,0,0-8.19,2.11,27.65,27.65,0,0,0-5.9,3.24,19.53,19.53,0,0,0-3.12,3,7.57,7.57,0,0,0-1.52,3.6,4.92,4.92,0,0,0,.92,2.83,7.91,7.91,0,0,0,4.42,2.5l.28.07a1.39,1.39,0,0,0,1.1-.08c.24-.14.38-.38.2-.51s-.44-.16-.78-.26c-2.94-.84-4.23-2.67-3.47-5s3.42-4.49,7.08-6.11a23.77,23.77,0,0,1,9.31-2,9,9,0,0,1,2.48.25c.49.08.82.14,1.08.2a4.07,4.07,0,0,1,1.07.35c2.91,1.32,3.52,3.74,1.5,6.37A15.16,15.16,0,0,1,75.84,261c-.21.11-.52.27-.67.37-.75.44-.72,1,0,1.18a1.64,1.64,0,0,0,.4,0,5.46,5.46,0,0,0,2-.64c5.25-2.5,8.58-5.93,8.85-9.08a5.05,5.05,0,0,0-.88-2.86,8.58,8.58,0,0,0-5-2.64"/>
				<path class="cls-28" d="M72.93,254.27l-.62-.11a11.3,11.3,0,0,0-4.85.47,13.33,13.33,0,0,0-3.65,1.68,10.55,10.55,0,0,0-1.15.9c-1.09,1.09-1.4,1.94-1.08,2.92a2.39,2.39,0,0,0,1.51,1.41,3.81,3.81,0,0,0,.81.23,5.39,5.39,0,0,0,1.61.16c.19-.06.3-.19,1.3-1.84a12.89,12.89,0,0,1,1.27-1.92,2.3,2.3,0,0,1,.45-.16l3.18-.12c1.59,0,3-.09,3.12-.13s.21-.12.32-.34a2.11,2.11,0,0,0-.57-2.41,3.6,3.6,0,0,0-1.65-.74"/>
				<path class="cls-28" d="M104.07,242.67c-1.76.61-3.82-.16-6,.75a25.44,25.44,0,0,1-10.39,4.11,3.69,3.69,0,0,0-.78.14s.19.28.56.55c1.73,1.43,2.16,3.6,1.23,6.54a7.21,7.21,0,0,1-1.86,3.15A18.89,18.89,0,0,1,80.56,262c-.6.26-1.13.51-1.16.53s.06.07.17.13c2.35.7,3.34,1.33,3.88,2.52A3.28,3.28,0,0,1,83,268.1c-.41.67-.55.79-1,1-.77.26-2,.19-4.25-.22l-1-.19c-.51-.11-.54-.15-.57-.26a.84.84,0,0,1,.16-.52.85.85,0,0,0-.38-1.25,2,2,0,0,0-.52-.18,5.06,5.06,0,0,0-3.06.5c-1.42.7-2,1.76-1.2,2.29a2,2,0,0,0,.71.29,5.19,5.19,0,0,0,3-.45,3.37,3.37,0,0,1,.88-.27.31.31,0,0,1,.13,0,6.38,6.38,0,0,1,.91.32,12.49,12.49,0,0,0,2.26.72l.57.11A9.7,9.7,0,0,0,88,267.64a3.61,3.61,0,0,0,1-1.3c1.58-3,1.91-4.81,1-5.48-.41-.31-.39-.37,0-.76a7.58,7.58,0,0,1,4.43-1.75c.26,0,1.09.09,1.91.2,1.06.15,2.07.25,3,.29l3-2.58c-.66-.08-1.48-.23-2.2-.38a13.47,13.47,0,0,1-1.46-.38c-2.64-1-3.67-2.58-3.09-4.58.27-.87.32-.95,1.51-1.81a40.39,40.39,0,0,0,4.59-3.77,15.5,15.5,0,0,0,2.36-2.67"/>
				<path class="cls-28" d="M104.39,248.12l-.12,0a5.3,5.3,0,0,0-3.15.62,4.87,4.87,0,0,0-1.24,1.09.76.76,0,0,0,.2,1,1.29,1.29,0,0,0,.57.29l.39.06a4.35,4.35,0,0,0,2.06-.19,4.19,4.19,0,0,0,1.87-1.11c.82-.83.58-1.53-.58-1.77"/>

	</g>
</svg>
