<svg id="Layer_1" data-name="Layer 1" xmlns="http://www.w3.org/2000/svg" xmlns:xlink="http://www.w3.org/1999/xlink" viewBox="0 0 380.11 388.93">
  <defs>
    <style>
      .cls-1 {
        fill: none;
      }

      .cls-2 {
        clip-path: url(#clip-path);
      }

      .cls-3 {
        fill: transparent;
      }

      .cls-4 {
        fill: #ab5bfc;
      }

      .cls-5 {
        fill: #6301f1;
      }

      .cls-12 {
        fill: #7107f1;
      }

      .cls-27 {
        fill: #eedfff;
      }

      .cls-22 {
        fill: #484b4f;
      }

      .cls-7 {
        fill: #5c5f64;
      }
    </style>
    <clipPath id="clip-path">
      <rect class="cls-1" x="-553.05" y="-59.92" width="1000" height="1080"/>
    </clipPath>
  </defs>
  <title>4</title>
  <g class="cls-2">
    <g>
      <path class="cls-3" d="M-552.93,940q0-497.55-.12-995.12c0-4.23,1.08-4.76,4.95-4.76q495.06.16,990.1,0c3.88,0,4.95.53,4.95,4.76q-.19,497.57-.12,995.12a7.62,7.62,0,0,1-5.5,2c-1.84.06-3.67,0-5.5,0q-488.88,0-977.75,0C-545.65,941.93-549.67,942.9-552.93,940Z"/>
      <path class="cls-4" d="M82.19,237.35a10.8,10.8,0,0,1,1.7-8.06c2.77-.29,3.08,2,3.73,3.73,2.66,7,7.76,11.57,14.62,14.12,15,5.59,30.69,8.74,46.55,6.76a45.3,45.3,0,0,1,18.41,1.7c6.11,1.68,12,3.71,16.74,8.41,2.47,2.47,6.2,2.12,9.44,2.78,4.43.9,9,.44,13.43,1.15,1.88.3,3.54-.25,3.62-2.37.09-2.43-2.07-1.7-3.36-1.73a102.19,102.19,0,0,1-39.73-8.68c-3.51-1.57-7-3.32-9.42-6.41-1-1.28-2.43-2.92-.89-4.38,1.28-1.22,2.83.18,4,1,14.2,10.32,30.78,12,47.5,13,4.74.28,4.84-.09,8.46-4.27a44,44,0,0,0-8.42-.26,102.59,102.59,0,0,1-39.51-7.47,32.88,32.88,0,0,1-10.8-7.07,14.32,14.32,0,0,1-2.22-2.69c-.8-1.34-1.56-2.89-.21-4.1s2.52.22,3.36,1.09c5.4,5.64,12.39,8.34,19.6,10.51,13.73,4.12,27.84,4.84,42.06,4.23,2.29-.1,4.11-1.22,5.92-2.43,11.14-7.48,23.84-9.95,36.83-11.51,1.87-.23,3.68,0,5,1.65,14.08.52,27.66,3,39.78,10.75,11.63,7.45,18.47,17.43,16.54,31.93-1.43,9.67-7.22,16.49-15.28,21C283.05,314.68,256,315,229.06,300.8c-9-4.77-16-11.93-18.21-22.58-.61-3-2.25-4.3-5.41-4.65-5-.55-10-.67-14.88-1.61-2.21-.42-4,.08-4.82,2.41-3.85,10.53-12.62,16.12-21.81,20.93-15.07,7.88-31.24,12.06-48.2,13.64a126.11,126.11,0,0,1-20.39-.23,36.26,36.26,0,0,1-15.15-4.63,11.19,11.19,0,0,1-5.4-6.17c-2.31-5.46-1.07-10.27,2.43-14.85,5.21-6.79,12.77-10.39,19.69-14.88.76-2.13,3.06-2.39,5.07-4-3.19-1.67-6.43-2.43-9.2-4.11-3.86-2.33-7.51-4.95-9.72-9-.44-.81-1.06-1.9-.1-2.73s1.87-.11,2.72.36a14.65,14.65,0,0,1,2.7,2.21c5.67,5.26,12.68,7.77,20,9.67,4.85,1.27,8.94-2.3,13.26-2-11.46-1.24-22.63-4.35-32.8-10.62A12.91,12.91,0,0,1,82.19,237.35Z"/>
      <path class="cls-5" d="M268.57,236c-15,.4-29.27,3.35-41.93,11.92-1.37.93-2.54,2-4.4,2.1-18.07.61-35.91-.21-52.86-7.53a36.54,36.54,0,0,1-13.12-9.35c1,4,4.08,6.23,7.19,8.26,9.14,6,19.59,7.95,30.13,9.72,8.74,1.47,17.55.77,26.7,1.11-2.77,5.52-6.13,8.59-12.75,7.93-12.27-1.24-24.5-2.23-36.07-7a46.59,46.59,0,0,1-14-8.49c1.31,3.57,4.14,5.6,7.27,7.31,13.65,7.44,28.53,9.57,43.79,10.18,1.43.06,4.75-1.89,4.39,1.69-.27,2.69-.15,6.76-5.19,6-3.62-.51-7.33-.35-10.92-.93-6.22-1-12.54-1-17.5-6.59-3.76-4.26-10-4.88-15.64-5.78-2.86-.47-5.48-1-6.78-3.87-1.68.65,1.18,2.86-1.49,3-19.26,1-38.24-.1-56.13-8.17-6.72-3-12.19-7.49-13.48-15.49-.16-1-1.24-1.89-1.9-2.82-3.31-6.78-1.51-14-1.69-21,1.4-.18,2.14.83,2.83,1.72,6.11,7.8,14.63,11.28,23.89,13.46,13.5,3.18,27.09,5.31,38.69,3.77-9.85,1.24-21.82.1-33.61-3.12a56.57,56.57,0,0,1-17.32-7.56,20.34,20.34,0,0,1-9-13.87c-.24-1.4-.53-2.76,1-3.49,1.66-.81,2.3.72,3.1,1.72,4.89,6.69,12.15,9.67,19.61,12.1,8.19,2.67,16.63,4.31,23.18,4.37-10.08-.62-21.94-2.79-32.93-8.44a25.72,25.72,0,0,1-9.34-7.31c-1.3-2.25-3.64-3.88-4.06-6.67-4.88-4.41-7.1-9.78-6.24-16.42a11.43,11.43,0,0,0-2.51-9.22c-2.22-2.7-2-6.19-1.62-9.54A2.78,2.78,0,0,1,80.45,161c9.88,10.89,23.43,13.2,36.89,15.6a91.19,91.19,0,0,0,22.38,1c13.78-1,27.42-2.71,39.92-9.43,3.33-1.79,5.88-4.3,8.5-6.84,2.25-2.18,3.52-1.3,4.06,1.31.82,3.94-.69,7.27-3.33,10-4.49,4.69-9.88,8-16.42,8.72a44.32,44.32,0,0,0-11.68,2.38c-20.13,7.93-40,4-57.22.22,7.63,2.4,18.31,3.68,29.12,4.15a5.65,5.65,0,0,1,1.49,0c2.37.89,6.27-.94,6.76,3.25.3,2.59-4.55,6.46-7.7,6.7-7.2.56-14.29-.82-21.17-2.32-8.21-1.78-16.41-4.29-21.48-8.35,7.5,5.24,18.13,8.13,29.18,9.62,4.09.55,8.16,1.56,12.36,1.1,2.22-.24,3.38,1,3.77,3.13,1.3,7,6.46,10.63,12.26,13.51,7.53,3.74,15.62,5.67,23.9,7a118.19,118.19,0,0,0,53.83-3.69c7.07-2.19,13.81-5,18.58-11.07.79-1,1.83-2.32,3.29-1.73s1.5,2.11,1.57,3.46c.17,3.13-1,5.84-3,8.87,9.31-2.24,17.21-5.77,23-13.21,2.53-3.24,5.52-3,6.9.3a3.22,3.22,0,0,1,0,2.87c-5.34,10.57-14,16.71-25.28,19.9-12.11,3.44-24.38,4.85-32.87,4.36,12.24.14,28.31-1.22,43.81-6.72,6.2-2.2,11.88-5.24,16.07-10.55.73-.91,1.55-1.78,2.89-1.68,1.29,7.57-2.07,12.85-8.37,16.5C269.75,230.93,268,232.73,268.57,236Z"/>
      <path class="cls-4" d="M280.8,212.87c-3.77,7.35-10.48,11-17.77,13.61-17.18,6.24-34.89,7.59-53,5,8.65-.77,17.36-1.21,26-2.39,9.91-1.37,19.61-3.74,28.13-9.43,4.41-2.95,8-6.46,8.63-12.16.45-4,1.77,0,2.9-.29.05-2-1.24-3.19-3-4.57C266,214,254.82,217.48,242,220.37c3.78-4.64,7.24-8.52,5.54-14.36-10,13.34-25.07,15.6-39.77,17.8a116.79,116.79,0,0,1-50.82-3.67A51.12,51.12,0,0,1,141.6,213c-3.62-2.58-6.84-5.71-7.16-10.33-.22-3.3-1.69-3.41-4.3-3.57-13.72-.81-27.09-3.1-39.14-10.32-2.8-1.68-5.34-3.66-6.65-6.93,11.8,10.57,26.5,13,41.31,15.1,6.11.88,11.64.56,14.6-6.8-14.77-1.26-29.74-1.55-43.34-8.45,6.23,1,12.27,2.85,18.55,3.72,10.93,1.51,21.93,2.18,32.77.48,7.3-1.14,14.13-5,21.62-5.61a28.07,28.07,0,0,0,15.79-6.7c3.91-3.16,6.43-7,4.9-12.78-9.82,11.83-23.49,14.9-37.34,17-19.15,2.84-38.15,1.83-56.64-4.55-7.56-2.61-14.16-6.56-18.7-13.39v-1.57c1.32-.68,2.31.08,3.09.9,9.8,10.43,22.87,13,36.13,15.06,15,2.3,29.87,1.22,44.64-1.88,9.6-2,18.54-5.34,25.59-12.59,1.23-1.27,2.67-2.68,4.77-1.43,2.64,3.2,4.34,6.69,3.44,11a10.55,10.55,0,0,1-3.55,7.17c1.91-.52,2.8-1.53,4-1.58,2.54,2.18,5.42,2.56,8.76,2.37,14.68-.85,29.33-.59,43.56,3.73,9.62,2.92,19.19,6,24.16,16.07.47.95,1.71,1.54,2.6,2.29C279.29,202.87,281.77,207.13,280.8,212.87Z"/>
      <path class="cls-4" d="M59.36,129.29c-1.57-5.63.62-10.06,4.51-13.92,6.69-6.64,15.12-10.24,23.87-12.94,20-6.15,40.31-8.22,61-4.11,7.85,1.57,15.53,3.86,21,10.41,1.82,2.18,4.55,1.76,6.88,2.25,10,2.1,19.67,5,28,11.1,4.79,3.48,8.21,7.83,6.94,14.34-.08,3.63-2,6.16-4.65,8.44-5.36,4.67-12,6.48-18.55,8.25-19.22,5.17-38.53,4.58-57.83.35a12.43,12.43,0,0,1-1.92-.55c-1.38-.56-3.1-1-3-2.84s1.8-2.27,3.25-2.52a106.31,106.31,0,0,0,17.78-5c5.82-2.1,11.47-4.52,16.41-8.33,3.6-2.77,6.8-5.87,7.93-11.06-15.31,15.33-34.6,19.31-54.61,21.72-13.93,1.68-27.6,1-41-3-6.23-1.88-12.43-4.09-15.52-10.68A5.87,5.87,0,0,1,59.36,129.29Z"/>
      <path class="cls-5" d="M59.36,129.29c3.45,5.82,9,8.82,15.12,10.75,15.4,4.85,31.12,4.86,46.93,2.71,11.6-1.59,22.86-4.45,33.43-9.62,6.82-3.34,12.83-7.65,16.93-15.13,2.14,5.91.22,10.11-3.29,13.7-9.24,9.46-21.47,13-33.69,16.33-2.67.74-5.44,1.11-9.2,1.85,5.49,2.77,10.59,3.29,15.46,3.9,18.68,2.35,37.19,1.84,55.12-4.78,6.56-2.42,12.31-5.88,15.4-12.58,1.18,8-2.39,13.44-9.16,17.06-3.34,1.79-6.88,3.22-10.32,4.81-.61.25-1.42.33-1.8.78-9.75,11.59-23.47,14.6-37.33,16.64a121.91,121.91,0,0,1-52.31-3.23c-9-2.6-16.9-6.75-22.78-14.25.89-6.75-1-11-8.39-13.22C62.56,142.89,58.79,137.08,59.36,129.29Z"/>
      <path class="cls-7" d="M311.74,303c2.43.42,3.72,1.5,1.14,3.34-4.8,3.44-9.73,6.45-15.58,8.22-12.09,3.66-24.2,7.06-36.73,8.72-11,1.45-22,3.29-33,3.58-15.94.43-31.89,2.25-47.84,1.11-17.17-1.24-34.4-1.24-51.53-3.67-12.65-1.8-25.21-3.7-37.49-7.26-4.91-1.42-6.72-2.78-7.53-6.09,1.22-.9,2.53-.6,3.82-.25,18.58,5.18,36.82,2.37,55-2.41,2.71-.71,5.34-2,8.25-1,8,3.08,16.61,3.38,25,3.68,18.27.65,36.58.72,54.7-2.57,1.17-.22,2.2-.75,3.32-1,3.32-.45,6,1.57,9,2.41a145.21,145.21,0,0,0,18.92,4,34.09,34.09,0,0,0,15.24.09,75,75,0,0,0,30.33-9.67C308.22,303.38,309.77,302.27,311.74,303Z"/>
      <path class="cls-5" d="M261,315.48a88.43,88.43,0,0,1-27.24-7.17c-3.21,1-5.57-.81-7.59-2.72-4.18-3.95-9-5-14.63-4.9a103.38,103.38,0,0,1-29.65-3.38A11.29,11.29,0,0,0,172,299c-4.84,3.26-10.2,5.62-15.5,8-2.06.93-4.18,2.25-6.64,1.1-16.82,5-33.86,8.21-51.56,6.87-5.37-.41-10.23-2.2-15.17-3.95-4.82-3.06-8.6-6.79-8.36-13.08a26.86,26.86,0,0,0,15.08,8.17c17.38,3.44,34.38,1.15,51.19-3.58,10.63-3,20.79-7.05,29.94-13.37,6.44-4.44,12.16-9.42,13.68-17.63.33-1.77,1.08-2,2.74-1.77a167.84,167.84,0,0,0,21.8,2.29c2,.07,2.43,1.17,2.61,2.9,1.26,12,8.8,19.73,18.69,24.87,25,13,50.47,12.87,75.67.15,9-4.52,15.05-11.87,18.7-21.23.47,10.73-5.67,17.89-13.15,24.33-10.74,6.74-22.23,11.37-35,12.36C271.51,315.77,266.28,315.62,261,315.48Z"/>
      <path class="cls-5" d="M82.19,237.35c4.67,10.85,15,13.5,24.73,16.66a70.25,70.25,0,0,0,20.68,3.31c-15,6.82-25.95,7.78-43.87-8.52,1.81,5.28,2.77,5.95,22.12,15.29-2.77,2.21-5.94,3-8.94,4.09-2.57-1.52-5.24-2.88-7.68-4.58-5-3.43-7.78-8-7.27-14.31C82.27,245.33,82.13,241.33,82.19,237.35Z"/>
      <path class="cls-4" d="M88.24,195c2.51,1.27,2.93,3.81,3.71,6.12l-.07.07c-1.19,0-1.57-2.72-3.22-1-1.17,1.19.7,1.5.77,2,2.09,14.06,13.76,16.56,24.35,20.12,11.15,3.75,22.77,4.31,34.45,4.08,1.86,0,4-.75,6.28,1.43-4.91.44-9.19,1.18-13.47,1.14-15.17-.13-30.18-1.56-44.29-7.73-6.19-2.71-11.65-6.39-14.55-12.88C81.14,202.46,84.43,198.59,88.24,195Z"/>
      <path class="cls-5" d="M196,174.88c-.93,3.56-3.24,4-6.88,2.78a30.22,30.22,0,0,0,6.43-8.37Z"/>
      <path class="cls-12" d="M217.3,267c1.55-7.43,6.49-12.55,12.32-16.68,20.75-14.72,55.73-15.14,76.63-.78,6.13,4.22,11.52,9.53,13.28,17.44-9.31-17.26-25.56-22.84-43.26-24.63s-34.87,1.14-49.48,12.76C222.7,258.4,220.13,262.8,217.3,267Z"/>
      <path class="cls-12" d="M77.91,291.73c.45-7.61,5.92-11.87,11.39-15.8,13.69-9.86,29.47-14.33,45.9-16.84a85,85,0,0,1,27.8,0c5,.88,9.78,2.36,13.34,6.44-17.75-8.1-35.77-6-53.64-1.32C105.12,268.79,87.93,274.44,77.91,291.73Z"/>
      <path class="cls-4" d="M161.76,229.65c12.32.43,23.78,5,35.62,8s24.06,2.67,37.5,2.46C208.21,245.64,171.22,240.52,161.76,229.65Z"/>
      <path class="cls-4" d="M154.29,236.62c-23,4.21-61.32-.28-70.35-16C105,237.66,129.78,236.38,154.29,236.62Z"/>
      <path class="cls-4" d="M92,201.09c13,11.89,29.8,13.73,46.39,16-.14.59-.29,1.19-.43,1.78-4.72-.59-9.48-1-14.17-1.82-9.38-1.63-18.49-4.16-26.44-9.73-2.29-1.6-4.75-3.13-5.42-6.18Z"/>
      <path class="cls-5" d="M106,242.48c6.51.82,12.92,2.25,19.48,2.92a125,125,0,0,0,25.8.1c1.24-.13,2.87-.88,3.25,1,.26,1.31-1.05,1.5-2,1.53C136.74,248.59,121.07,248.2,106,242.48Z"/>
      <path class="cls-12" d="M139.89,198.43c1-3.84,3.76-5.71,6.43-7.52,8.93-6.08,19.23-8.17,29.65-9.54,17-2.25,33.86-1.15,50.17,4.68,6.17,2.2,11.9,5.1,15.47,11.16-15-12-32.68-14.13-50.82-14S154.93,185.3,139.89,198.43Z"/>
      <path class="cls-12" d="M267.46,198.05c-9.46-11.65-23.07-13.79-36.65-15.9-6.84-1.06-13.85-.63-20.75-2.44C230,176.15,266.34,184.93,267.46,198.05Z"/>
      <path class="cls-12" d="M166.29,112.38c-7.56-8.43-18-10-28.16-10.92-19.08-1.69-37.84.41-55.7,7.91-9.45,4-13.2,7.07-19.16,15.56,1.19-7.53,6.18-11.1,11.38-14.12,12.26-7.12,25.72-10.34,39.77-11.84A100.82,100.82,0,0,1,150,101.13C158.44,103.25,162.71,106.12,166.29,112.38Z"/>
      <path class="cls-12" d="M206.6,131c-8.17-9.73-19.58-12.79-31-15.75-1.26-.32-3.74.4-3.32-1.82s2.45-.75,3.72-.47c9,2,17.7,4.47,25.13,10.23A14.56,14.56,0,0,1,206.6,131Z"/>
      <path class="cls-4" d="M173.69,162.14a74.36,74.36,0,0,1-27.59,6.74c-17,1.11-34,.47-50.22-5.64C89.22,160.73,83,157.5,79.3,151c13.83,13.09,31.4,14.89,49,16a117.47,117.47,0,0,0,40.48-4.45,13.52,13.52,0,0,1,2.45-.43C172.05,162.08,172.87,162.14,173.69,162.14Z"/>
      <path class="cls-4" d="M92.43,152.06c12.72-3.77,22.59,3.19,33.22,6.67A85.61,85.61,0,0,1,92.43,152.06Z"/>
      <path class="cls-22" d="M149.88,308.07c8.62-3.89,17.54-7.21,25.15-13.06,1.19-.92,2.43-.58,3.78-.2A121.94,121.94,0,0,0,216.88,299a9.17,9.17,0,0,1,6.7,2.51c3.13,2.63,6.16,5.55,10.22,6.84-4.28,3.07-9.5,2.95-14.27,3.48a245.34,245.34,0,0,1-51.12.43c-4.11-.4-8.23-.7-12.34-1.15C153.68,310.82,151,311.1,149.88,308.07Z"/>
      <path class="cls-3" d="M261,315.48l15.7-.08A38.44,38.44,0,0,1,261,315.48Z"/>
      <path class="cls-4" d="M214,290.2c-10.43,1.35-20.69,1-30.65-2.79C193.56,288,203.72,289.47,214,290.2Z"/>
      <path class="cls-4" d="M208.46,281.83c-6.62-.62-12.9-1.19-19.17-1.83-1.23-.13-3.16-.1-2.69-2,.34-1.34,2-.67,3.06-.44A81.67,81.67,0,0,0,208,279.21c1.29,0,3.23-.17,3.26,1.44C211.28,282.65,209.28,281.69,208.46,281.83Z"/>

          <path class="cls-27" d="M116.48,118.33l-.22-.12a23,23,0,0,0-5-1.78A31.59,31.59,0,0,0,94,117.78a16,16,0,0,0-6,3.73,5.25,5.25,0,0,0-1.13,6.86,10,10,0,0,0,3.25,2.86l.17.1a23.57,23.57,0,0,0,5,1.74,30,30,0,0,0,8.36.56c1.07-.07,1.41-.16,1.51-.38a.27.27,0,0,0-.17-.32.72.72,0,0,0-.33-.1c-.15,0-.72,0-1.22,0A18.45,18.45,0,0,1,93.59,131a10.41,10.41,0,0,1-1-.65c-2.28-1.75-2.59-4.1-.85-6.25,1.41-1.73,3.93-3.1,7.33-4a15.31,15.31,0,0,1,3.07-.51,20,20,0,0,1,11.44,1.78,6.61,6.61,0,0,1,2.33,2.12,3.94,3.94,0,0,1,.27,3.36,2.88,2.88,0,0,0-.21.44c-.09.24.05.46.32.62a2.51,2.51,0,0,0,1.79.14,2.34,2.34,0,0,0,1.28-1c2.18-3.14,1.07-6.41-2.9-8.7"/>
          <path class="cls-27" d="M109.75,124a10.41,10.41,0,0,0-3.43-1.12,12.62,12.62,0,0,0-3.68,0A10.18,10.18,0,0,0,98,124.59a3.56,3.56,0,0,0-1.63,2.18,2.51,2.51,0,0,0,0,1,3,3,0,0,0,1.48,1.72,8.72,8.72,0,0,0,1.45.63,11.15,11.15,0,0,0,3.66.59,13.16,13.16,0,0,0,3.2-.39c.13-.1,0-.22-1.19-1.66a7.94,7.94,0,0,1-1.29-1.69.68.68,0,0,1,.26-.24l3.32-1c1.7-.45,3.15-.88,3.24-.94s.07-.14-.13-.33a3.89,3.89,0,0,0-.6-.42"/>
          <path class="cls-27" d="M140.83,111.54c-.93-.54-1.89-1.06-2.7-1.46a27,27,0,0,0-4.9-1.79,9.4,9.4,0,0,0-2.35-.18c-.79.12-1.47.51-1.4.87a.15.15,0,0,0,.06.09c.09.05.28,0,.7-.15,1.8-.66,4.45,0,7.42,1.66l.73.44,1.05.62.48.26c.13.07.26.14.38.22,1.25.72,1.91,1.4,2,2,.19.88-.75,1.51-2.92,1.91a51.14,51.14,0,0,1-6,.6c-3.88,0-6.92-.65-9.09-1.9-.26-.16-.52-.32-.76-.49-.91-.68-1-.76-.88-1.69a10.25,10.25,0,0,0-.29-3.91,5.49,5.49,0,0,0-2.58-3.72l-.49-.25a5.68,5.68,0,0,0-2.46-.48,14.15,14.15,0,0,0-6.44,1.49c-.28.13-1.45.9-2.61,1.69s-2.19,1.46-2.33,1.5a2.67,2.67,0,0,1-.63,0,5.18,5.18,0,0,0-2.12-.1,3.63,3.63,0,0,0-1.41.34,2.23,2.23,0,0,0-1.22,1c-.19.47.08,1,.64,1.3a2.43,2.43,0,0,0,.4.18c1.62.56,3.93.11,4.73-.9.28-.34.27-.37.14-1s-.14-.67,0-.73,6.35-3.09,7.28-3.51a1.78,1.78,0,0,1,1.65.06l.19.12a2.36,2.36,0,0,1,.61,2.12c-.34,2.67-2.31,4.89-5.7,6.28a2,2,0,0,0-.65.31h0a10.39,10.39,0,0,0,1.38.23,22.31,22.31,0,0,1,10.57,4.28,5.83,5.83,0,0,1,2.39,2.73,4.42,4.42,0,0,1-1,4.59,4.91,4.91,0,0,0-.51.69h0a1.63,1.63,0,0,0,.35,0,21.4,21.4,0,0,1,7.79.72,8.76,8.76,0,0,1,1.89.81,6.51,6.51,0,0,1,1.73,1.39c.48.57.51.7.2.95-.48.39-1.95.69-5,1-2,.2-2,.21-2.33.11a.38.38,0,0,1-.13-.06,1.82,1.82,0,0,1-.42-.35,1.92,1.92,0,0,0-.41-.31,3.89,3.89,0,0,0-1.76-.47c-1.56-.06-3,.44-3.48,1.21-.37.57-.12,1.15.54,1.53a3.57,3.57,0,0,0,1.37.41,4.57,4.57,0,0,0,3.81-1.12,1.45,1.45,0,0,1,.57-.43,10.2,10.2,0,0,1,1.63-.05,31.23,31.23,0,0,0,4.26-.2c4.31-.48,6.4-1.88,6-3.93-.1-.46-.17-.56-.77-1.18a19.11,19.11,0,0,0-3.89-3.15,7.18,7.18,0,0,0-2.75-1,2.4,2.4,0,0,1-.84-.17c-.13-.08-.16-.18-.2-.37-.21-1,.83-2,2.38-2.45.3-.06,1.34-.23,2.38-.38,4.54-.59,7.72-1.5,9.21-2.67a1.68,1.68,0,0,0,.21-2.81,27.27,27.27,0,0,0-3.74-2.44"/>
          <path class="cls-27" d="M131.8,110.28a4.57,4.57,0,0,0-2.67-.37,3.35,3.35,0,0,0-2.6,1.3,1.54,1.54,0,0,0,.19,1.11,1.69,1.69,0,0,0,.36.27,3.6,3.6,0,0,0,1.33.4,4.14,4.14,0,0,0,1.53,0,3.89,3.89,0,0,0,2-.7,1.06,1.06,0,0,0,.49-1.3,1.36,1.36,0,0,0-.63-.7"/>

          <path class="cls-27" d="M203.74,202l-.22-.12c-4.29-2.27-10.27-3-15.8-1.89a25.16,25.16,0,0,0-5.05,1.69c-4.34,2.21-6.29,5.44-5.17,8.66a8.35,8.35,0,0,0,3.55,4.25c.25.17.51.33.78.49a19.53,19.53,0,0,0,4.78,1.89,32.91,32.91,0,0,0,5.2.75,29.44,29.44,0,0,0,6.31-.49,25.34,25.34,0,0,0,5-1.69,11,11,0,0,0,4.49-3.74c.3-.47.33-.68.1-.81l-.08,0a1,1,0,0,0-.9.08,4.12,4.12,0,0,0-.47.58c-1.55,2.16-4.79,3.69-8.83,4.13a18.09,18.09,0,0,1-10.52-1.92l-.08,0c-2.25-1.33-3.4-3-3.39-5,0-.53,0-.66.48-1.64a4,4,0,0,1,1-1.55c2.4-2.33,6.66-3.67,11.25-3.47a19.85,19.85,0,0,1,5.63,1.15,6.27,6.27,0,0,0,.63.27c.9.34,2.19-.07,2.16-.71,0-.25-.28-.52-.86-.85"/>
          <path class="cls-27" d="M196,205.23c-.11-.06-.21-.07-.57,0a10.25,10.25,0,0,0-4.25,1.32,3.48,3.48,0,0,0-1.54,1.74,2.46,2.46,0,0,0,.72,2.83,5.59,5.59,0,0,0,1.14.86,8.45,8.45,0,0,0,1.75.74,13.29,13.29,0,0,0,1.55.35,10.58,10.58,0,0,0,5.11-.48,6,6,0,0,0,2.52-1.51c.47-.48.9-1.49.73-1.65l0,0a15.78,15.78,0,0,0-3.18,0c-1.93,0-3.22,0-3.34,0l-.09-.05a.6.6,0,0,1-.19-.16c0-.08-.07-.95-.14-1.93a8,8,0,0,0-.17-1.88l0,0"/>
          <path class="cls-27" d="M216.54,194.05a8.3,8.3,0,0,0-2.87-.9,8.51,8.51,0,0,0-2.26-.08c-5.32.22-8.42.73-9.63,1.56a1.31,1.31,0,0,1-1.32.28,5.34,5.34,0,0,1-1.88-.64c-.69-.39-1.12-.9-1.12-1.41a7,7,0,0,1,.4-1.26c1-2.37.83-4.22-.45-5.37a3.76,3.76,0,0,0-.58-.42,7.55,7.55,0,0,0-3.94-.74,84.06,84.06,0,0,0-9.15,1.56,30.39,30.39,0,0,0-5,1.63,3.35,3.35,0,0,0-1.29,1,.72.72,0,0,0,.39.84,1.36,1.36,0,0,0,.43.15c.27,0,.35,0,.23-.38-.35-1.19,2.18-2.28,6.93-3,.63-.13,1.57-.28,2.09-.39a13.54,13.54,0,0,1,4.74-.3,3.45,3.45,0,0,1,1.2.39,1.4,1.4,0,0,1,.67,1.71,9.88,9.88,0,0,1-1.57,3,12.67,12.67,0,0,1-8.11,3.74,5.83,5.83,0,0,1-3.15-.22,55.35,55.35,0,0,0-6.54-1.35c-3.58-.52-5.82-.54-7.82-.06a3.63,3.63,0,0,0-1.85,1,2.8,2.8,0,0,0-.3,3.6,21.11,21.11,0,0,0,1.65,1.88,14.06,14.06,0,0,1,1.46,1.67.76.76,0,0,1-.28.29c-.77.4-.87.52-1.08,1a.73.73,0,0,0,0,.8,1.67,1.67,0,0,0,.74.75,3,3,0,0,0,.4.2,4.65,4.65,0,0,0,2.88.07c1.6-.55,1.85-1.81.54-2.57l-.1-.06a3.44,3.44,0,0,0-1.46-.39,5.34,5.34,0,0,1-1.17-.23s0,0,0,0-2.34-4.16-2.63-4.76c-.19-.42.18-.69,1.08-.8a11.93,11.93,0,0,1,3.73.51,20.51,20.51,0,0,1,4.71,1.88,6.85,6.85,0,0,1,3.14,3.2,1.31,1.31,0,0,0,.22.42h0a4.8,4.8,0,0,0,1-.56c2.54-1.64,6.38-2.78,11.53-3.37a22.36,22.36,0,0,1,5.5-.09,17.55,17.55,0,0,1,6.93,2.15l.15.09.34.2.56.31c.05,0,.13-.07.22-.16a8.9,8.9,0,0,1,4.52-3.4,15.42,15.42,0,0,1,5.14-.87,3.32,3.32,0,0,1,1.5.14l.15.12c.45.37.31,1.18-.47,2.72-.53,1-.53,1.05-.82,1.14a3.55,3.55,0,0,1-.92.1,3.72,3.72,0,0,0-2.2.73c-.73.68-.57,1.49.35,2l.15.08a4.33,4.33,0,0,0,4-.16c.95-.68.88-1.55-.2-2.22-.29-.19-.46-.35-.46-.44a2.52,2.52,0,0,1,.6-.78,7.21,7.21,0,0,0,1.51-2.09,2.36,2.36,0,0,0-1-3.4"/>
          <path class="cls-27" d="M184.32,190.09a4,4,0,0,0-1.52-.43c-1.5-.18-2.77.28-3.18,1.15a1.22,1.22,0,0,0,.7,1.56,1.77,1.77,0,0,0,.31.15,7.28,7.28,0,0,0,1.9.33,3.41,3.41,0,0,0,1.83-.54c.43-.29.51-.36.64-.73a.93.93,0,0,0-.3-1.2,2.24,2.24,0,0,0-.38-.29"/>

          <path class="cls-27" d="M284.56,269.25l-.29-.07A25.49,25.49,0,0,0,264.64,273a20.48,20.48,0,0,0-4.27,4.48A11.25,11.25,0,0,0,262,292a18,18,0,0,0,7.73,4.58c.43.13.86.25,1.3.36a26.15,26.15,0,0,0,7.11.73,34.43,34.43,0,0,0,6.56-1.08,24.65,24.65,0,0,0,6.75-3.3,20,20,0,0,0,4.22-4.47,11.57,11.57,0,0,0,1.85-7.17c-.06-.8-.21-1.1-.58-1.2l-.14,0a1,1,0,0,0-1,.48,5.37,5.37,0,0,0,0,1c.12,3.71-2.25,7.23-6.46,9.51A19.52,19.52,0,0,1,275.75,293l-.13,0a13.07,13.07,0,0,1-8.19-5.68,5.2,5.2,0,0,1-.87-2.52,5.9,5.9,0,0,1-.2-2.64c.69-4.3,4.38-8,9.78-9.56a21.51,21.51,0,0,1,7.4-.69c.3,0,.73.11,1,.11,1.31.11,2.43-1,1.83-1.89a2.88,2.88,0,0,0-1.77-.88"/>
          <path class="cls-27" d="M278.58,277c-.16,0-.29,0-.67.16a8.44,8.44,0,0,0-3.7,3.63,4.37,4.37,0,0,0-.23,3.12,5.8,5.8,0,0,0,3.29,3.72,10.1,10.1,0,0,0,2.06.76,11.42,11.42,0,0,0,2.6.32,13.87,13.87,0,0,0,2.08-.13,9,9,0,0,0,5.39-2.8,5.46,5.46,0,0,0,1.56-3.18,4.16,4.16,0,0,0-.61-2.66l-.06,0c-.21-.05-.72.13-3.66,1.25a32.3,32.3,0,0,1-3.82,1.33l-.13,0a1.2,1.2,0,0,1-.37-.15l-1.85-2.7a19,19,0,0,0-1.83-2.61h-.05"/>
          <path class="cls-27" d="M292.23,252.63a10.54,10.54,0,0,0-4-.09,7.83,7.83,0,0,0-2.64.8c-5.85,2.53-8.95,4.52-9.59,6.2-.31.78-.42.84-1.27,1a7.3,7.3,0,0,1-2.69-.13,4.11,4.11,0,0,1-2.51-1.56,18.38,18.38,0,0,1-.65-2c-.94-3.76-2.71-6.33-5.16-7.44a6.18,6.18,0,0,0-1-.36,8.34,8.34,0,0,0-5.14.58,68.22,68.22,0,0,0-9,6,23.59,23.59,0,0,0-4.29,4.39,3.53,3.53,0,0,0-.59,2,1.69,1.69,0,0,0,1.81,1.06c.34,0,.37-.18-.08-.63-1.42-1.54.5-4.14,5.24-7.19.62-.43,1.54-1,2.05-1.41a11.74,11.74,0,0,1,5.12-2.38,4.58,4.58,0,0,1,1.71.05,3.28,3.28,0,0,1,2.26,2.17,16.17,16.17,0,0,1,.85,5c-.34,3.7-2.37,6.6-6,8.67a5.61,5.61,0,0,1-3.77,1,59.13,59.13,0,0,0-8.61.78c-4.53.74-7.1,1.63-8.95,3.14a3.14,3.14,0,0,0-1.25,2.16,5.92,5.92,0,0,0,2.79,5.25c.28.22,1.86,1.11,3.5,2a31.7,31.7,0,0,1,3.12,1.78.75.75,0,0,1-.07.52,2,2,0,0,0-.39,1.82,1.63,1.63,0,0,0,.66,1.15,3.43,3.43,0,0,0,1.49.77c.19,0,.4.08.62.12a4.33,4.33,0,0,0,3.34-1.09c1.34-1.43.54-3.33-1.62-3.88l-.15,0a4,4,0,0,0-2,.06,6,6,0,0,1-1.52.14.19.19,0,0,1-.09,0c-.15-.11-6.29-5-7.15-5.69-.58-.52-.4-1.06.55-1.58a11.56,11.56,0,0,1,4.69-.81,27.54,27.54,0,0,1,7,.73,13.76,13.76,0,0,1,6.35,3.24,2.06,2.06,0,0,0,.62.51h0a4.17,4.17,0,0,0,.62-1.21c1.47-3.39,4.84-6.58,10.2-9.54a19.41,19.41,0,0,1,6.17-2.4,21.56,21.56,0,0,1,9.76.2l.24.06.38.1a8.88,8.88,0,0,0,1.09.24c.06,0,.09-.14.11-.31,0-3,.49-4.7,2.18-6.7a12.75,12.75,0,0,1,5.1-3.36c1.05-.4,1.44-.5,1.82-.41l.28.1c.83.35,1.37,1.56,1.83,4.06.29,1.68.3,1.72.06,2a3.19,3.19,0,0,1-.95.53,3,3,0,0,0-1.88,1.94c-.23,1.26.66,2.35,2.17,2.73l.23.05c1.89.37,3.93-.53,4.4-1.89s-.36-2.56-2.16-3.07a1.92,1.92,0,0,1-.9-.42,3.29,3.29,0,0,1,0-1.37,10.6,10.6,0,0,0-.1-3.59,5.37,5.37,0,0,0-4.15-4.42"/>
          <path class="cls-27" d="M252.14,260.3a4.84,4.84,0,0,0-2.11,0c-1.86.35-2.9,1.54-2.61,2.95a2.77,2.77,0,0,0,2.16,1.93,3.86,3.86,0,0,0,.49.09,8.49,8.49,0,0,0,2.45-.31,2.92,2.92,0,0,0,1.61-1.53,1.44,1.44,0,0,0,.08-1.29,2.17,2.17,0,0,0-1.38-1.6,3.83,3.83,0,0,0-.69-.25"/>

          <path class="cls-27" d="M123.7,279.62a33.84,33.84,0,0,0-16.44,5.87,13.76,13.76,0,0,0-4.5,4.9,5.15,5.15,0,0,0-.4,3.94,6.42,6.42,0,0,0,1.94,2.37,12.18,12.18,0,0,0,4.51,1.66,28.31,28.31,0,0,0,5.61.18h.16a34.81,34.81,0,0,0,8.34-1.78c1-.35,1.33-.52,1.34-.74s-.22-.27-.54-.24h-.12c-.15,0-.7.2-1.19.36a26.27,26.27,0,0,1-5.68,1.18,16.14,16.14,0,0,1-6-.49c-2.93-.91-4.14-2.89-3.24-5.24.73-1.91,2.7-3.79,5.72-5.49a15,15,0,0,1,2.84-1.27,18.65,18.65,0,0,1,3-1,27.06,27.06,0,0,1,4.15-.7c3.35-.3,6.21.17,7.94,1.4,1,.71,1.77,2.14,1.56,2.87a2.43,2.43,0,0,0,0,.45c0,.36.53.52,1.16.47a3.09,3.09,0,0,0,1.22-.38,2,2,0,0,0,.88-1.21c1-3.41-1.49-6-6.47-6.89a28.58,28.58,0,0,0-5.63-.21l-.15,0"/>
          <path class="cls-27" d="M122,286.56l-.59.07a13.8,13.8,0,0,0-3.64,1,9.63,9.63,0,0,0-4,2.72,2.81,2.81,0,0,0-.77,2.35,2.4,2.4,0,0,0,.36.83c.75.85,1.87,1.22,3.81,1.27a13.76,13.76,0,0,0,1.44-.05,13.94,13.94,0,0,0,2.4-.43,13.19,13.19,0,0,0,3-1.21c.1-.12,0-.2-1.81-1.13a9.53,9.53,0,0,1-1.93-1.14.63.63,0,0,1,.16-.28l2.93-1.74c1.5-.85,2.76-1.62,2.83-1.7s0-.14-.25-.25a10.18,10.18,0,0,0-4-.33"/>
          <path class="cls-27" d="M126.15,267.11a8.45,8.45,0,0,0-1.42.26,14.1,14.1,0,0,0-5.79,3.06c-.23.19-1.09,1.17-1.93,2.18a25.74,25.74,0,0,1-1.74,2,3,3,0,0,1-.61.15,6.2,6.2,0,0,0-2.14.49,3.74,3.74,0,0,0-1.27.69,1.73,1.73,0,0,0-.81,1.21c0,.57.66,1,1.6,1a3.54,3.54,0,0,0,.56,0c1.66-.14,3.4-1.06,3.76-2.06.15-.38.14-.4-.24-.9s-.39-.55-.28-.65,5.09-4.43,5.85-5.05a2,2,0,0,1,1.06-.43,2.22,2.22,0,0,1,.83.1A2.39,2.39,0,0,1,125,270.8c.69,2.44-.41,4.92-3.23,7.06a2.41,2.41,0,0,0-.52.44.65.65,0,0,0,.24,0c.25,0,.7-.07,1.22-.15s1.12-.15,1.68-.2A27.52,27.52,0,0,1,134.81,279a7,7,0,0,1,3.41,1.74,3.73,3.73,0,0,1,.73,4.31,3.93,3.93,0,0,0-.24.75h0a1.77,1.77,0,0,0,.33-.07,28.59,28.59,0,0,1,6.24-1.41c.58-.05,1.15-.07,1.75-.08a9.92,9.92,0,0,1,4.41.95c.7.38.78.48.57.78-.32.47-1.67,1.13-4.52,2.23a11.77,11.77,0,0,1-2.1.72h-.17a2,2,0,0,1-.7-.22,3.64,3.64,0,0,0-1.73-.21,4.51,4.51,0,0,0-.72.12c-1.56.37-2.77,1.2-3,2s.8,1.37,2.2,1.25l.43-.06a4.4,4.4,0,0,0,3.34-2,1.25,1.25,0,0,1,.4-.53,13.14,13.14,0,0,1,1.59-.49,33.41,33.41,0,0,0,4.15-1.33c4.07-1.59,5.61-3.39,4.38-5.07-.28-.37-.39-.44-1.22-.82-3.24-1.44-5.73-2.05-7.68-1.88a3.93,3.93,0,0,0-.48.06l-.58.08c-.4,0-.49,0-.66-.27-.59-.8,0-2,1.42-2.8.26-.13,1.23-.56,2.21-1,4.26-1.75,7.06-3.41,8.08-4.84.76-1,.42-1.92-.87-2.52a52.92,52.92,0,0,0-7.88-1.67,34,34,0,0,0-5.53-.23,10.37,10.37,0,0,0-2.4.47c-.74.32-1.27.85-1.05,1.15a.15.15,0,0,0,.14.06,1.48,1.48,0,0,0,.59-.32,6.12,6.12,0,0,1,3-.93,19.75,19.75,0,0,1,5.87.56c.56.1,1.36.28,1.84.36,1.81.29,2.86.74,3.28,1.3.52.72-.15,1.53-2.15,2.47a51.37,51.37,0,0,1-5.67,2.14,30.13,30.13,0,0,1-5.22,1,15.28,15.28,0,0,1-5.45-.39c-1.16-.35-1.27-.4-1.52-1.24a9.62,9.62,0,0,0-1.79-3.35,6.35,6.35,0,0,0-4.56-2.64,5.46,5.46,0,0,0-1.21,0"/>
          <path class="cls-27" d="M140.8,268.6a6.72,6.72,0,0,0-1.8.44c-1.18.47-2,1.23-2.06,1.84a1.46,1.46,0,0,0,.62.92,3.09,3.09,0,0,0,1.55.18l.38,0a4.72,4.72,0,0,0,1.5-.43,3.76,3.76,0,0,0,1.72-1.16.89.89,0,0,0,0-1.27,2.3,2.3,0,0,0-1.9-.48"/>

          <path class="cls-27" d="M164.89,136.51,162,138.66l.13-.07a23.49,23.49,0,0,0,2.74-2.08"/>
          <path class="cls-27" d="M186.68,127.73a18.18,18.18,0,0,0-4.43-1.79c-.88-.24-1.21-.26-1.47-.09a.3.3,0,0,0,.05.52h0c.11.05.56.2,1,.32a14.05,14.05,0,0,1,3,1.25,6.47,6.47,0,0,1,3.43,4.2c.41,2.24-1.18,4.49-4.21,5.95a18.25,18.25,0,0,1-8.81,1.54,11.66,11.66,0,0,1-2.79-.42,12.1,12.1,0,0,1-2.6-.72,15.43,15.43,0,0,1-1.63-.79,9.3,9.3,0,0,1-2.37-1.91c-1.33.91-2.3,2-3.67,2.79l-.13.07a7.17,7.17,0,0,0,.87.82,13.6,13.6,0,0,0,1.63,1.09,23.2,23.2,0,0,0,12.87,2.63,22.62,22.62,0,0,0,7.58-1.69,13.41,13.41,0,0,0,4.54-3,9.21,9.21,0,0,0,1.7-2.93,6,6,0,0,0-.35-3.68,10.73,10.73,0,0,0-2.52-3,17.11,17.11,0,0,0-1.66-1.11"/>
          <path class="cls-27" d="M181.55,129.36a6.76,6.76,0,0,0-1.08-.5,9,9,0,0,0-2.79-.56c-.18,0-.21.18-.37,1.85a6.65,6.65,0,0,1-.32,1.92,1,1,0,0,1-.38.14l-3.34-.08c-1.67-.07-3.13-.09-3.25-.06s-.16.11-.16.34a4,4,0,0,0,1.93,2.56l.18.11a8.21,8.21,0,0,0,2.71.93,10.75,10.75,0,0,0,4.92-.18,7.13,7.13,0,0,0,3-1.53,4.13,4.13,0,0,0,.73-.87,2.38,2.38,0,0,0-.43-3,5,5,0,0,0-1.32-1.08"/>

          <path class="cls-27" d="M251.28,191.12a30.66,30.66,0,0,0-3.6-1.86,27.83,27.83,0,0,0-6.14-1.65,26.9,26.9,0,0,0-5.52-.1,16.32,16.32,0,0,0-1.63.26,7.74,7.74,0,0,1,.86,1,17.93,17.93,0,0,1,6.19.41,18.45,18.45,0,0,1,5.18,2.09,12.75,12.75,0,0,1,3.76,3.31c1.43,2,1.66,4,.69,5.79-.23.51-.35.6-1.27,1.37a5.17,5.17,0,0,1-1.73,1.11c-.28.11-.57.2-.86.29,1.24,1.15,1.85,2.61,3,3.81,4.07-.93,6.72-3.1,7.21-6a7.14,7.14,0,0,0-1.2-5.16,15.08,15.08,0,0,0-4-4.11c-.23-.16-.54-.36-.9-.58"/>
    </g>
  </g>
</svg>
