<svg id="Layer_1" data-name="Layer 1" xmlns="http://www.w3.org/2000/svg" xmlns:xlink="http://www.w3.org/1999/xlink" viewBox="0 0 380.11 388.93">
  <defs>
    <style>
      .cls-4 {
        fill: #ab5bfc;
      }

      .cls-14 {
        fill: #6301f1;
      }

      .cls-16 {
        fill: #7107f1;
      }

      <!-- box -->
      .cls-15 {
        fill: #e0e5e5;
      }

      .cls-5 {
        fill: #c0c6c7;
      }

      .cls-34 {
        fill: #a8b0b2;
      }

      .cls-39 {
        fill: #eedfff;
      }

      .cls-j {
        fill: #090a0a;
      }



      .cls-1 {
        fill: none;
      }

      .cls-2 {
        clip-path: url(#clip-path);
      }

      .cls-3 {
        fill: transparent;
      }

      .cls-6 {
        fill: #a44f1c;
      }

      .cls-7 {
        fill: #5e6166;
      }

      .cls-8 {
        fill: #b15518;
      }

      .cls-9 {
        fill: #5f6368;
      }

      .cls-10 {
        fill: #f19006;
      }

      .cls-11 {
        fill: #f1ae26;
      }

      .cls-12 {
        fill: #aba6a6;
      }

      .cls-13 {
        fill: #f4a820;
      }

      .cls-17 {
        fill: #f4a81f;
      }

      .cls-18 {
        fill: #f1920a;
      }

      .cls-19 {
        fill: #f4a41a;
      }

      .cls-20 {
        fill: #f5a71b;
      }

      .cls-21 {
        fill: #f3a218;
      }

      .cls-22 {
        fill: #f5a61d;
      }

      .cls-23 {
        fill: #f4a51c;
      }

      .cls-24 {
        fill: #f4aa21;
      }

      .cls-25 {
        fill: #f49f12;
      }

      .cls-26 {
        fill: #ee900c;
      }

      .cls-27 {
        fill: #f29108;
      }

      .cls-28 {
        fill: #954617;
      }

      .cls-29 {
        fill: #944617;
      }

      .cls-30 {
        fill: #b1b2b2;
      }

      .cls-31 {
        fill: #f1b230;
      }

      .cls-32 {
        fill: #666;
      }

      .cls-33 {
        fill: #fcde5a;
      }

      .cls-35 {
        fill: #f08e04;
      }

      .cls-36 {
        fill: #f29d14;
      }

      .cls-37 {
        isolation: isolate;
      }

      .cls-47 {
        opacity: 0.09;
      }
    </style>
    <clipPath id="clip-path">
      <rect class="cls-1" x="-553.05" y="-465.37" width="1000" height="1080"/>
    </clipPath>
  </defs>
  <title>4</title>
  <g class="cls-2">
    <g>
      <path class="cls-3" d="M-552.93,534.52q0-497.56-.12-995.12c0-4.23,1.08-4.77,4.95-4.77q495.06.17,990.1,0c3.88,0,4.95.54,4.95,4.77q-.19,497.55-.12,995.12a7.62,7.62,0,0,1-5.5,2c-1.84.06-3.67,0-5.5,0q-488.88,0-977.75,0C-545.65,536.48-549.67,537.45-552.93,534.52Z"/>
      <path class="cls-4" d="M55.33,161.58c2.64-.82,3.18-3.38,4.55-5.31A15.23,15.23,0,0,1,66.16,151c.48.39.12,1.46.27,1.36a42.31,42.31,0,0,1,22-7.16c.61-.27-.37-1.07-.09-.47.12.29.07.4-.11.47-1.33.49-2.56.58-3.54-.69,3.32-1.6,7-.55,10.41-1.31,3.06,1.83,5.67-1,8.74-.85,3.51.21,7.16-.24,10-.27-3.27-1-7.39,1.33-11.32-.55,2.09-1.36,4.49-1,6.73-.92a65.92,65.92,0,0,0,22.4-2.39c3.28-2.1,6.94-.7,10.39-1.15a15.06,15.06,0,0,1,8.64,2.06c3.92,2.16,7.4,1.89,11.32,0,8.44-4.12,17.48-4,26.44-2.48,6.91,1.18,12.92,4.36,17.16,10.26a8.44,8.44,0,0,0,5.24,3.55,226.84,226.84,0,0,1,25,7.1,7.3,7.3,0,0,0,4.43.16,43.72,43.72,0,0,1,32.95,3.19c4.35,2.18,9.79,1.86,14.29,4.23,2.74,1.7,5.57,3.28,7.83,5.64.9,1.47,2,2.62,4,2.32,4.2.32,8.5-.77,12.59,1,3.27,1.2,6.5,2.44,9.17,4.84,4.52,4.09,4.17,6.9-1.52,8.94-10.16,3.64-20.45,6.86-30.68,10.28-17.79,5.94-35.58,11.86-53.45,17.52a26.41,26.41,0,0,1-4.8,1.31c-8.16-.74-16.44-1-23.87-5.11-.9-1.16-.44-2.4-.12-3.69a48.82,48.82,0,0,1-8.81,2.68c-9.1-1-18.11-2.39-26.77-5.44a15.72,15.72,0,0,0-3.88-.47c-9.09-1-18.1-2.33-26.76-5.39-1.82-2.54.49-3,2-3.72,3.79-1.86,7.67-3.57,9.51-6.41-5,5.77-12.55,8-20.78,8.75-8.15-1.43-16.49-1.95-24.28-5.09-2.54-2-6.07-3.36-5.86-7.48-.66,3.66-3.8,4.38-6.91,5.16-10.7-1.34-21.41-2.65-31.56-6.54a17.33,17.33,0,0,0-6.36-.87,41.44,41.44,0,0,1-14.65-2.57c-4.73-1.8-5.52-5.23-2.43-9.2a20.67,20.67,0,0,1,8.36-6.68c3.21.75,5.28-2.16,8.13-2.56a.67.67,0,0,0,0-.36A1.8,1.8,0,0,0,55.33,161.58Z"/>
      <path class="cls-5" d="M140.19,198.39c9.91,1.68,19.77,3.66,29.66,5.38,9.65,1.69,19.24,4.2,29,5.74,2.65.6,5.67-1.46,8,1.12,7.67,3.2,15.93,3.67,24,5.13,1.22,1.78,1,3.82,1,5.81q0,40.69,0,81.41c0,3,.26,6-2,8.52-4.13,2.23-7.95-.53-11.86-1-2.83-.35-6.47.76-8.62-2.44-.77-10.61-.45-21.25-.44-31.86,0-12.48,0-25,.11-37.42,0-3.92-1.67-5.68-5.37-6.36-18.48-3.39-36.87-7.23-55.33-10.71-1.31-.25-2.64-.35-4-.54-2.32-.34-3.43.62-3.52,2.95-.06,1.67-.1,3.33-.1,5q0,28.2,0,56.39c0,7.19,0,7.31,7.27,8.69,18.12,3.46,36.19,7.19,54.34,10.54,1.86.34,4.16.18,4.68,2.83-6.38,2.92-13,2.57-19.69,1.49-10.84-4.21-21-.92-31.28,2.57-4.33,1.47-7.66,4.49-11.57,6.59a4.87,4.87,0,0,1-1.65.22c-16.56-2.66-33-6-49.47-9.18-21.2-4.13-42.45-8-63.57-12.57-1.76-.38-3.68-.41-4.94-2-1.51-1.51-1-3.44-1-5.21,0-36.11.08-72.22-.07-108.33,0-4.12,1.25-6.06,5.31-6.67,3.41-.52,6.38-2.83,10-2.86-1.28,6-.61,7,5.12,8.32,5.37,1.22,11,1.12,16.23,2.15,5.07,1,10.1,3,15.32,4q9.55,1.75,19.12,3.48c4.21-.61,8.27-.37,11.91,2.16,8.23,2.39,16.7,3.56,25.11,5.05C134.53,198.05,138,195.24,140.19,198.39Z"/>
      <path class="cls-5" d="M228.9,311.46c1.33-2.12,1-4.49,1-6.79q0-41.31,0-82.62c0-2.14-.3-4.34,1-6.29,12.9-4.33,25.8-8.7,38.71-13,16.22-5.39,32.47-10.72,48.69-16.11,1.86-.62,3.85-1,5.46-2.47-2.7-4.66-7.17-6.81-11.78-8.76.81-2.65,2.92-1.54,4.51-1.41,4.48.36,8.79,1.8,13.26,2.27,5,.54,5.39.3,3.23-4.45-2.61-5.76-5.41-11.44-8.25-17.09C311.76,129,299.42,103,287,77.07c-1.19-2.49-2.7-5.31.88-7.37,9.69-.16,17.27,4.86,24.06,10.76,15.83,13.76,27.87,30.36,34.5,50.44,5.53,16.76,5.69,33-6.14,47.65a6.73,6.73,0,0,0-1.37,4.64l.12,85.43c.77,2.9,2.47,5.75.51,8.81-5.86,2.7-12.29,3.32-18.44,5-3.39-1.27-2.65-4.26-2.66-6.79-.07-19.74,0-39.47-.08-59.21,0-2,1-4.42-1.54-5.8-2.58-.47-5,.4-7.32,1.17-17.07,5.57-34.08,11.32-51.2,16.74-7.32,2.31-7.62,2.81-7.58,10.18.1,21.45-.34,42.9.24,64.33,1.22,2.44,2.81.75,4.23.34,16.45-4.75,32.53-10.62,48.79-15.94,2.53-.83,5.12-1.42,7.66-2.2,1.73-.53,3.64-1,4.81,1.19-.86,8.16-2.51,10.17-10,12.12-5.33,1.39-10.64,2.8-15.23,6.07-3.84,2.72-6.85,5.87-6.4,11.06a3.67,3.67,0,0,1-.73,1.36c-7.16,4.05-15.32,5.31-22.94,8.12a198.22,198.22,0,0,1-20.83,6.72,1.75,1.75,0,0,1-1.09-1c.71-7.54-2.19-13.21-8.77-17A2.9,2.9,0,0,1,228.9,311.46Z"/>
      <path class="cls-7" d="M24.89,294.64c9.49.46,18.58,3.16,27.84,4.92,29.46,5.57,58.87,11.33,88.3,17a23.84,23.84,0,0,1,2.83.9c.89,3-1.15,6.13.4,9.11.75,3.5,3.73,3.85,6.42,4.42,6.28,1.32,12.51.53,18.66-.82,3.38-.75,6-.65,7.87,3,1.32,2.61,4.67,3.69,5.71,6.68-9.94,3.18-19.87.25-29.8,0-8.79-.25-17.51-1.33-26.26-2a353.36,353.36,0,0,1-38.81-5.7c-16.65-3.21-32.92-7.64-48.41-14.72-6.32-2.9-11.3-7.56-16.31-12.11C20.41,302.62,21.54,297.1,24.89,294.64Z"/>
      <path class="cls-5" d="M287.84,69.7c-1.47,2.27-.76,4.35.32,6.57q19.54,39.95,39,79.93c3.25,6.66,6.46,13.35,9.72,20,1.29,2.62-.73,2.52-2.1,2.33-4.91-.67-9.78-1.57-14.68-2.36-2.7-.44-5.36-1.38-8.16-.75-4.6-1.24-9.31-1-14-1,1.23-3,4-.33,5.46-1.49-2.89.15-6,.48-8.91-1.24l-6.66-5.07c1.7-1.77,3.7-.87,5.63-.61,9.91,1.32,19.58,3.88,29.43,5.52,1.67.28,3.81,1.78,5-.07.93-1.4-.58-3.13-1.3-4.59-11.78-24.07-23.21-48.31-35.11-72.32-2.07-4.17-4.24-8.31-5.89-12.68-1.48-3.94-4.24-6-8.52-6.65-44.81-6.48-89.59-13.16-134.41-19.59-17.46-2.51-34.88-5.28-52.35-7.72-1.56-.22-3.57-1.32-4.62.33-.83,1.31.65,2.8,1.4,4,13.84,22.76,26.8,46,40.76,68.72,1.57,2.55,3.3,5,4.63,7.7,1.94,3.9,3.52,8.05,9,7.93a1.5,1.5,0,0,1,1.34,1.78l-11.11-.18L77,46c-.51-.86-1.06-1.69-1.53-2.57-2.14-4-1.54-5.2,3.07-4.74,8.09.8,16.13,2.12,24.18,3.27q30.08,4.26,60.13,8.55c8.14,0,16.07,1.85,24.06,3.1,4,.64,8.28.15,12,2.26,16.72,2.56,33.43,5.16,50.15,7.67,12,1.8,24,3.47,36,5.23A18.22,18.22,0,0,1,287.84,69.7Z"/>
      <path class="cls-9" d="M240.2,331.52c2.1-2.72,5.45-3,8.32-3.84,11.83-3.52,23.21-8.49,35.32-11.11,11.82,7.58,23.8,4.58,35.7.35,4.15-1.48,7.93-2.34,12.51-1.17,9.13,2.33,20.5-2.56,24.79-9.82a7.88,7.88,0,0,0,1.41-5.17c-.1-12.34-3.87-17.25-16.07-20.77-1.47-.42-2.9-.72-3.36-2.46q.1-4.45.19-8.91a10.3,10.3,0,0,0,5.71,4.48c7.14,2,12.68,7.13,19.28,10.23,5.59,2.62,6.92,8.26,8.68,13.32,1,2.8-.51,5.4-2.31,8.16-7.09,10.87-19,14.12-29.65,18.65-18.22,7.75-38,10.19-57.46,13-13.57,2-27.19,4-41,4.07-2.37,0-4.69,0-6.41-2C235.88,335.33,237.52,333.1,240.2,331.52Z"/>
      <path class="cls-14" d="M240.2,331.52c-.39,3-2.95,4.65-4.32,7-8.45,6.44-18,8.22-28.25,6.26-8.25-1.58-17-.79-24.71-5a11.68,11.68,0,0,1-6.29-5.3c-2.07-4-4.61-3.39-8-2.57a40.88,40.88,0,0,1-18.7.51c-3.38-.76-6.91-1.67-7.23-6.17,5.13-.19,9.89,2.24,15.15,1.75,12.28-1.15,24.16-2.95,32.64-13.31.74-.91,1.61-1.88,2.93-1a4.41,4.41,0,0,1,1.81,4.38c-.21,2.17-1.9,3.4-3.41,4.71a40.71,40.71,0,0,1-10,6.48c-3,1.34-2.79,2.88-.29,4.57a34.58,34.58,0,0,0,9,4,3.94,3.94,0,0,0-.56-1c-1.28-1.93-3.26-4.32-.91-6.1,2-1.48,3.32,1.35,4.65,2.64,10.2,9.95,30.6,10.11,41.2.37,1.47-1.35,2.4-3.74,5.09-3.23A4.11,4.11,0,0,0,240.2,331.52Z"/>
      <path class="cls-16" d="M84.74,144.54c1.71.25,3.53-.52,6.13,1.05-9.68,1.49-18.37,3.53-26.06,9.09-.41-1.82,1.18-2.47,1.34-3.64A44,44,0,0,1,84.74,144.54Z"/>
      <path class="cls-12" d="M198.89,55.9,162.8,50.54a3.13,3.13,0,0,1,3.17-.89c10.24,1.46,20.49,2.92,30.71,4.51C197.47,54.28,199.34,53.85,198.89,55.9Z"/>
      <path class="cls-16" d="M102.62,141.56h15.2c-8.57.88-17.1,1.45-25.32,4.45l2.65-2.78C97.57,142.36,100,141.41,102.62,141.56Z"/>
      <path class="cls-14" d="M55.33,161.58h3.84c-4.06,1.92-6.8,3.28-9.6,4.52-1.08.48-2.34.82-2.1-1.21C50,163.62,52.45,162.06,55.33,161.58Z"/>
      <path class="cls-15" d="M142.86,138.43c-7.33.44-9.65-5-12.69-10.19-15.11-25.92-30.5-51.69-45.83-77.49-.86-1.45-2.32-3-1.39-4.49s3.15-.83,4.67-.54c15.95,3.05,32.1,4.7,48.11,7.4,13,2.19,26.24,3.49,39.34,5.49,21.59,3.31,43.16,6.91,64.83,9.66,12.82,1.63,25.52,4,38.37,5.31,4.37.44,7,2.82,8.57,6.54,6.84,16.06,15,31.47,22.71,47.1,7.28,14.74,14,29.73,21.13,44.55,1.62,3.38-.69,3-2.4,2.67-6-1.07-12-2.39-18-3.55-7.47-1.45-15-2.83-22.43-4.25-7.58-2.82-15.62-3.91-23.14-7.29-7.26-3.27-15.37-2.59-23-.12-2.74.89-4.83.46-7.48-.44-7.53-2.56-15.09-5.16-23-6.47-2.86-.47-5-1.07-6.63-4.11-3-5.67-8.71-8.13-14.63-9.55-10.53-2.52-20.89-1.91-30.51,3.49-2.41,1.35-4.07,1.42-6.27-.1C150.09,140,146.4,139.35,142.86,138.43Z"/>
      <path class="cls-14" d="M246.36,185.41l6.2,6.76A13.75,13.75,0,0,1,242.47,194a23.73,23.73,0,0,0-19.71,4.3c-2.66,2-5.33-.14-8.12.6a30.8,30.8,0,0,1-15.77-.3c-3.13-.82-5.87-2.22-7-6.07,11.87,5.67,23.23,3.29,35.65-.51-3.54-2.85-7.83-4.09-8.33-9.58,6.8,6.17,14.7,7.11,22.56,8C245.12,190.9,249,191.35,246.36,185.41Z"/>
      <path class="cls-14" d="M95.17,163.12c-4.26-2.65-8.28-4-9-9.41a30.81,30.81,0,0,0,17,7.34c2.38.27,4.87,1.86,7.43-1,.75-.83,2.71,2.89,4,4.54-.37.43-.49.66-.56.65-11.43-2.57-21.58,3.24-32.36,4.9a40.23,40.23,0,0,1-16.31-.47c-2.91-.75-4.83-2.42-6.7-5.94C71.18,169.77,82.62,167,95.17,163.12Z"/>
      <path class="cls-14" d="M151.29,158.3c9.91,17.39,46,15.68,53.64.84,1.34-2.6,3.12-.8,4.54-1.09,6.7-1.33,13.49-1.53,20.13.65a6.61,6.61,0,0,1,2.47,1.52c-7.52-1.73-15-2.56-22.6-.81-1.7.39-3.13.83-4.14,2.39-5.28,8.17-13.46,10.93-22.56,11.78-2.3.21-4.41.14-3.27,4-1.72-3.12-3.92-3.76-6.81-4.09-9.08-1.07-17-4.4-21.82-12.93C150.45,159.8,150.63,159.33,151.29,158.3Z"/>
      <path class="cls-16" d="M203.2,149.45c-16.81-12.47-32.35-12.45-47.63-.67C160.11,136.9,192.63,133.67,203.2,149.45Z"/>
      <path class="cls-16" d="M105,173.6c9.42-12.45,39-11.43,45.45,0C135.69,163.66,120.83,163.64,105,173.6Z"/>
      <path class="cls-14" d="M140.19,198.39l-8.26-1.67c9-1.38,17.34-3.84,22.72-12.06C153.36,193,146.35,195.25,140.19,198.39Z"/>
      <path class="cls-16" d="M318.06,181.11c-12.54-5.57-24.18-6-34.42,4.93C287.89,174.74,306.88,172,318.06,181.11Z"/>
      <path class="cls-16" d="M290,171.13c-11.21-6.38-22.67-5.92-35.32-1.25C263.84,162.23,283,163.29,290,171.13Z"/>
      <path class="cls-16" d="M118.72,145.35c8.3-7.76,25.6-7.86,35.41-.15C142.3,139.54,130.49,139.09,118.72,145.35Z"/>
      <path class="cls-16" d="M209.56,174.26c-9.62,0-19.23-.47-27.92,4.65C190.23,173,199.54,171.23,209.56,174.26Z"/>
      <path class="cls-16" d="M240.65,161.8c9.56-4.42,19-4.13,28.18,1.26C259.54,159.69,250.13,159.7,240.65,161.8Z"/>
      <path class="cls-16" d="M249,171.06c-9.29.41-18.52.83-26.39,6.75C225.54,172.19,240.45,168.08,249,171.06Z"/>
      <path class="cls-16" d="M275.88,197.12c-9.39-3-18.7-3.63-28.17-.81A33,33,0,0,1,275.88,197.12Z"/>
      <path class="cls-14" d="M106.82,191.67c-3.95-.82-8.08-.69-11.91-2.16,1.73-1.66,5.56-1,5.13-5.9A28.64,28.64,0,0,0,106.82,191.67Z"/>
      <path class="cls-14" d="M206.88,210.63c-2.72-.11-5.53.41-8-1.11l10.52-3.69Z"/>
      <path class="cls-14" d="M88.94,170.25a23.86,23.86,0,0,1,16-.37C99.57,168.48,94.28,170.78,88.94,170.25Z"/>
      <path class="cls-14" d="M241,197l-11.81,1.62A15.88,15.88,0,0,1,241,197Z"/>
      <path class="cls-6" d="M294.48,171.71c3.48-.55,6.61,1.7,10.12,1-2,1.69-4.76-.09-6.67,1.7C295.61,175,295.32,173,294.48,171.71Z"/>
      <path class="cls-14" d="M82.94,172.33l-5.74,2.29C78.59,172.58,80.41,171.55,82.94,172.33Z"/>
      <path class="cls-15" d="M116.93,224.28q0,29.68,0,59.35c0,6.34-.43,6.49-6.51,5.28q-29-5.81-58-11.33c-7.45-1.44-7.47-1.35-7.47-8.75q0-30.69,0-61.4c0-7.17.1-7.32,7.38-6q28,5.29,56,10.8C117.36,214.06,118.08,215.21,116.93,224.28Z"/>
      <path class="cls-15" d="M206.89,307.38c-8.6-1.61-17.21-3.17-25.81-4.83-12.84-2.5-25.66-5.13-38.52-7.56-2.84-.54-3.72-1.86-3.71-4.71q.15-33.73,0-67.46c0-3.68,1.22-4.58,4.81-3.88,20.64,4,41.32,7.88,62,11.79,3.52.66,5.46,2.19,5.3,6.33-.55,13.79,0,27.6-.41,41.41-.22,7.24.06,14.61.32,21.92.09,2.46.17,5-1.07,7.25A1.88,1.88,0,0,1,206.89,307.38Z"/>
      <path class="cls-4" d="M206.89,307.38l2.91.26c6.23,1.94,13,1.33,19.1,3.82,3.15,1.85,6.39,3.58,8.74,6.5a12.8,12.8,0,0,1,2.3,12.65c-10.63,16.31-40.35,15.6-51-.2.22,4.71,3.14,6.74,5.91,9.85-7-1.07-12.57-3-17.14-7.34-1.68-1.59-2.24-2.69.65-3.74a44.35,44.35,0,0,0,12.4-7.3c2.65-2.11,4.16-4,2.08-7.57-5.39,8.54-14,11.69-23,13.71s-18.41,3.43-27.19-1.7c-1.9-3.25-.78-6.09,1.19-8.82h.34c.8-.84.4,1.52,1.64.49,11.6-9.65,24.79-12.88,39.54-9.52,1,.24.19-2,1.59-1.17,3.15,2.12,6.37.26,9.56.17C200,307.37,203.44,307.4,206.89,307.38Z"/>
      <path class="cls-30" d="M120,224.75c0-.5-.09-1-.09-1.49,0-11.57-.55-8.6,9-7.45,2.79.34,4.36,1.42,4.24,4.77-.27,7.32-.16,14.66,0,22,0,2.9-.42,4.6-3.88,3.35a14.37,14.37,0,0,0-4.41-.8c-4.52-.1-5.55-2.62-4.77-6.52,1.49-1.07,3.26.06,5.33-.8-2.22-1.68-5-2.79-4.56-6.14a10.4,10.4,0,0,1,4.32-7.1C123.11,223.76,121.64,225.55,120,224.75Z"/>
      <path class="cls-16" d="M187,307.3c-.68,2.15,2.12,1.57,2.39,3.33-12.37-4.18-24.16-2.08-35.58,3.1a31.71,31.71,0,0,0-6.58,4.36c-1.49,1.21-2.23.76-3-.59C156.79,307.1,171,303.39,187,307.3Z"/>
      <path class="cls-32" d="M120,224.75c1.41-.82,2.78-1.72,4.25-2.44,1.16-.57,2.58-1.25,3.44.38s-.11,2.54-1.46,3.12a6.76,6.76,0,0,0-4,5.28c-.48,2.39,0,4.33,2.94,4.56,1.65.13,3.77,0,3.16,2.5-.45,1.84-2.4,2.16-4.09,1.86a27.16,27.16,0,0,1-4.19-1.41C117,234,117.18,229.38,120,224.75Z"/>
      <path class="cls-15" d="M249.9,304.58c-1.53-1.49-1-3.43-1-5.19,0-21.28.09-42.55-.11-63.82,0-4,1.38-6.23,5-7.42,19.54-6.4,39-12.85,58.61-19.17,1.68-.54,3.62-.27,5.43-.37,1.45,1.31,1,3.08,1,4.68,0,21.62,0,43.23.08,64.84,0,4-1.25,5.73-5.25,6.92C294,290.91,274.68,298,255,304,253.38,304.49,251.79,305.93,249.9,304.58Z"/>
      <path class="cls-4" d="M338.82,277.53c4.46,1.55,9.36,1.91,13.29,4.88,6,4.57,8.9,10.48,7.69,18.12-3.32,12.93-17.43,16.2-26,15.43-4.15-.37-4.87-2.47-2.3-6a12.9,12.9,0,0,0,2-3.27,10.7,10.7,0,0,1-5,5.49c-11.49,6.83-23.76,10.26-37.23,7.86a9.75,9.75,0,0,1-7.27-4.7c-1.92-3.86-.16-6.69,2.6-9.22,5.43-5,12.09-7.59,19.12-9,4.6-.89,8.13-2.1,8.72-7.42.12-1.07,1.05-2,1.61-3.06.55-3.31,3.13-4.3,5.86-5.11C327.13,278.64,332.89,277.73,338.82,277.53Z"/>
      <path class="cls-15" d="M346.85,149.31c-1,6.95-1.29,14-4.55,20.34-.53,1-.88,2.33-2.21,2.48-1.72.19-2.12-1.36-2.68-2.52Q320.19,134.27,303,98.9c-3.4-7-6.53-14.19-9.82-21.27-.54-1.15-2-2.24-.53-3.47,1.19-1,2.41-.12,3.67.39,13.49,5.48,22.1,16.56,30.93,27.24,11.06,13.37,16.86,29.1,19.43,46.11C346.78,148.4,346.81,148.89,346.85,149.31Z"/>
      <path class="cls-34" d="M321.86,281.59,316,286.7c-3.31-1.94-6.11.56-8.85,1.42-18,5.68-35.89,11.76-53.82,17.67-1.35.45-3.44,2.42-3.43-1.21,21.3-6.95,42.57-14,63.92-20.77,3.49-1.11,4.12-3.07,4.1-6.25-.1-23-.08-46-.1-68.95.38-.8.77-2.46,1.71-.71.63,1.19.32,2.92.32,4.41,0,21.28,0,42.56.06,63.84C319.92,278.06,318.72,280.68,321.86,281.59Z"/>
      <path class="cls-14" d="M284,315.36c9.27,6.2,19.2,4.19,28.91,1.86,8.29-2,16.21-5.18,21.55-13.36,1.25,4.69-1.64,6.93-3.91,9.41,10.24,4.05,22.34-1.28,29.3-12.74,0,9.22-10.1,15.62-19.68,16.94a1.17,1.17,0,0,1-.49,0c-11.28-2.56-21.55,1.83-32.13,4.42a34.7,34.7,0,0,1-16.76-.19c-3-.76-5.53-2.2-6.9-5.16C283.87,316.17,283.91,315.76,284,315.36Z"/>
      <path class="cls-14" d="M229,314.39c-11.05-4.35-21.81-3.79-32.29,1.85C204.86,309.23,220.34,308.35,229,314.39Z"/>
      <path class="cls-16" d="M349.2,283.5c-9-4-17.84-3.62-27.68,1.68C328.72,278.12,342.45,277.61,349.2,283.5Z"/>

      <path class="cls-39" d="M186.29,152.37l-.14,0a11.94,11.94,0,0,0-9.22,1.81,9.47,9.47,0,0,0-2,2.1,5.3,5.3,0,0,0,.77,6.8,8.47,8.47,0,0,0,3.63,2.16l.58.16a13.09,13.09,0,0,0,3.38.35,16,16,0,0,0,3.08-.51,11.75,11.75,0,0,0,3.18-1.55,9.57,9.57,0,0,0,2-2.1,5.45,5.45,0,0,0,.87-3.37c0-.38-.1-.52-.28-.57h-.06c-.17,0-.4.08-.44.23a2.15,2.15,0,0,0,0,.49c.06,1.74-1.06,3.39-3,4.46a9.15,9.15,0,0,1-6.42.76h0a6.13,6.13,0,0,1-3.85-2.67,2.39,2.39,0,0,1-.41-1.19,2.66,2.66,0,0,1-.09-1.23c.32-2,2-3.75,4.59-4.5a10.31,10.31,0,0,1,3.48-.33l.45.06c.62.05,1.14-.47.86-.89a1.34,1.34,0,0,0-.83-.41"/>
      <path class="cls-39" d="M189,157.39c-.1,0-.33.05-1.73.59a14.26,14.26,0,0,1-1.79.62l-.24-.09-.87-1.26a8.61,8.61,0,0,0-.86-1.23h0c-.07,0-.14,0-.32.07a4,4,0,0,0-1.74,1.71,2.07,2.07,0,0,0-.1,1.47,2.72,2.72,0,0,0,1.54,1.74,4.77,4.77,0,0,0,1,.36,5.67,5.67,0,0,0,1.23.15,6,6,0,0,0,1-.06,4.19,4.19,0,0,0,2.53-1.31,2.6,2.6,0,0,0,.74-1.5,2,2,0,0,0-.28-1.25h0"/>
      <path class="cls-39" d="M189.89,144.55a5,5,0,0,0-1.9,0,3.64,3.64,0,0,0-1.23.38c-2.76,1.19-4.21,2.13-4.52,2.91-.15.37-.19.39-.59.46a3.31,3.31,0,0,1-1.26-.07,1.93,1.93,0,0,1-1.19-.73c0-.12-.19-.52-.29-.92a4.92,4.92,0,0,0-2.43-3.5,2.74,2.74,0,0,0-.48-.17,3.86,3.86,0,0,0-2.42.27,32.59,32.59,0,0,0-4.25,2.81,10.63,10.63,0,0,0-2,2.07,1.69,1.69,0,0,0-.28.95.76.76,0,0,0,.56.48.7.7,0,0,0,.29,0c.16,0,.18-.09,0-.3-.67-.73.23-1.94,2.46-3.38l1-.66a5.37,5.37,0,0,1,2.41-1.12,2.34,2.34,0,0,1,.8,0,1.57,1.57,0,0,1,1.07,1,7.88,7.88,0,0,1,.4,2.34,5.12,5.12,0,0,1-2.81,4.07,2.64,2.64,0,0,1-1.78.46,28.36,28.36,0,0,0-4.05.37,8.63,8.63,0,0,0-4.2,1.48,1.47,1.47,0,0,0-.59,1,2.79,2.79,0,0,0,1.31,2.47c.13.1.88.52,1.65.93s1.42.78,1.46.83a.36.36,0,0,1,0,.25c-.24.42-.25.52-.18.85a.76.76,0,0,0,.3.55,1.69,1.69,0,0,0,.72.36l.28,0a2.06,2.06,0,0,0,1.57-.5c.63-.68.26-1.58-.76-1.83a1.81,1.81,0,0,0-1,0,2.41,2.41,0,0,1-.71.06l-.05,0c-.07,0-2.95-2.32-3.35-2.67s-.19-.5.25-.74a5.51,5.51,0,0,1,2.21-.38,12.9,12.9,0,0,1,3.29.34,6.49,6.49,0,0,1,3,1.53,1.19,1.19,0,0,0,.28.23h0a1.83,1.83,0,0,0,.3-.56q1-2.39,4.78-4.49a9.47,9.47,0,0,1,2.91-1.12,10.06,10.06,0,0,1,4.6.1l.09,0,.27.07a3.53,3.53,0,0,0,.43.09s0-.06,0-.14a4.18,4.18,0,0,1,1-3.16,6.28,6.28,0,0,1,2.4-1.58c.5-.18.68-.23.86-.19l.13.05c.39.17.65.74.86,1.91.14.79.14.8,0,.93a2,2,0,0,1-.45.24,1.42,1.42,0,0,0-.88.92c-.11.58.31,1.1,1,1.28l.1,0a1.84,1.84,0,0,0,2.07-.88c.23-.64-.16-1.21-1-1.45a1.12,1.12,0,0,1-.43-.2,1.47,1.47,0,0,1,0-.64,4.7,4.7,0,0,0,0-1.69,2.52,2.52,0,0,0-2-2.08"/>
      <path class="cls-39" d="M171.05,148.16a2.21,2.21,0,0,0-1,0c-.87.16-1.36.72-1.23,1.38a1.31,1.31,0,0,0,1,.91l.23,0a3.66,3.66,0,0,0,1.16-.15,1.4,1.4,0,0,0,.76-.71.73.73,0,0,0,0-.61,1.07,1.07,0,0,0-.65-.76,2.13,2.13,0,0,0-.33-.11"/>

      <path class="cls-39" d="M125.75,178.19l-.28-.06a11.89,11.89,0,0,0-9.07,1.75,7.14,7.14,0,0,0-2.58,3.05,5.24,5.24,0,0,0-.36,3,7.21,7.21,0,0,0,1,2.18,8,8,0,0,0,2.35,2,12.12,12.12,0,0,0,2.65,1l.34.08a12.29,12.29,0,0,0,4.6.05c.56-.1.73-.18.74-.35a.29.29,0,0,0-.25-.27l-.09,0a5.15,5.15,0,0,0-.65.08,9.15,9.15,0,0,1-3.55-.15,7.23,7.23,0,0,1-2.72-1.3,4.1,4.1,0,0,1-1.54-4.61,5.89,5.89,0,0,1,3.25-3.29,5.2,5.2,0,0,1,1.56-.51,7.11,7.11,0,0,1,1.65-.29,9.78,9.78,0,0,1,2.74.27,6.28,6.28,0,0,1,3.69,2.32,4.14,4.14,0,0,1,.74,2.5c0,.1,0,.25,0,.34,0,.26.24.47.55.54a1,1,0,0,0,.73-.07,1.12,1.12,0,0,0,.5-.79c.65-2.48-.57-4.92-3.2-6.45a13.42,13.42,0,0,0-2.72-1"/>
      <path class="cls-39" d="M124.54,183.28a4.79,4.79,0,0,0-.6-.11,5,5,0,0,0-2,.18,3.93,3.93,0,0,0-2.22,1.44,2.43,2.43,0,0,0-.49,1.69,2.57,2.57,0,0,0,.17.71,3.09,3.09,0,0,0,2,1.62,4.58,4.58,0,0,0,.49.15,4.91,4.91,0,0,0,1.58.13,4.45,4.45,0,0,0,1.66-.43c0-.07,0-.16-.93-1.18a8.78,8.78,0,0,1-1-1.2.3.3,0,0,1,.1-.19l1.62-.86a14.09,14.09,0,0,0,1.57-.84c0-.07,0-.11-.12-.24a4.53,4.53,0,0,0-1.83-.87"/>
      <path class="cls-39" d="M127.28,168.85a2.89,2.89,0,0,0-.9-.07,5.25,5.25,0,0,0-3.21,1.39c-.13.11-.62.74-1.11,1.37a13.93,13.93,0,0,1-1,1.22,1,1,0,0,1-.34,0,2,2,0,0,0-1.16,0,1.43,1.43,0,0,0-.7.32,1.18,1.18,0,0,0-.48.8,1.16,1.16,0,0,0,.82,1.06l.18.06a1.87,1.87,0,0,0,2.21-.94c.09-.27.08-.28-.1-.74s-.19-.49-.13-.55,2.88-2.57,3.31-2.93a.68.68,0,0,1,.62-.14,1.15,1.15,0,0,1,.4.2,2.5,2.5,0,0,1,.69,1.55,5,5,0,0,1-2,4.93c-.18.12-.3.24-.29.26h0a5,5,0,0,0,.75.11,11.65,11.65,0,0,1,1.53.26,13.54,13.54,0,0,1,4.9,2.46,5.35,5.35,0,0,1,1.76,1.93,4.25,4.25,0,0,1,.24,3.47,4.26,4.26,0,0,0-.16.53s0,0,0,0h.18a9.41,9.41,0,0,1,3.82.05l.51.14a5.43,5.43,0,0,1,2.32,1.49c.36.4.39.5.27.7s-.93.6-2.49,1a3.93,3.93,0,0,1-1.16.2l-.07,0a1,1,0,0,1-.37-.27,1.68,1.68,0,0,0-.8-.44,1.73,1.73,0,0,0-.5-.05,1.61,1.61,0,0,0-1.66,1.05c-.14.58.32,1.13,1,1.31a1.86,1.86,0,0,0,.34,0,1.76,1.76,0,0,0,1.85-1,.64.64,0,0,1,.24-.35,3,3,0,0,1,.86-.11,13,13,0,0,0,2.27-.33c2.22-.55,3.12-1.68,2.52-3.2a2,2,0,0,0-.62-.84,9.68,9.68,0,0,0-3.88-2.73,2.3,2.3,0,0,0-.42-.07,2.2,2.2,0,0,1-.37-.05c-.17,0-.21-.12-.28-.3a1.57,1.57,0,0,1,.85-1.94c.15,0,.68-.23,1.22-.38,2.34-.63,3.89-1.46,4.49-2.39a1.59,1.59,0,0,0-.38-2.11,28.33,28.33,0,0,0-4.15-2.62,15.27,15.27,0,0,0-2.77-1.08l-.17,0a3.39,3.39,0,0,0-1.3,0c-.41.11-.71.44-.6.7a.1.1,0,0,0,.07.08c.06,0,.15,0,.32-.15a2.33,2.33,0,0,1,1.9-.16,10,10,0,0,1,2.86,1.37c.3.17.72.44,1,.59a3.59,3.59,0,0,1,1.7,1.57c.26.64-.13,1.15-1.23,1.55a19.21,19.21,0,0,1-3.11.7,10.18,10.18,0,0,1-3.28-.22,6.79,6.79,0,0,1-2.43-1.13c-.62-.47-.66-.52-.77-1.22a11.51,11.51,0,0,0-.84-2.9,5.06,5.06,0,0,0-2.34-2.83,2.84,2.84,0,0,0-.51-.18"/>
      <path class="cls-39" d="M135,172.47a2.21,2.21,0,0,0-1.08,0,1.41,1.41,0,0,0-1.17,1.07,1.64,1.64,0,0,0,.3.82,1.39,1.39,0,0,0,.7.37,1.65,1.65,0,0,0,.32.06,1.62,1.62,0,0,0,.82-.08,1.44,1.44,0,0,0,1-.61.91.91,0,0,0,0-1,1.33,1.33,0,0,0-.89-.68"/>

      <path class="cls-39" d="M216,324.37a12.56,12.56,0,0,0-1.9-.31,15.47,15.47,0,0,0-3.4.21c-3.31.69-5.85,2.51-6.8,4.89a5,5,0,0,0-.17,3.52,6.05,6.05,0,0,0,1.75,2.64,11.65,11.65,0,0,0,2.34,1.46,10.3,10.3,0,0,0,1.54.5,12,12,0,0,0,1.95.33,15.68,15.68,0,0,0,3.4-.22,11.15,11.15,0,0,0,4.09-1.69c.43-.3.52-.43.42-.58A.34.34,0,0,0,219,335a.41.41,0,0,0-.29,0,3.53,3.53,0,0,0-.53.31,9,9,0,0,1-6.52,1.16l-.42-.1a5.82,5.82,0,0,1-4.14-3.19,4,4,0,0,1,.6-4c.23-.36.32-.44,1-1a5.06,5.06,0,0,1,1.26-.86,9.44,9.44,0,0,1,6.26-.68,8.61,8.61,0,0,1,1.21.41,6.38,6.38,0,0,1,2.37,1.81,1.42,1.42,0,0,0,.2.3.71.71,0,0,0,.4.24,1,1,0,0,0,1.05-.32c.12-.19.1-.45-.1-.85a7.92,7.92,0,0,0-5.39-3.88"/>
      <path class="cls-39" d="M215.63,329a6.07,6.07,0,0,0-2.8.11,4,4,0,0,0-1.63.89,2.48,2.48,0,0,0-1,2,2.43,2.43,0,0,0,.74,1.61,3.69,3.69,0,0,0,.63.53,4.65,4.65,0,0,0,1.18.5,5.45,5.45,0,0,0,1.7.11,4.91,4.91,0,0,0,2-.55c.47-.23,1.18-.84,1.16-1s-.12-.13-1.63-.64a11.87,11.87,0,0,1-1.71-.64.28.28,0,0,1,0-.19c0-.06.41-.66.84-1.33a8.69,8.69,0,0,0,.8-1.3c0-.07,0-.1-.27-.16h0"/>
      <path class="cls-39" d="M223.8,314.91a43.54,43.54,0,0,0-5.4-.62,17.75,17.75,0,0,0-3.38.18,3.29,3.29,0,0,0-1.17.46c-.27.25-.32.64,0,.82l.07,0c.08,0,.15,0,.23-.25.38-.86,2.21-1.14,5-.77.39,0,1,.1,1.27.12a9.14,9.14,0,0,1,1.48.22,3.87,3.87,0,0,1,1.11.45c.67.45.67,1,0,1.77a13.6,13.6,0,0,1-2.26,1.76,9.13,9.13,0,0,1-6,1l-.54-.11a1.91,1.91,0,0,1-1-.62,16.36,16.36,0,0,0-2.75-2.12,9.83,9.83,0,0,0-2.81-1.31,6.19,6.19,0,0,0-1.21-.17,2.85,2.85,0,0,0-1.42.32,3.41,3.41,0,0,0-1.86,2.37,11.82,11.82,0,0,0,0,1.57,8.34,8.34,0,0,1,0,1.4.74.74,0,0,1-.28.14,1.8,1.8,0,0,0-1,.46c-.27.23-.33.3-.4.52a1,1,0,0,0,.13.86,1.62,1.62,0,0,0,.87.52,1.67,1.67,0,0,0,.59.05c1.09-.07,1.82-.87,1.5-1.62-.11-.27-.12-.28-.59-.59s-.51-.34-.51-.41.77-3.24.91-3.71c.09-.31.42-.43.94-.33h.06a4.18,4.18,0,0,1,1.62,1c1.64,1.57,2.25,3.29,1.67,4.87a.72.72,0,0,0-.09.33h0a4.09,4.09,0,0,0,.77-.2,15.8,15.8,0,0,1,7.56-.14l1,.22a6.81,6.81,0,0,1,1.86.73,5.52,5.52,0,0,1,2.61,2.81,2.68,2.68,0,0,0,.23.51l.19-.07a8.27,8.27,0,0,1,4-1.46,7.46,7.46,0,0,1,2.54.2l.53.16c.61.21.71.27.73.48s-.4.86-1.52,1.75c-.77.59-.79.61-1,.62a1.54,1.54,0,0,1-.38-.06l-.15,0-.1,0a2.15,2.15,0,0,0-1.38.11c-.74.33-1,.95-.74,1.5a1.45,1.45,0,0,0,1,.68,2.16,2.16,0,0,0,1.18,0c.82-.29,1.19-.88,1-1.53a.47.47,0,0,1,0-.38A2.74,2.74,0,0,1,229,329a9.08,9.08,0,0,0,1.76-1.13c1.6-1.31,1.6-2.58,0-3.62a3.14,3.14,0,0,0-1.13-.48l-1.33-.36c-2.12-.52-3.54-.64-4.39-.35a1.05,1.05,0,0,1-.54.09.89.89,0,0,1-.29-.15,1.4,1.4,0,0,1-.58-1.94c.09-.1.45-.45.82-.78,1.62-1.41,2.43-2.68,2.31-3.69-.08-.73-.73-1.3-1.8-1.62l-.07,0"/>
      <path class="cls-39" d="M216,316a1.93,1.93,0,0,0-1.7.39,1,1,0,0,0-.29,1.34,2.46,2.46,0,0,0,.83.57l.11,0a2,2,0,0,0,1.09-.05,1.41,1.41,0,0,0,.67-.38,1,1,0,0,0,.43-.87,1.12,1.12,0,0,0-.65-.84A1.84,1.84,0,0,0,216,316"/>

      <path class="cls-39" d="M164.76,317a18.47,18.47,0,0,0-8.46,2,8.22,8.22,0,0,0-2.82,2.25,2.9,2.9,0,0,0-.62,2,3,3,0,0,0,.73,1.34,5.79,5.79,0,0,0,2.12,1.13,14.28,14.28,0,0,0,2.83.43h.63a18.59,18.59,0,0,0,3.88-.41c.56-.12.73-.19.76-.3s-.09-.16-.27-.16h0l-.64.11a14,14,0,0,1-2.66.27,8.15,8.15,0,0,1-3.35-.62c-1.39-.65-1.8-1.74-1.09-2.9a7.11,7.11,0,0,1,3.49-2.48,8.1,8.1,0,0,1,1.58-.48,10,10,0,0,1,1.65-.35,14.19,14.19,0,0,1,1.8-.12,6.31,6.31,0,0,1,4.27,1.21,1.82,1.82,0,0,1,.49,1.58.79.79,0,0,0-.07.22c0,.2.24.32.59.32a1.7,1.7,0,0,0,.61-.12,1.15,1.15,0,0,0,.58-.57c.85-1.7-.12-3.18-2.56-3.95a14.71,14.71,0,0,0-2.84-.44h-.59"/>
      <path class="cls-39" d="M163.51,320.47h-.12a8,8,0,0,0-2,.3,5.63,5.63,0,0,0-2.31,1.17,1.62,1.62,0,0,0-.65,1.16,1.22,1.22,0,0,0,.11.45c.28.48.81.74,1.79.89a7.11,7.11,0,0,0,.92.06,8.36,8.36,0,0,0,1.09-.08A7.07,7.07,0,0,0,164,324c.06-.06,0-.1-.8-.69a4.39,4.39,0,0,1-.86-.7l.11-.14,1.67-.72c.86-.35,1.58-.66,1.62-.7s0-.08-.09-.15a5.35,5.35,0,0,0-2.18-.41"/>
      <path class="cls-39" d="M167.75,310.7a5.27,5.27,0,0,0-.64.05,8.18,8.18,0,0,0-3.28,1.22c-.13.09-.68.55-1.2,1a13.9,13.9,0,0,1-1.1.9,1.26,1.26,0,0,1-.33.05H161a2.68,2.68,0,0,0-.88.13,2.22,2.22,0,0,0-.73.28,1.08,1.08,0,0,0-.54.57c-.06.29.23.55.7.62a2.43,2.43,0,0,0,.38,0,2.61,2.61,0,0,0,2.05-.83c.12-.19.11-.2,0-.48s-.15-.31-.08-.35,3.06-2,3.51-2.25a1.06,1.06,0,0,1,.56-.16,1,1,0,0,1,.44.1,1.15,1.15,0,0,1,.54,1c.09,1.29-.73,2.5-2.4,3.43a1.73,1.73,0,0,0-.31.2h1.17a13.64,13.64,0,0,1,5.65,1.19,3.16,3.16,0,0,1,1.55,1.11,1.93,1.93,0,0,1-.09,2.26c-.11.18-.21.36-.21.37h.21a16.28,16.28,0,0,1,3-.36,9.36,9.36,0,0,1,1.18.08,4.65,4.65,0,0,1,2.15.75c.31.24.34.29.2.44a17.14,17.14,0,0,1-3.65,1.12h-.11a1.21,1.21,0,0,1-.33-.15,1.83,1.83,0,0,0-.95-.22l-.29,0a2.2,2.2,0,0,0-1.72.85c-.2.43.29.77,1,.77h.16a2.52,2.52,0,0,0,1.91-.83.79.79,0,0,1,.26-.26,8.06,8.06,0,0,1,.86-.15,18.26,18.26,0,0,0,2.24-.43c2.25-.58,3.22-1.41,2.77-2.34-.09-.22-.14-.26-.52-.5a7.61,7.61,0,0,0-3.8-1.44h-.4c-.26,0-.3,0-.37-.18-.21-.45.24-1,1-1.36.15,0,.69-.22,1.22-.36,2.36-.65,4-1.34,4.64-2,.49-.48.41-1-.19-1.35a23.4,23.4,0,0,0-3.82-1.34,16.2,16.2,0,0,0-2.78-.46H176a5.08,5.08,0,0,0-1.08.1c-.41.12-.74.36-.66.53a.07.07,0,0,0,.07,0,.9.9,0,0,0,.33-.13,3.16,3.16,0,0,1,1.46-.3,9.3,9.3,0,0,1,3.09.65l.9.29c.88.26,1.37.56,1.53.88s-.25.77-1.36,1.13a28.23,28.23,0,0,1-3.12.76,16.14,16.14,0,0,1-2.39.2,7.78,7.78,0,0,1-3.09-.54c-.56-.25-.6-.28-.64-.73a4.73,4.73,0,0,0-.55-1.84,2.94,2.94,0,0,0-2-1.64,3.45,3.45,0,0,0-.72-.08"/>
      <path class="cls-39" d="M175.07,312.36a3.57,3.57,0,0,0-.88.12c-.65.17-1.17.51-1.25.82a.66.66,0,0,0,.21.51,1.64,1.64,0,0,0,.86.19h.12a2.54,2.54,0,0,0,.81-.13,2.18,2.18,0,0,0,1-.49.48.48,0,0,0,.13-.66,1.19,1.19,0,0,0-1-.36"/>

      <path class="cls-39" d="M306.46,304.81a18.5,18.5,0,0,0-8.46,2,8.27,8.27,0,0,0-2.81,2.25,2.85,2.85,0,0,0-.62,2,2.91,2.91,0,0,0,.73,1.34,5.46,5.46,0,0,0,2.11,1.13,13.68,13.68,0,0,0,2.84.43l.63,0a18.67,18.67,0,0,0,3.88-.42c.56-.12.73-.19.76-.3s-.09-.16-.27-.16h0l-.64.11a14,14,0,0,1-2.66.27,8.16,8.16,0,0,1-3.36-.62c-1.39-.65-1.79-1.74-1.09-2.9a7.11,7.11,0,0,1,3.49-2.48,8.89,8.89,0,0,1,1.58-.48,10.45,10.45,0,0,1,1.65-.35,14.34,14.34,0,0,1,1.81-.12,6.3,6.3,0,0,1,4.26,1.21,1.8,1.8,0,0,1,.5,1.58.84.84,0,0,0-.07.23c0,.19.23.31.58.31a1.58,1.58,0,0,0,.62-.12,1.13,1.13,0,0,0,.57-.57c.86-1.7-.12-3.18-2.55-3.95a14.84,14.84,0,0,0-2.84-.44h-.6"/>
      <path class="cls-39" d="M305.21,308.29h-.12a7.68,7.68,0,0,0-2,.31,5.51,5.51,0,0,0-2.31,1.16,1.61,1.61,0,0,0-.64,1.17,1.23,1.23,0,0,0,.09.45,2.35,2.35,0,0,0,1.8.88,7.57,7.57,0,0,0,.94.07,6.62,6.62,0,0,0,1.07-.09,7.07,7.07,0,0,0,1.66-.44c.06-.05,0-.1-.79-.69a4.39,4.39,0,0,1-.86-.7l.11-.13,1.67-.72c.86-.35,1.58-.67,1.62-.71s0-.07-.1-.15a5.28,5.28,0,0,0-2.18-.41"/>
      <path class="cls-39" d="M309.47,298.52a5.57,5.57,0,0,0-.66.05,8.13,8.13,0,0,0-3.27,1.22c-.14.09-.68.55-1.22,1s-1,.86-1.08.9a1.86,1.86,0,0,1-.33,0h-.29a3,3,0,0,0-.86.13,1.93,1.93,0,0,0-.71.28,1.1,1.1,0,0,0-.55.57c-.06.29.24.55.71.62a2.34,2.34,0,0,0,.38,0,2.61,2.61,0,0,0,2-.83c.11-.19.11-.2,0-.48s-.14-.31-.07-.35,3.06-2,3.52-2.25a1,1,0,0,1,.54-.16,1.22,1.22,0,0,1,.45.1,1.13,1.13,0,0,1,.55,1c.08,1.29-.74,2.51-2.4,3.43a1.12,1.12,0,0,0-.31.2,1.11,1.11,0,0,0,.3,0h.9a13.5,13.5,0,0,1,5.62,1.19,3.23,3.23,0,0,1,1.54,1.11,1.91,1.91,0,0,1-.09,2.26c-.11.19-.2.36-.2.37h0l.17,0a16.33,16.33,0,0,1,3.05-.35,9.29,9.29,0,0,1,1.17.07,4.65,4.65,0,0,1,2.14.75c.32.24.35.3.21.44a7.45,7.45,0,0,1-2.53.87,7.83,7.83,0,0,1-1.14.25H317a1.21,1.21,0,0,1-.33-.15,1.81,1.81,0,0,0-.94-.22l-.29,0a2.22,2.22,0,0,0-1.73.85c-.21.44.29.78,1.07.78h.14a2.53,2.53,0,0,0,1.92-.83.65.65,0,0,1,.25-.25,6,6,0,0,1,.87-.16,19,19,0,0,0,2.24-.43c2.25-.58,3.22-1.4,2.77-2.34-.1-.22-.15-.26-.53-.5a7.54,7.54,0,0,0-3.82-1.44h-.39c-.25,0-.29,0-.36-.18-.21-.45.24-1,1-1.36l1.22-.36c2.35-.65,3.95-1.34,4.63-2,.5-.48.41-1-.18-1.35a24,24,0,0,0-3.83-1.34,17.17,17.17,0,0,0-2.79-.46h-.14a5.65,5.65,0,0,0-1.12.1c-.41.12-.73.36-.65.53s0,0,.07,0a1,1,0,0,0,.32-.13,3.16,3.16,0,0,1,1.46-.3,9.2,9.2,0,0,1,3.09.65l.9.29c.89.26,1.38.56,1.53.88s-.25.77-1.36,1.14a30,30,0,0,1-3.12.76,15.93,15.93,0,0,1-2.38.19,7.78,7.78,0,0,1-3.09-.54c-.56-.25-.6-.28-.65-.73a4.73,4.73,0,0,0-.55-1.84,2.94,2.94,0,0,0-2-1.64,3.27,3.27,0,0,0-.7-.08"/>
      <path class="cls-39" d="M316.78,300.18a3.71,3.71,0,0,0-.89.12c-.65.17-1.16.51-1.24.82a.63.63,0,0,0,.21.51,1.56,1.56,0,0,0,.88.19h.08a2.56,2.56,0,0,0,.82-.13,2.13,2.13,0,0,0,1-.49.47.47,0,0,0,.13-.66,1.15,1.15,0,0,0-1-.36"/>

      <path class="cls-39" d="M340.15,294.85a9.79,9.79,0,0,0-2.57-.28,13.06,13.06,0,0,0-3.14.63,10.21,10.21,0,0,0-2.48,1.42,8.67,8.67,0,0,1,2.72,1.75,7.42,7.42,0,0,1,5.83-1.07c.21.05.41.11.62.18a6.38,6.38,0,0,1,2.45,1.72l.23.3a.66.66,0,0,0,.34.2.86.86,0,0,0,1-.46c.1-.23,0-.51-.21-.93a7.51,7.51,0,0,0-4.78-3.46"/>
      <path class="cls-39" d="M343.73,306a.42.42,0,0,0-.31,0,3.11,3.11,0,0,0-.44.4,7.34,7.34,0,0,1-5.89,2,5.91,5.91,0,0,1-.84-.15l-.33-.09a9.15,9.15,0,0,1-.79,1.35h-.22a10.67,10.67,0,0,0,2,.17,12.66,12.66,0,0,0,3.11-.64,9.57,9.57,0,0,0,3.56-2.36c.35-.37.42-.53.31-.68a.4.4,0,0,0-.18-.1"/>
      <path class="cls-39" d="M339.8,299.8l-.09,0a5,5,0,0,0-2.59.45,4,4,0,0,0-.79.52,8.31,8.31,0,0,1,.43,5.23,3.92,3.92,0,0,0,.85.33,4,4,0,0,0,1.85,0,4.09,4.09,0,0,0,1.79-.85,3.12,3.12,0,0,0,.94-1.22c0-.09-.13-.12-1.61-.51a10.61,10.61,0,0,1-1.67-.49l-.07-.21c0-.07.28-.77.59-1.56a10.7,10.7,0,0,0,.56-1.53c0-.06-.06-.09-.19-.12"/>
      <path class="cls-39" d="M345.43,283.38l-.1,0a32.4,32.4,0,0,0-5.17-.05,14.31,14.31,0,0,0-3.1.6,2.72,2.72,0,0,0-1,.65.63.63,0,0,0,.08.9l.06,0c.08,0,.13-.06.18-.3.24-1,1.89-1.51,4.56-1.45.36,0,.88,0,1.19,0a7,7,0,0,1,1.76.14,2.79,2.79,0,0,1,.74.29c.69.41.77,1,.23,2a13.33,13.33,0,0,1-1.84,2.21,7.41,7.41,0,0,1-5.39,1.84,5,5,0,0,1-.67-.09,1.92,1.92,0,0,1-.85-.54,17.6,17.6,0,0,0-2.85-2,10.16,10.16,0,0,0-2.36-1,5,5,0,0,0-1.57-.13,2.32,2.32,0,0,0-1.28.53,3.83,3.83,0,0,0-1.39,2.83c0,.16.09.94.2,1.73A14,14,0,0,1,327,293a.78.78,0,0,1-.24.19,1.57,1.57,0,0,0-.88.62,1,1,0,0,0-.29.63l1.86,1.32a1.4,1.4,0,0,0,1-1.91c-.14-.28-.15-.28-.64-.57s-.52-.32-.52-.39.25-3.67.31-4.18.32-.53.82-.49l.19,0a4.21,4.21,0,0,1,1.53.9c1.73,1.53,2.54,3.35,2.22,5.16,0,.2,0,.36,0,.37h0a3.47,3.47,0,0,0,.69-.31,12.5,12.5,0,0,1,7-1.06,10.21,10.21,0,0,1,1.6.25,5.54,5.54,0,0,1,1.21.45,5.92,5.92,0,0,1,2.82,2.79,4.34,4.34,0,0,0,.28.53l.17-.1a7.14,7.14,0,0,1,3.45-2.08,6,6,0,0,1,2.82,0l.08,0c.59.16.69.22.75.45s-.26,1-1.17,2.1c-.62.75-.63.76-.81.8a1.07,1.07,0,0,1-.45,0h-.05a1.82,1.82,0,0,0-1.37.27,1.31,1.31,0,0,0-.47,1.75,1.44,1.44,0,0,0,.86.6,1.67,1.67,0,0,0,1.23-.17,1.37,1.37,0,0,0,.66-1.8.69.69,0,0,1-.09-.41,2.88,2.88,0,0,1,.58-.54,8.55,8.55,0,0,0,1.48-1.46c1.29-1.62,1.1-3-.5-4a1.87,1.87,0,0,0-.68-.29l-.44-.1c-2.77-.57-4.52-.61-5.41-.11-.27.14-.39.19-.52.16a1.1,1.1,0,0,1-.25-.12,1.73,1.73,0,0,1-.82-2.06c.07-.13.35-.55.64-1,1.31-1.75,1.87-3.24,1.62-4.34a2.18,2.18,0,0,0-1.79-1.55"/>
      <path class="cls-39" d="M338.3,285.47a1.61,1.61,0,0,0-1.66.6,1.27,1.27,0,0,0-.08,1.52,2.28,2.28,0,0,0,.84.52h0a1.71,1.71,0,0,0,1.11-.17,1.22,1.22,0,0,0,.57-.5,1.13,1.13,0,0,0,.28-1,1.24,1.24,0,0,0-.72-.84,1.89,1.89,0,0,0-.35-.13"/>

      <path class="cls-39" d="M273.35,179a11.66,11.66,0,0,0-2.88-.34,14.05,14.05,0,0,0-3.18.49c-3,.93-5.11,2.84-5.64,5.14a4.61,4.61,0,0,0,.39,3.3,6.37,6.37,0,0,0,2.06,2.31,12.34,12.34,0,0,0,2.43,1.16l.43.11a12,12,0,0,0,3,.36,14.41,14.41,0,0,0,3.17-.49,9.76,9.76,0,0,0,3.59-1.93c.36-.31.43-.45.3-.58a.3.3,0,0,0-.17-.08.41.41,0,0,0-.31,0,3.72,3.72,0,0,0-.45.34,8.23,8.23,0,0,1-6,1.63,8.36,8.36,0,0,1-1.15-.19,5.9,5.9,0,0,1-3.66-2.48,3.67,3.67,0,0,1-.06-3.76c.15-.36.23-.44.8-1a4.21,4.21,0,0,1,1.06-.91,8.68,8.68,0,0,1,6.55-1l.45.13a6.75,6.75,0,0,1,2.52,1.49,1.93,1.93,0,0,0,.24.25.64.64,0,0,0,.32.18.94.94,0,0,0,1-.37c.09-.19,0-.44-.22-.79a7.9,7.9,0,0,0-4.65-2.94"/>
      <path class="cls-39" d="M272.84,183.13l-.14,0a5.81,5.81,0,0,0-2.65.34,3.53,3.53,0,0,0-1.4,1,2.21,2.21,0,0,0-.59,2,2.59,2.59,0,0,0,.95,1.44,5.5,5.5,0,0,0,.68.43,5.65,5.65,0,0,0,.81.29,4.93,4.93,0,0,0,2,0,4.35,4.35,0,0,0,1.82-.69c.4-.26,1-.89.95-1s-.07-.09-.52-.2l-1.12-.26-1-.23a3.6,3.6,0,0,1-.73-.22l-.08-.18.58-1.31a9.13,9.13,0,0,0,.56-1.28c0-.05-.05-.07-.14-.09"/>
      <path class="cls-39" d="M278.47,169.36l-.22-.05a38.94,38.94,0,0,0-5.27-.12,16.56,16.56,0,0,0-3.15.45,2.93,2.93,0,0,0-1,.53.48.48,0,0,0,.09.77l.06,0c.08,0,.14,0,.19-.24.22-.85,1.89-1.26,4.62-1.16H275a7.16,7.16,0,0,1,1.88.18,3,3,0,0,1,.66.23c.7.35.8.89.26,1.64a11.49,11.49,0,0,1-1.85,1.84,8.31,8.31,0,0,1-5.48,1.47,5.7,5.7,0,0,1-.73-.09,2.41,2.41,0,0,1-.82-.46,18.55,18.55,0,0,0-2.93-1.74,12.6,12.6,0,0,0-2.25-.86,6,6,0,0,0-1.76-.17,2.47,2.47,0,0,0-1.29.42,3,3,0,0,0-1.4,2.38,13.93,13.93,0,0,0,.22,1.46,8.35,8.35,0,0,1,.19,1.3.91.91,0,0,1-.24.16,1.5,1.5,0,0,0-.88.51.72.72,0,0,0-.3.53.92.92,0,0,0,.26.78,1.55,1.55,0,0,0,.71.37,1.9,1.9,0,0,0,.75,0c1-.16,1.58-1,1.16-1.65-.14-.23-.16-.24-.66-.5s-.53-.26-.52-.33.2-3.09.25-3.53.33-.44.84-.39l.25,0a4.51,4.51,0,0,1,1.5.78c1.79,1.32,2.63,2.86,2.33,4.39a.85.85,0,0,0,0,.32,4.59,4.59,0,0,0,.7-.26,15.09,15.09,0,0,1,7.12-.78,12.93,12.93,0,0,1,1.81.28,6,6,0,0,1,1.06.36,5.86,5.86,0,0,1,2.89,2.4l.3.45h0s.09,0,.17-.08a7.34,7.34,0,0,1,3.49-1.7,7.25,7.25,0,0,1,3,.08l.16,0c.46.11.55.17.6.34s-.25.83-1.17,1.76c-.63.62-.64.64-.82.66a1.54,1.54,0,0,1-.5,0,2.14,2.14,0,0,0-1.4.2c-.63.38-.81,1-.45,1.47a1.45,1.45,0,0,0,.82.51,2,2,0,0,0,1.3-.11c.72-.33,1-.92.65-1.51-.09-.16-.12-.29-.09-.35a2.38,2.38,0,0,1,.58-.45,7.51,7.51,0,0,0,1.5-1.21c1.29-1.34,1.1-2.54-.55-3.37a2.68,2.68,0,0,0-.58-.23l-.56-.11c-2.84-.53-4.61-.59-5.52-.19-.28.12-.39.16-.53.13a1.6,1.6,0,0,1-.25-.11,1.38,1.38,0,0,1-.85-1.76c.06-.1.35-.45.63-.79,1.31-1.46,1.88-2.71,1.61-3.65a2.14,2.14,0,0,0-1.72-1.3"/>
      <path class="cls-39" d="M271.15,171a1.77,1.77,0,0,0-1.72.47.91.91,0,0,0-.07,1.28,3,3,0,0,0,.86.46h0a2,2,0,0,0,1.13-.14,1.06,1.06,0,0,0,.58-.41.79.79,0,0,0,.26-.84c-.08-.33-.32-.53-.74-.72a1.92,1.92,0,0,0-.31-.11"/>

      <path class="cls-39" d="M81.82,154.88a1.79,1.79,0,0,0-.73.13c-2,.68-3.31,1.92-3.51,3.26a2.67,2.67,0,0,0,.24,1.3,4.59,4.59,0,0,0,3.49,2,5.55,5.55,0,0,0,.83.09,9.17,9.17,0,0,0,3-.29,8.59,8.59,0,0,0,2.24-.95,6.87,6.87,0,0,0,1.23-1.06c.08-.12.17-.23.25-.36a3.06,3.06,0,0,1-1.15.15.84.84,0,0,1-.31-.12,5.46,5.46,0,0,1-1.88,1,7,7,0,0,1-3.19.22l-.24,0a3.08,3.08,0,0,1-.9-.29,2.43,2.43,0,0,1-.75-.4,1.87,1.87,0,0,1-.35-2.88,4.94,4.94,0,0,1,1.53-1.1l.25-.11c.33-.16.29-.49-.09-.56"/>
      <path class="cls-39" d="M85.48,155.94h0c-.07,0-.11.06-.53.7a4.5,4.5,0,0,1-.52.73l-.17,0-1.16-.19-.7-.12-.43-.06c-.06,0-.08,0-.13.12a1.08,1.08,0,0,0,.14,1.09,1.61,1.61,0,0,0,.79.54,3.25,3.25,0,0,0,.63.17,4,4,0,0,0,1.14,0,3.74,3.74,0,0,0,1.38-.45,2.88,2.88,0,0,0,.44-.3A1.17,1.17,0,0,0,86.8,157a1.12,1.12,0,0,0-.51-.73,2.69,2.69,0,0,0-.81-.35"/>
      <path class="cls-39" d="M79.73,151.16a2.81,2.81,0,0,0-2.28.61,1.45,1.45,0,0,0-.39.49c-.66,1.2-.84,1.94-.53,2.3.14.16.13.19,0,.32a2.28,2.28,0,0,1-1.64.44h0l-.68-.24a8.23,8.23,0,0,0-1.76-.49,4.5,4.5,0,0,0-1.46,0,1.86,1.86,0,0,0-1.37.86,8.22,8.22,0,0,0-.47,2.19,3.25,3.25,0,0,0,.21,1.3,1,1,0,0,0,.41.4l.13,0a.84.84,0,0,0,.58-.11s0-.06,0-.08h-.23c-.68-.11-.91-.78-.66-1.87a4.8,4.8,0,0,0,.09-.5,1.58,1.58,0,0,1,.54-1.07,1.35,1.35,0,0,1,1.15-.26,2.74,2.74,0,0,1,.37.08,8.39,8.39,0,0,1,1.56.7,1.87,1.87,0,0,1,1,2.21c-.12.36-.14.39-.6.67a14.17,14.17,0,0,0-1.79,1.28c-.84.73-1.19,1.22-1.21,1.72a.62.62,0,0,0,.3.52,2.84,2.84,0,0,0,1.19.43,5.08,5.08,0,0,0,.88,0c.13,0,.73-.07,1.36-.16s1.15-.13,1.2-.12l.13.09a.64.64,0,0,0,.4.34.88.88,0,0,0,.28.09l.18,0a1.56,1.56,0,0,0,.74-.15c.33-.14.52-.4.48-.62a.72.72,0,0,0-.66-.47,1.76,1.76,0,0,0-.78.06.92.92,0,0,0-.49.29c-.21.17-.28.24-.35.24s-2.8,0-3.2,0h-.1c-.2,0-.27-.14-.21-.32a2.36,2.36,0,0,1,.87-.77A7.65,7.65,0,0,1,77,160.5h.28s0-.14-.18-.28a2.91,2.91,0,0,1-.23-2.93,2.72,2.72,0,0,1,.77-1.21A5.83,5.83,0,0,1,80,154.77a3.41,3.41,0,0,0,.43-.14l-.06-.06c-.83-.49-1.17-.84-1.32-1.39a1.57,1.57,0,0,1,.26-1.23c.17-.25.23-.3.41-.33a.91.91,0,0,1,.33,0,5.82,5.82,0,0,1,1.2.41c.53.24.53.24.54.31a.37.37,0,0,1-.07.22.43.43,0,0,0,.09.57,1.11,1.11,0,0,0,.51.21,1.74,1.74,0,0,0,.81-.08c.54-.2.76-.62.51-.9a.88.88,0,0,0-.56-.27,1.76,1.76,0,0,0-.78.06,1.06,1.06,0,0,1-.33,0,1.51,1.51,0,0,1-.37-.22,4.2,4.2,0,0,0-1-.57,3.55,3.55,0,0,0-.85-.25"/>
      <path class="cls-39" d="M71.9,157.82a1.38,1.38,0,0,0-.45,0,1.35,1.35,0,0,0-.72.34c-.33.3-.25.64.21.83a1.15,1.15,0,0,0,.28.08,1.64,1.64,0,0,0,.88-.11,1.58,1.58,0,0,0,.48-.38.38.38,0,0,0,0-.46.59.59,0,0,0-.34-.23,1.92,1.92,0,0,0-.3-.08"/>

      <path class="cls-j" d="M170.23,281.22l.15,8.28a14.23,14.23,0,0,1-.64,4.14l-.49,1.7,2.21.38L172,294a14,14,0,0,0,.51-4.17l-.13-8.27-2.12-.36"/>
      <path class="cls-j" d="M177.38,292.59h0a1.12,1.12,0,0,1-1.07-1.19l-.09-4.78c0-.67.33-.94,1-.84h0a1.14,1.14,0,0,1,1.08,1.19l.07,4.78c0,.67-.32.95-1,.84m-.29-8.6a2.9,2.9,0,0,0-2.23.34,2.2,2.2,0,0,0-.74,1.87l.09,4.88a3.09,3.09,0,0,0,.81,2.14,4,4,0,0,0,2.36,1.13l.11,0a2.81,2.81,0,0,0,2.23-.34,2.18,2.18,0,0,0,.73-1.87l-.08-4.88a3.15,3.15,0,0,0-.81-2.14A4,4,0,0,0,177.2,284l-.11,0"/>
      <path class="cls-j" d="M186,285.69l-1.64,4.38,1.91,5.63,2.24.39-2.08-5.58,1.67-4.46-2.1-.36m-4-3.34.22,12.66,2,.36L184,282.7l-2-.35"/>
      <path class="cls-j" d="M190.34,294.29c-.76-.12-1.13.2-1.12.95a1.27,1.27,0,0,0,1.21,1.34h0c.76.12,1.13-.2,1.12-.95a1.26,1.26,0,0,0-1.2-1.34h0"/>
      <path class="cls-j" d="M196.24,285.61a3.52,3.52,0,0,0-2.45.32,2,2,0,0,0-.92,1.89l.11,6.43a2.93,2.93,0,0,0,.94,2.17,4.86,4.86,0,0,0,2.6,1.14l.11,0a5.87,5.87,0,0,0,2.92-.2l-.1-5.5-2-.35.07,4.13a1.75,1.75,0,0,1-.91.06h-.06c-.92-.16-1.4-.59-1.41-1.29l-.11-6q0-1.09,1.59-.84h.07a7.8,7.8,0,0,1,2.3.77l0-1.95a9.26,9.26,0,0,0-2.55-.76h-.11"/>
      <polyline class="cls-j" points="201.02 286.52 201.23 298.29 206.96 299.27 206.93 297.47 203.28 296.85 203.23 293.6 206.38 294.14 206.35 292.33 203.2 291.79 203.14 288.68 206.79 289.31 206.75 287.5 201.02 286.52"/>

    </g>
  </g>
</svg>
